<?xml version="1.0" encoding="UTF-8" standalone="no"?>
<!DOCTYPE svg PUBLIC "-//W3C//DTD SVG 1.1//EN" "http://www.w3.org/Graphics/SVG/1.1/DTD/svg11.dtd">
<svg width="100%" height="100%" viewBox="0 0 1545 372" version="1.1" xmlns="http://www.w3.org/2000/svg" xmlns:xlink="http://www.w3.org/1999/xlink" xml:space="preserve" xmlns:serif="http://www.serif.com/" style="fill-rule:evenodd;clip-rule:evenodd;stroke-linejoin:round;stroke-miterlimit:2;">
    <g transform="matrix(1,0,0,1,-105.775833,-434.119167)">
        <g transform="matrix(4.166667,0,0,4.166667,0,0)">
            <g transform="matrix(1,0,0,1,45.5361,114.6054)">
                <path d="M0,19.709L22.066,19.709C27.387,19.709 29.863,18.198 31.409,12.429L32.879,6.942C34.424,1.175 32.758,-0.337 27.437,-0.337L5.371,-0.337L0,19.709ZM-4.362,-10.416L33.163,-10.416C45.595,-10.416 48.869,-6.329 46.183,3.694L42.882,16.014C40.196,26.037 34.732,30.125 22.299,30.125L-15.225,30.125L-4.362,-10.416Z" style="fill:rgb(35,31,32);fill-rule:nonzero;"/>
            </g>
        </g>
        <g transform="matrix(4.166667,0,0,4.166667,0,0)">
            <g transform="matrix(1,0,0,1,112.812,120.0916)">
                <path d="M0,8.735L15.905,8.735L11.922,-6.495L0,8.735ZM6.377,-15.903L22.563,-15.903L33.991,24.638L20.157,24.638L18.213,17.471L-6.989,17.471L-12.551,24.638L-26.44,24.638L6.377,-15.903Z" style="fill:rgb(35,31,32);fill-rule:nonzero;"/>
            </g>
        </g>
        <g transform="matrix(4.166667,0,0,4.166667,0,0)">
            <g transform="matrix(1,0,0,1,162.1445,144.7299)">
                <path d="M0,-40.541L19.266,-40.541L34.729,-11.087L34.84,-11.087L42.732,-40.541L55.166,-40.541L44.303,0L25.036,0L9.574,-29.454L9.462,-29.454L1.57,0L-10.863,0L0,-40.541Z" style="fill:rgb(35,31,32);fill-rule:nonzero;"/>
            </g>
        </g>
        <g transform="matrix(4.166667,0,0,4.166667,0,0)">
            <g transform="matrix(1,0,0,1,237.2383,118.3)">
                <path d="M0,12.319L-15.377,-14.111L-0.367,-14.111L8.857,2.464L26.965,-14.111L41.975,-14.111L12.434,12.319L8.652,26.43L-3.781,26.43L0,12.319Z" style="fill:rgb(35,31,32);fill-rule:nonzero;"/>
            </g>
        </g>
        <g transform="matrix(4.166667,0,0,4.166667,0,0)">
            <g transform="matrix(1,0,0,1,141.5581,169.1799)">
                <path d="M0,12.257L10.887,12.257C9.925,16.033 11.366,16.327 14.505,16.327L27.845,16.327C30.151,16.327 32.57,16.082 33.307,13.336C34.134,10.246 32.911,10.051 18.884,10.051C2.503,10.051 1.166,8.089 3.504,-0.639C5.225,-7.062 7.142,-12.015 20.874,-12.015L36.077,-12.015C48.632,-12.015 48.666,-7.748 46.998,-1.52L46.696,-0.394L35.807,-0.394C36.504,-2.992 36.499,-4.072 31.497,-4.072L19.432,-4.072C16.979,-4.072 15.089,-3.238 14.577,-1.325C13.748,1.764 15.047,1.862 26.732,1.815C43.664,1.764 47.312,2.793 44.54,13.141C41.977,22.701 38.321,24.272 23.852,24.272L10.66,24.272C0.753,24.272 -2.72,22.408 -0.657,14.709L0,12.257Z" style="fill:rgb(35,31,32);fill-rule:nonzero;"/>
            </g>
        </g>
        <g transform="matrix(4.166667,0,0,4.166667,0,0)">
            <g transform="matrix(1,0,0,1,204.0415,175.31)">
                <path d="M0,-0.003L16.919,-0.003C19.468,-0.003 20.898,-1.669 21.462,-3.778L21.83,-5.15C22.474,-7.554 21.664,-8.925 18.378,-8.925L2.391,-8.925L0,-0.003ZM-6.131,-17.752L23.539,-17.752C33.886,-17.752 34.996,-12.556 33.128,-5.592L32.314,-2.552C30.896,2.745 26.96,8.823 19.263,8.823L-2.366,8.823L-4.756,17.749L-15.643,17.749L-6.131,-17.752Z" style="fill:rgb(35,31,32);fill-rule:nonzero;"/>
            </g>
        </g>
        <g transform="matrix(4.166667,0,0,4.166667,0,0)">
            <g transform="matrix(1,0,0,1,250.7891,173.3941)">
                <path d="M0,3.827C-1.381,8.975 -0.826,10.936 4.322,10.936L18.25,10.936C23.398,10.936 25.004,8.975 26.383,3.827L27.408,0.001C28.59,-4.411 28.234,-7.109 22.498,-7.109L9.746,-7.109C4.01,-7.109 2.207,-4.411 1.025,0.001L0,3.827ZM-9.25,-3.382C-6.465,-13.777 0.027,-16.23 9.836,-16.23L27.295,-16.23C37.102,-16.23 42.281,-13.777 39.496,-3.382L36.658,7.21C33.873,17.604 27.379,20.057 17.572,20.057L0.113,20.057C-9.693,20.057 -14.873,17.604 -12.088,7.21L-9.25,-3.382Z" style="fill:rgb(35,31,32);fill-rule:nonzero;"/>
            </g>
        </g>
        <g transform="matrix(4.166667,0,0,4.166667,0,0)">
            <g transform="matrix(1,0,0,1,305.2051,175.6031)">
                <path d="M0,-0.589L18,-0.589C20.941,-0.589 22.336,-1.767 23.02,-4.316L23.334,-5.493C24.176,-8.631 22.764,-9.218 19.33,-9.218L2.313,-9.218L0,-0.589ZM-6.209,-18.045L26.648,-18.045C35.035,-18.045 36.174,-13.878 34.465,-7.503L33.861,-5.247C32.588,-0.491 30.76,2.304 25.441,3.481L25.416,3.579C28.494,4.167 30.811,5.589 29.246,11.424L27.631,17.456L16.744,17.456L17.889,13.189C18.887,9.462 18.137,8.236 14.75,8.236L-2.365,8.236L-4.834,17.456L-15.721,17.456L-6.209,-18.045Z" style="fill:rgb(35,31,32);fill-rule:nonzero;"/>
            </g>
        </g>
        <g transform="matrix(4.166667,0,0,4.166667,0,0)">
            <g transform="matrix(1,0,0,1,346.791,193.059)">
                <path d="M0,-35.501L41.488,-35.501L39.123,-26.674L23.822,-26.674L16.676,0L5.789,0L12.936,-26.674L-2.365,-26.674L0,-35.501Z" style="fill:rgb(35,31,32);fill-rule:nonzero;"/>
            </g>
        </g>
        <g transform="matrix(4.166667,0,0,4.166667,0,0)">
            <g transform="matrix(0.270966,-0.962589,-0.962589,-0.270966,70.893633,217.251321)">
                <path d="M39.311,58.342L45.998,58.342L77.033,-51.905L70.385,-52.046L39.311,58.342Z" style="fill:rgb(35,31,32);fill-rule:nonzero;"/>
            </g>
        </g>
        <g transform="matrix(4.166667,0,0,4.166667,0,0)">
            <g transform="matrix(0.271283,-0.9625,-0.9625,-0.271283,319.038888,199.29318)">
                <path d="M39.91,59.081L46.596,59.081L78.036,-52.713L71.388,-52.854L39.91,59.081Z" style="fill:rgb(35,31,32);fill-rule:nonzero;"/>
            </g>
        </g>
        <g transform="matrix(4.166667,0,0,4.166667,0,0)">
            <g transform="matrix(1,0,0,1,300.71,112.6482)">
                <path d="M0,19.589L-5.73,19.589L-2.433,7.283L-11.384,15.294L-16.042,7.283L-19.34,19.589L-25.07,19.589L-19.821,0L-14.166,0L-9.46,8.112L-0.406,0L5.249,0L0,19.589Z" style="fill:rgb(237,28,36);fill-rule:nonzero;"/>
            </g>
        </g>
        <g transform="matrix(4.166667,0,0,4.166667,0,0)">
            <g transform="matrix(1,0,0,1,320.5605,120.182)">
                <path d="M0,4.521L-1.056,-1.808L-5.505,4.521L0,4.521ZM7.066,12.055L1.224,12.055L0.538,7.861L-7.832,7.861L-10.766,12.055L-16.533,12.055L-2.463,-7.534L3.419,-7.534L7.066,12.055Z" style="fill:rgb(237,28,36);fill-rule:nonzero;"/>
            </g>
        </g>
        <g transform="matrix(4.166667,0,0,4.166667,0,0)">
            <g transform="matrix(1,0,0,1,347.667,126.2353)">
                <path d="M0,-7.585C0.225,-8.422 0.06,-9.071 -0.496,-9.531C-1.052,-9.992 -1.907,-10.222 -3.063,-10.222L-6.683,-10.222L-8.095,-4.948L-4.476,-4.948C-3.321,-4.948 -2.336,-5.199 -1.522,-5.702C-0.709,-6.203 -0.202,-6.832 0,-7.585M3.522,6.002L-2.698,6.002L-6.163,-1.607L-8.99,-1.607L-11.029,6.002L-16.685,6.002L-11.436,-13.587L-1.219,-13.587C0.214,-13.587 1.419,-13.44 2.396,-13.148C3.373,-12.855 4.141,-12.44 4.701,-11.904C5.261,-11.369 5.612,-10.728 5.751,-9.983C5.892,-9.238 5.842,-8.422 5.604,-7.534C5.375,-6.681 5.033,-5.944 4.578,-5.324C4.123,-4.705 3.617,-4.177 3.062,-3.742C2.504,-3.307 1.935,-2.964 1.353,-2.713C0.77,-2.461 0.237,-2.277 -0.246,-2.16L3.522,6.002Z" style="fill:rgb(237,28,36);fill-rule:nonzero;"/>
            </g>
        </g>
        <g transform="matrix(4.166667,0,0,4.166667,0,0)">
            <g transform="matrix(1,0,0,1,370.5293,112.6482)">
                <path d="M0,19.589L-15.984,19.589L-10.735,0L-5.08,0L-9.387,16.073L0.942,16.073L0,19.589Z" style="fill:rgb(237,28,36);fill-rule:nonzero;"/>
            </g>
        </g>
        <g transform="matrix(4.166667,0,0,4.166667,0,0)">
            <g transform="matrix(1,0,0,1,396.1748,132.2369)">
                <path d="M0,-19.589L-11.774,-8.287L-13.995,0L-19.726,0L-17.505,-8.287L-23.223,-19.589L-17.002,-19.589L-13.518,-12.406L-6.22,-19.589L0,-19.589Z" style="fill:rgb(237,28,36);fill-rule:nonzero;"/>
            </g>
        </g>
    </g>
</svg>
