<?xml version="1.0" encoding="UTF-8" standalone="no"?>
<!DOCTYPE svg PUBLIC "-//W3C//DTD SVG 1.1//EN" "http://www.w3.org/Graphics/SVG/1.1/DTD/svg11.dtd">
<svg width="100%" height="100%" viewBox="0 0 29528 8859" version="1.1" xmlns="http://www.w3.org/2000/svg" xmlns:xlink="http://www.w3.org/1999/xlink" xml:space="preserve" xmlns:serif="http://www.serif.com/" style="fill-rule:evenodd;clip-rule:evenodd;stroke-miterlimit:10;">
    <g id="Page-1" serif:id="Page 1" transform="matrix(4.166667,0,0,4.166667,0,0)">
        <rect x="0" y="0" width="7086.614" height="2125.984" style="fill:none;"/>
        <clipPath id="_clip1">
            <rect x="0" y="0" width="7086.614" height="2125.984"/>
        </clipPath>
        <g clip-path="url(#_clip1)">
            <g transform="matrix(1,0,0,1,-28.3465,-28.3469)">
                <rect x="0" y="0" width="7143.308" height="2182.677" style="fill:rgb(228,0,39);"/>
            </g>
            <g transform="matrix(1,0,0,1,2955.3544,855.7869)">
                <path d="M0,683.948C-219.437,683.948 -297.263,500.154 -297.263,342.759C-297.263,90.011 -143.748,0 0,0C143.704,0 297.262,90.011 297.262,342.759C297.262,594.329 143.704,683.948 0,683.948M0,166.725C-66.773,166.725 -103.549,229.094 -103.549,342.759C-103.549,455.29 -66.773,517.223 0,517.223C67.754,517.223 103.505,456.859 103.505,342.759C103.505,227.481 67.754,166.725 0,166.725" style="fill:white;fill-rule:nonzero;"/>
            </g>
            <g transform="matrix(1,0,0,1,3598.768,591.5729)">
                <path d="M0,948.162C-141.852,948.162 -213.835,898.262 -244.573,877.007L-248.257,874.457L-248.257,25.964L-58.489,0L-58.489,327.979C-30.673,299.508 19.249,264.214 96.704,264.214C243.024,264.214 326.998,377.311 326.998,574.774C326.998,822.486 216.93,948.162 0,948.162M-58.489,769.709C-44.69,777.796 -25.244,785.252 10.224,785.252C63.023,785.252 133.219,765.915 133.219,597.969C133.219,485.395 98.905,430.939 28.361,430.939C-4.469,430.939 -33.572,444.695 -58.489,471.988L-58.489,769.709Z" style="fill:white;fill-rule:nonzero;"/>
            </g>
            <g transform="matrix(1,0,0,1,-28.3465,-12.0839)">
                <path d="M4250.871,1536.284L4061.016,1536.284L4061.016,883.335L4250.871,883.335L4250.871,1536.284ZM4155.933,823.778C4095.351,823.778 4059.076,788.463 4059.076,729.32L4059.076,723.412C4059.076,664.095 4094.37,630.13 4155.933,630.13C4217.408,630.13 4252.789,664.095 4252.789,723.412L4252.789,729.32C4252.789,788.463 4216.515,823.778 4155.933,823.778" style="fill:white;fill-rule:nonzero;"/>
            </g>
            <g transform="matrix(1,0,0,1,4360.3146,591.5748)">
                <path d="M0,932.619L191.098,932.619L191.098,0L0,26.531L0,932.619Z" style="fill:white;fill-rule:nonzero;"/>
            </g>
            <g transform="matrix(1,0,0,1,-28.3465,-12.0839)">
                <path d="M4907.548,1536.284L4717.736,1536.284L4717.736,883.335L4907.548,883.335L4907.548,1536.284ZM4812.609,823.778C4752.027,823.778 4715.752,788.463 4715.752,729.32L4715.752,723.412C4715.752,664.095 4751.09,630.13 4812.609,630.13C4874.085,630.13 4909.466,664.095 4909.466,723.412L4909.466,729.32C4909.466,788.463 4873.278,823.778 4812.609,823.778" style="fill:white;fill-rule:nonzero;"/>
            </g>
            <g transform="matrix(1,0,0,1,2321.6572,1523.9429)">
                <path d="M0,-906.219L-221.225,-311.672L-441.272,-906.219L-644.926,-906.219L-703.895,0L-512.754,0L-483.76,-491.586L-294.145,0L-149.634,0L38.651,-491.586L67.645,0L260.115,0L201.169,-906.219L0,-906.219Z" style="fill:white;fill-rule:nonzero;"/>
            </g>
            <g transform="matrix(1,0,0,1,6361.1213,1378.9281)">
                <path d="M0,-363.294C62.849,-363.294 101.979,-330.398 108.149,-251.265L-118.831,-251.221C-108.737,-333.624 -62.979,-363.294 0,-363.294M166.312,-36.863C130.167,-12.208 79.918,0.284 32.438,0.284C-55.567,0.284 -110.024,-32.808 -117.937,-127.158L268.748,-127.158C268.748,-127.158 269.599,-178.998 269.947,-196.285C273.784,-413.652 160.861,-523.719 -4.425,-523.719C-199.644,-523.719 -309.972,-363.25 -309.972,-191.141C-309.972,13.233 -197.572,160.425 13.668,160.425C142.091,160.425 217.322,113.207 256.867,75.101L172.48,-42.161L166.312,-36.863Z" style="fill:white;fill-rule:nonzero;"/>
            </g>
            <g transform="matrix(1,0,0,1,5859.3,858.3808)">
                <path d="M0,665.898L-189.811,665.898L-189.811,12.949L-35.773,12.949L-8.981,76.845C15.5,34.182 58.467,0 157.787,0L189.179,0L165.199,161.537C165.199,161.537 142.157,159.51 126.111,159.51C69.65,159.51 27.468,190.836 0,239.253L0,665.898Z" style="fill:white;fill-rule:nonzero;"/>
            </g>
            <g transform="matrix(1,0,0,1,5417.6808,624.7722)">
                <path d="M0,182.922L-130.167,182.922L-349.473,42.858L-349.473,0L-147.955,0L0,182.922Z" style="fill:white;fill-rule:nonzero;"/>
            </g>
            <g transform="matrix(1,0,0,1,5292.2472,1378.9281)">
                <path d="M0,-363.294C62.892,-363.294 102.066,-330.398 108.192,-251.265L-118.832,-251.221C-108.65,-333.624 -62.98,-363.294 0,-363.294M166.354,-36.863C130.21,-12.208 80.005,0.284 32.481,0.284C-55.568,0.284 -109.98,-32.808 -117.895,-127.158L268.791,-127.158C268.791,-127.158 269.685,-178.998 269.99,-196.285C273.783,-413.652 160.904,-523.719 -4.383,-523.719C-199.557,-523.719 -309.95,-363.25 -309.95,-191.141C-309.95,13.233 -197.507,160.425 13.712,160.425C142.135,160.425 217.409,113.207 256.91,75.101L172.479,-42.161L166.354,-36.863Z" style="fill:white;fill-rule:nonzero;"/>
            </g>
            <g transform="matrix(1,0,0,1,575.9894,707.9794)">
                <path d="M0,709.345L97.598,-115.495L94.568,-116.236C83.668,-118.961 52.712,-121.73 38.411,-121.73C-20.143,-121.73 -66.599,-104.683 -96.137,-89.706C-109.217,-76.583 -121.469,-32.765 -121.469,-18.464L-121.469,-14.562L-24.961,-25.288L-124.281,727.788C-124.281,752.509 -101.849,800.207 -76.256,829.833L-75.188,831.075L-73.574,831.075C-33.376,831.075 45.169,815.881 88.049,799.814L89.205,799.4L89.794,798.376C100.955,780.282 111.899,741.958 111.899,721.008L111.899,717.128L5.406,728.071C2.899,721.989 0.044,711.678 0,709.345" style="fill:white;fill-rule:nonzero;"/>
            </g>
            <g transform="matrix(1,0,0,1,998.4462,951.3247)">
                <path d="M0,488.992C-71.787,488.992 -109.719,433.337 -109.719,328.044C-109.719,251.832 -91.974,145.296 -52.232,79.155C-14.301,16.938 46.02,-20.23 109.174,-20.23C139.911,-20.23 172.48,-12.993 193.016,-1.657L138.429,392.462C107.168,451.104 52.799,488.992 0,488.992M255.756,484.741C253.205,476.98 250.197,463.181 250.153,460.63L315.16,-36.188L313.416,-37.387C281.022,-60.298 211.524,-98.732 110.525,-98.732C-17.789,-98.732 -98.23,-25.375 -143.051,36.231C-200.035,115.67 -232.691,227.481 -232.691,342.911C-232.691,555.874 -121.512,587.724 -55.263,587.724C3.401,587.724 84.431,561.455 136.598,487.968L138.582,487.968C144.337,519.817 158.812,560.474 173.505,585.936L174.573,587.724L176.579,587.724C213.355,587.724 296.892,573.009 338.333,556.441L339.38,556.048L340.034,555.024C350.934,537.235 362.073,498.867 362.073,479.03L362.073,475.193L255.756,484.741Z" style="fill:white;fill-rule:nonzero;"/>
            </g>
            <g transform="matrix(1,0,0,1,-8.504,2125.9833)">
                <path d="M0,-2125.984L-15,-2125.984M7103.623,-2125.984L7118.623,-2125.984M0,0L-15,0M7103.623,0L7118.623,0M8.504,-2134.488L8.504,-2149.488M8.504,8.504L8.504,23.504M7095.119,-2134.488L7095.119,-2149.488M7095.119,8.504L7095.119,23.504" style="fill:none;fill-rule:nonzero;stroke:white;stroke-width:1.25px;"/>
            </g>
            <g transform="matrix(1,0,0,1,-8.504,2125.9833)">
                <path d="M0,-2125.984L-15,-2125.984M7103.623,-2125.984L7118.623,-2125.984M0,0L-15,0M7103.623,0L7118.623,0M8.504,-2134.488L8.504,-2149.488M8.504,8.504L8.504,23.504M7095.119,-2134.488L7095.119,-2149.488M7095.119,8.504L7095.119,23.504" style="fill:none;fill-rule:nonzero;stroke:black;stroke-width:0.25px;"/>
            </g>
        </g>
    </g>
</svg>
