<?xml version="1.0" encoding="UTF-8" standalone="no"?>
<!DOCTYPE svg PUBLIC "-//W3C//DTD SVG 1.1//EN" "http://www.w3.org/Graphics/SVG/1.1/DTD/svg11.dtd">
<svg width="100%" height="100%" viewBox="0 0 325 150" version="1.1" xmlns="http://www.w3.org/2000/svg" xmlns:xlink="http://www.w3.org/1999/xlink" xml:space="preserve" xmlns:serif="http://www.serif.com/" style="fill-rule:evenodd;clip-rule:evenodd;stroke-linejoin:round;stroke-miterlimit:2;">
    <g transform="matrix(1,0,0,1,-446.195417,-527.675417)">
        <g transform="matrix(4.166667,0,0,4.166667,0,0)">
            <g transform="matrix(-1,0,0,1,404.7685,-307.9766)">
                <rect x="262.087" y="434.804" width="35.595" height="1.368" style="fill:rgb(35,31,32);"/>
            </g>
        </g>
        <g transform="matrix(4.166667,0,0,4.166667,0,0)">
            <g transform="matrix(-1,0,0,1,404.7685,-239.5293)">
                <rect x="262.087" y="400.58" width="35.595" height="1.369" style="fill:rgb(35,31,32);"/>
            </g>
        </g>
        <g transform="matrix(4.166667,0,0,4.166667,0,0)">
            <g transform="matrix(1,0,0,1,-155,-273.7535)">
                <path d="M277.989,403.66L294.416,403.66L285.359,418.377L294.417,433.093L277.989,433.093L268.931,418.377L277.989,403.66Z" style="fill:rgb(35,31,32);fill-rule:nonzero;"/>
            </g>
        </g>
        <g transform="matrix(4.166667,0,0,4.166667,0,0)">
            <g transform="matrix(1,0,0,1,-155,-296.6836)">
                <path d="M307.436,430.51L308.51,430.51C309.648,430.51 310.85,430.763 310.85,432.406C310.85,433.868 309.565,434.157 308.51,434.157L307.436,434.157L307.436,430.51M307.436,425.529L308.315,425.529C309.353,425.529 310.511,425.635 310.511,427.098C310.511,428.397 309.321,428.634 308.362,428.634L307.436,428.634L307.436,425.529M305.164,436.141L309.128,436.141C310.557,436.141 313.123,435.672 313.123,432.496C313.123,430.942 312.067,429.789 310.524,429.625L310.524,429.589C311.872,429.318 312.781,428.273 312.781,426.773C312.781,424.011 310.591,423.543 309.128,423.543L305.164,423.543L305.164,436.141Z" style="fill:rgb(35,31,32);fill-rule:nonzero;"/>
            </g>
        </g>
        <g transform="matrix(4.166667,0,0,4.166667,0,0)">
            <g transform="matrix(1,0,0,1,-155,-296.6826)">
                <path d="M326.52,435.96C325.69,436.176 324.799,436.358 323.936,436.358C320.267,436.358 317.717,434.315 317.717,430.057C317.717,425.745 320.088,423.325 323.936,423.325C324.685,423.325 325.677,423.488 326.504,423.848L326.343,425.978C325.48,425.439 324.702,425.311 323.891,425.311C321.549,425.311 320.088,427.293 320.088,429.876C320.088,432.44 321.517,434.372 323.936,434.372C324.831,434.372 325.888,434.156 326.423,433.848L326.52,435.96Z" style="fill:rgb(35,31,32);fill-rule:nonzero;"/>
            </g>
        </g>
        <g transform="matrix(4.166667,0,0,4.166667,0,0)">
            <g transform="matrix(1,0,0,1,-155,-296.6836)">
                <path d="M332.812,423.543L339.115,423.543L339.115,425.529L335.086,425.529L335.086,428.634L338.921,428.634L338.921,430.62L335.086,430.62L335.086,436.141L332.812,436.141L332.812,423.543Z" style="fill:rgb(35,31,32);fill-rule:nonzero;"/>
            </g>
        </g>
        <g transform="matrix(4.166667,0,0,4.166667,0,0)">
            <g transform="matrix(1,0,0,1,-155,-266.2388)">
                <path d="M305.164,408.32L311.467,408.32L311.467,410.305L307.436,410.305L307.436,413.411L311.271,413.411L311.271,415.397L307.436,415.397L307.436,420.918L305.164,420.918L305.164,408.32Z" style="fill:rgb(35,31,32);fill-rule:nonzero;"/>
            </g>
        </g>
        <g transform="matrix(4.166667,0,0,4.166667,0,0)">
            <g transform="matrix(1,0,0,1,-155,-266.2388)">
                <path d="M318.369,408.32L320.644,408.32L320.644,413.735L324.737,408.32L327.532,408.32L322.87,414.258L327.727,420.918L324.753,420.918L320.676,415.071L320.644,415.071L320.644,420.918L318.369,420.918L318.369,408.32Z" style="fill:rgb(35,31,32);fill-rule:nonzero;"/>
            </g>
        </g>
        <g transform="matrix(4.166667,0,0,4.166667,0,0)">
            <g transform="matrix(1,0,0,1,-155,-266.2388)">
                <path d="M334.355,415.288L335.425,415.288C336.563,415.288 337.767,415.541 337.767,417.182C337.767,418.645 336.482,418.934 335.425,418.934L334.355,418.934L334.355,415.288M334.355,410.305L335.233,410.305C336.272,410.305 337.424,410.413 337.424,411.875C337.424,413.174 336.239,413.411 335.282,413.411L334.355,413.411L334.355,410.305M332.08,420.918L336.042,420.918C337.474,420.918 340.038,420.45 340.038,417.272C340.038,415.721 338.985,414.565 337.438,414.403L337.438,414.366C338.789,414.096 339.699,413.049 339.699,411.551C339.699,408.789 337.506,408.32 336.042,408.32L332.08,408.32L332.08,420.918Z" style="fill:rgb(35,31,32);fill-rule:nonzero;"/>
            </g>
        </g>
    </g>
</svg>
