<?xml version="1.0" encoding="UTF-8" standalone="no"?>
<!DOCTYPE svg PUBLIC "-//W3C//DTD SVG 1.1//EN" "http://www.w3.org/Graphics/SVG/1.1/DTD/svg11.dtd">
<svg width="100%" height="100%" viewBox="0 0 1333 533" version="1.1" xmlns="http://www.w3.org/2000/svg" xmlns:xlink="http://www.w3.org/1999/xlink" xml:space="preserve" xmlns:serif="http://www.serif.com/" style="fill-rule:evenodd;clip-rule:evenodd;stroke-linejoin:round;stroke-miterlimit:2;">
    <g transform="matrix(1,0,0,1,0,-0.002083)">
        <g transform="matrix(4.166667,0,0,4.166667,0,0)">
            <g transform="matrix(1,0,0,1,0,64.9624)">
                <path d="M0,-52.096L0,0L11.55,0L11.55,-20.698L37.328,-20.698L37.328,-30.863L11.568,-30.863L11.568,-41.759L38.606,-41.759L38.606,-52.096L0,-52.096Z" style="fill:rgb(26,81,156);fill-rule:nonzero;"/>
            </g>
        </g>
        <g transform="matrix(4.166667,0,0,4.166667,0,0)">
            <g transform="matrix(1,0,0,1,79.805,48.7065)">
                <path d="M0,-19.585C0,-24.006 -2.897,-25.89 -7.211,-25.89L-19.918,-25.89L-19.918,-13.41L-7.211,-13.41C-2.157,-13.41 0,-16.079 0,-19.585M-31.487,-35.84L-7.484,-35.84C5.381,-35.84 11.992,-28.808 12.023,-20.085C12.023,-10.759 5.969,-6.02 -1.848,-4.539L13.786,16.255L-1.539,16.255L-12.459,-4.017L-19.918,-4.017L-19.918,16.255L-31.487,16.255L-31.487,-35.84Z" style="fill:rgb(26,81,156);fill-rule:nonzero;"/>
            </g>
        </g>
        <g transform="matrix(4.166667,0,0,4.166667,0,0)">
            <g transform="matrix(1,0,0,1,82.9646,90.7555)">
                <path d="M0,19.779C0,15.592 -3.139,13.313 -7.763,13.313L-23.162,13.313L-23.162,26.278L-7.763,26.278C-2.121,26.278 0,23.212 0,19.779M-1.685,-1.042C-1.685,-4.978 -4.363,-6.566 -8.775,-6.566L-23.162,-6.566L-23.162,4.657L-8.775,4.657C-3.545,4.657 -1.685,2.284 -1.685,-1.042M-34.621,-16.158L-7.078,-16.158C3.6,-16.158 9.532,-10.956 9.532,-2.754C9.532,2.306 6.363,7.232 -0.315,8.244C6.745,9.214 11.653,14.54 11.653,21.164C11.653,29.581 5.278,35.937 -5.478,35.937L-34.621,35.937L-34.621,-16.158Z" style="fill:rgb(26,81,156);fill-rule:nonzero;"/>
            </g>
        </g>
        <g transform="matrix(4.166667,0,0,4.166667,0,0)">
            <g transform="matrix(1,0,0,1,162.6337,97.9421)">
                <path d="M0,6.663L0,-23.345L11.762,-23.345L11.762,7.23C11.762,16.016 16.064,19.604 22.87,19.604C29.493,19.604 33.704,15.995 33.704,7.23L33.704,-23.345L45.521,-23.345L45.521,6.684C45.521,20.134 38.885,29.814 22.912,29.911C6.163,30.008 0,19.598 0,6.663" style="fill:rgb(26,81,156);fill-rule:nonzero;"/>
            </g>
        </g>
        <g transform="matrix(4.166667,0,0,4.166667,0,0)">
            <g transform="matrix(1,0,0,1,249.5945,110.4374)">
                <path d="M0,-19.585C0,-24.006 -2.897,-25.89 -7.211,-25.89L-19.918,-25.89L-19.918,-13.41L-7.211,-13.41C-2.157,-13.41 0,-16.079 0,-19.585M-31.487,-35.84L-7.484,-35.84C5.381,-35.84 11.992,-28.808 12.023,-20.085C12.023,-10.759 5.969,-6.02 -1.848,-4.539L13.786,16.255L-1.539,16.255L-12.459,-4.017L-19.918,-4.017L-19.918,16.255L-31.487,16.255L-31.487,-35.84Z" style="fill:rgb(26,81,156);fill-rule:nonzero;"/>
            </g>
        </g>
        <g transform="matrix(4.166667,0,0,4.166667,0,0)">
            <g transform="matrix(1,0,0,1,267.6448,101.0084)">
                <path d="M0,-0.727C0.206,-16.549 11.411,-27.572 27.396,-27.572C36.971,-27.572 46.442,-22.988 50.181,-13.722L38.473,-8.238C38.383,-13.134 33.874,-17.406 27.13,-17.406C17.107,-17.406 11.986,-9.702 11.986,-0.548C11.986,8.902 16.967,17.134 27.233,17.134C34.45,17.134 40.334,13.265 41.019,6.848L24.185,6.848L24.185,-2.721L50.763,-2.721L52.205,25.684L42.321,25.684L43.018,13.635C41.4,21.464 34.104,26.845 25.972,26.845C9.284,26.845 -0.206,14.768 0,-0.727" style="fill:rgb(26,81,156);fill-rule:nonzero;"/>
            </g>
        </g>
        <g transform="matrix(4.166667,0,0,4.166667,0,0)">
            <g transform="matrix(1,0,0,1,0,-39.714)">
                <rect x="162.635" y="62.893" width="11.501" height="41.782" style="fill:rgb(26,81,156);"/>
            </g>
        </g>
        <g transform="matrix(4.166667,0,0,4.166667,0,0)">
            <g transform="matrix(0,1,1,0,168.4022,-0.1285)">
                <path d="M7.134,-7.167C3.25,-7.167 0.129,-3.943 0.129,0.014C0.129,3.965 3.25,7.134 7.134,7.134C10.994,7.134 14.172,3.965 14.172,0.014C14.172,-3.943 10.994,-7.167 7.134,-7.167" style="fill:rgb(26,81,156);fill-rule:nonzero;"/>
            </g>
        </g>
        <g transform="matrix(4.166667,0,0,4.166667,0,0)">
            <g transform="matrix(1,0,0,1,140.2737,108.9521)">
                <path d="M0,-34.355C0.739,-32.156 1.11,-29.728 1.11,-27.208C1.11,-18.024 -4.015,-10.437 -13.714,-10.437C-23.367,-10.437 -28.612,-18.046 -28.612,-27.208C-28.612,-29.728 -28.231,-32.156 -27.48,-34.355L-39.911,-34.355C-40.441,-32.082 -40.72,-29.682 -40.72,-27.185C-40.72,-11.548 -30.141,0 -13.714,0C2.207,0 13.218,-11.623 13.218,-27.185C13.218,-29.683 12.946,-32.083 12.426,-34.355L0,-34.355Z" style="fill:rgb(26,81,156);fill-rule:nonzero;"/>
            </g>
        </g>
        <g transform="matrix(4.166667,0,0,4.166667,0,0)">
            <g transform="matrix(1,0,0,1,100.4317,23.18)">
                <path d="M0,41.782L0,0L10.286,0L10.272,27.868C10.272,30.868 12.704,33.3 15.704,33.3L15.797,33.3C18.797,33.3 21.229,30.868 21.229,27.868L21.244,7.686L30.852,7.686L30.837,27.868C30.837,30.868 33.269,33.3 36.269,33.3C39.269,33.3 41.701,30.868 41.701,27.868L41.715,16.126L52.096,16.126L52.096,41.782L0,41.782Z" style="fill:rgb(26,81,156);fill-rule:nonzero;"/>
            </g>
        </g>
        <g transform="matrix(4.166667,0,0,4.166667,0,0)">
            <g transform="matrix(1,0,0,1,205.8573,23.3141)">
                <path d="M0,15.687L-3.086,15.687L-9.249,0L-5.132,0L-1.533,12.406L2.068,0L6.172,0L0,15.687Z" style="fill:rgb(26,81,156);fill-rule:nonzero;"/>
            </g>
        </g>
        <g transform="matrix(4.166667,0,0,4.166667,0,0)">
            <g transform="matrix(1,0,0,1,0,-66.005)">
                <path d="M213.534,94.189L216.71,94.189L216.71,105.006L213.534,105.006L213.534,94.189ZM212.966,90.961C212.966,89.792 213.937,88.853 215.129,88.853C216.319,88.853 217.274,89.792 217.274,90.961C217.274,92.125 216.319,93.081 215.129,93.081C213.937,93.081 212.966,92.125 212.966,90.961" style="fill:rgb(26,81,156);fill-rule:nonzero;"/>
            </g>
        </g>
        <g transform="matrix(4.166667,0,0,4.166667,0,0)">
            <g transform="matrix(1,0,0,1,0,-65.539)">
                <rect x="219.564" y="88.853" width="3.173" height="15.687" style="fill:rgb(26,81,156);"/>
            </g>
        </g>
        <g transform="matrix(4.166667,0,0,4.166667,0,0)">
            <g transform="matrix(1,0,0,1,0,-65.539)">
                <rect x="225.526" y="88.853" width="3.173" height="15.687" style="fill:rgb(26,81,156);"/>
            </g>
        </g>
        <g transform="matrix(4.166667,0,0,4.166667,0,0)">
            <g transform="matrix(1,0,0,1,238.6312,34.9624)">
                <path d="M0,-3.045C0,-3.24 -0.016,-3.413 -0.045,-3.576C-0.278,-4.585 -1.127,-5.179 -2.147,-5.179C-3.512,-5.179 -4.312,-4.361 -4.576,-3.045L0,-3.045ZM-7.705,-1.543C-7.705,-5.008 -5.403,-7.42 -2.064,-7.42C0.628,-7.42 3.176,-5.783 3.176,-1.86C3.176,-1.546 3.176,-1.306 3.16,-0.941L-4.679,-0.941C-4.538,0.691 -3.585,1.766 -1.86,1.766C-0.843,1.766 0.285,1.19 0.399,-0.125L3.158,1.282C2.338,3.284 0.48,4.375 -1.914,4.375C-5.685,4.375 -7.705,1.724 -7.705,-1.543" style="fill:rgb(26,81,156);fill-rule:nonzero;"/>
            </g>
        </g>
        <g transform="matrix(4.166667,0,0,4.166667,0,0)">
            <g transform="matrix(1,0,0,1,197.2547,48.544)">
                <path d="M0,11.036L2.738,7.912C3.353,10.326 5.466,10.875 6.838,10.875C8.281,10.875 9.48,10.22 9.489,9.066C9.495,8.017 8.709,7.379 7.14,7.054L5.238,6.675C2.001,6.01 0.628,4.259 0.621,2.043C0.614,-0.935 3.572,-2.712 6.645,-2.712C9.022,-2.712 11.165,-2.159 12.942,-0.671L10.723,2.417C10.022,0.629 7.893,0.048 6.759,0.035C5.305,0.021 4.267,0.729 4.231,1.689C4.193,2.657 4.711,3.285 6.586,3.623L8.115,3.905C11.396,4.528 13.242,6.382 13.195,8.786C13.135,12.071 10.006,13.748 6.84,13.719C4.025,13.685 1.363,12.721 0,11.036" style="fill:rgb(26,81,156);fill-rule:nonzero;"/>
            </g>
        </g>
        <g transform="matrix(4.166667,0,0,4.166667,0,0)">
            <g transform="matrix(1,0,0,1,212.6606,50.0535)">
                <path d="M0,8.041L0,3.162L-2.084,3.162L-2.084,0.661L0,0.661L0,-3.857L3.115,-3.857L3.115,0.661L5.719,0.661L5.719,3.162L3.115,3.162L3.115,7.555C3.115,8.614 3.731,9.094 4.524,9.141C5.06,9.17 5.562,8.984 5.779,8.511L5.779,11.869C5.298,11.898 4.84,11.898 4.345,11.898C1.764,11.898 0,10.92 0,8.041" style="fill:rgb(26,81,156);fill-rule:nonzero;"/>
            </g>
        </g>
        <g transform="matrix(4.166667,0,0,4.166667,0,0)">
            <g transform="matrix(1,0,0,1,226.9834,56.8284)">
                <path d="M0,-1.058C-0.253,-0.462 -1.152,0.06 -2.696,0.275C-4.106,0.491 -4.632,0.943 -4.632,1.723C-4.632,2.508 -3.94,3.09 -2.902,3.09C-1.074,3.09 0.143,1.273 0,-1.058M-7.658,1.893C-7.658,-0.529 -5.661,-1.345 -2.963,-1.551C-0.912,-1.705 -0.511,-2.107 -0.511,-2.849C-0.511,-3.608 -1.26,-4.153 -2.203,-4.153C-3.138,-4.153 -3.911,-3.64 -3.911,-2.763C-3.911,-2.597 -3.888,-2.427 -3.83,-2.241L-7.216,-3.041C-6.921,-4.922 -5,-6.45 -2.248,-6.45C0.825,-6.45 2.595,-4.814 2.595,-2.239L2.595,5.056L-0.305,5.056L-0.305,3.236C-0.686,4.493 -2.073,5.392 -3.747,5.392C-6.04,5.392 -7.658,3.895 -7.658,1.893" style="fill:rgb(26,81,156);fill-rule:nonzero;"/>
            </g>
        </g>
        <g transform="matrix(4.166667,0,0,4.166667,0,0)">
            <g transform="matrix(1,0,0,1,239.2981,51.9558)">
                <path d="M0,4.505L0,4.16C0,2.022 -1.167,1.083 -2.555,1.083C-4.303,1.083 -5.094,2.629 -5.094,4.458C-5.094,6.065 -4.442,7.721 -2.555,7.721C-0.968,7.721 0,6.551 0,4.505M-8.384,4.328C-8.384,1.401 -6.754,-1.577 -3.263,-1.577C-1.497,-1.577 -0.444,-0.39 -0.148,0.375L-0.148,-5.759L3.028,-5.759L3.028,9.928L0.112,9.928L0.112,8.068C-0.363,9.368 -1.676,10.264 -3.247,10.264C-6.801,10.264 -8.384,7.134 -8.384,4.328" style="fill:rgb(26,81,156);fill-rule:nonzero;"/>
            </g>
        </g>
        <g transform="matrix(4.166667,0,0,4.166667,0,0)">
            <g transform="matrix(1,0,0,1,245.7173,50.0535)">
                <path d="M0,8.041L0,3.162L-2.084,3.162L-2.084,0.661L0,0.661L0,-3.857L3.115,-3.857L3.115,0.661L5.719,0.661L5.719,3.162L3.115,3.162L3.115,7.555C3.115,8.614 3.731,9.094 4.524,9.141C5.06,9.17 5.562,8.984 5.779,8.511L5.779,11.869C5.298,11.898 4.84,11.898 4.345,11.898C1.764,11.898 0,10.92 0,8.041" style="fill:rgb(26,81,156);fill-rule:nonzero;"/>
            </g>
        </g>
    </g>
</svg>
