<?xml version="1.0" encoding="UTF-8" standalone="no"?>
<!DOCTYPE svg PUBLIC "-//W3C//DTD SVG 1.1//EN" "http://www.w3.org/Graphics/SVG/1.1/DTD/svg11.dtd">
<svg width="100%" height="100%" viewBox="0 0 163 80" version="1.1" xmlns="http://www.w3.org/2000/svg" xmlns:xlink="http://www.w3.org/1999/xlink" xml:space="preserve" xmlns:serif="http://www.serif.com/" style="fill-rule:evenodd;clip-rule:evenodd;stroke-linejoin:round;stroke-miterlimit:2;">
    <g transform="matrix(1,0,0,1,0,-0.347)">
        <path d="M8.388,40.137C8.388,45.778 10.557,49.032 14.172,49.032C18.366,49.032 20.681,45.272 20.681,35.582C20.681,25.89 18.366,22.129 14.172,22.129C10.557,22.129 8.388,25.385 8.388,31.024L8.388,40.137ZM0,56.262L0,3.908L8.388,3.908L8.388,18.803L8.532,18.803C10.195,15.551 12.727,14.175 15.98,14.175C22.994,14.175 29.647,19.96 29.647,36.159C29.647,51.202 22.994,56.987 15.98,56.985C10.846,56.985 8.388,54.092 7.521,51.202L7.375,51.2L7.375,56.262L0,56.262Z" style="fill:rgb(35,31,32);fill-rule:nonzero;"/>
        <path d="M53.043,31.024C53.043,25.384 51.451,22.129 47.835,22.129C43.641,22.129 41.325,25.89 41.325,35.581C41.325,45.272 43.641,49.032 47.835,49.032C51.451,49.032 53.043,45.778 53.043,40.137L53.043,31.024ZM54.055,56.262L54.055,51.202L53.909,51.202C52.607,54.239 50.439,56.987 46.028,56.987C39.011,56.987 32.358,51.202 32.358,36.159C32.358,19.96 39.011,14.175 46.028,14.177C49.282,14.175 51.814,15.551 53.909,19.527L54.055,19.527L54.055,14.898L61.432,14.898L61.432,56.262L54.055,56.262Z" style="fill:rgb(35,31,32);fill-rule:nonzero;"/>
        <path d="M109.166,14.898L109.166,56.262L101.501,56.262L101.501,51.346L101.357,51.346C99.839,55.395 96.655,56.987 93.112,56.987C86.461,56.987 81.689,52.503 81.689,45.344L81.689,14.898L90.075,14.898L90.076,43.68C90.076,47.514 91.811,49.323 94.775,49.323C98.318,49.323 100.778,46.864 100.778,42.454L100.778,14.898L109.166,14.898Z" style="fill:rgb(35,31,32);fill-rule:nonzero;"/>
        <rect x="67.086" y="14.898" width="8.389" height="41.364" style="fill:rgb(35,31,32);fill-rule:nonzero;"/>
        <rect x="153.921" y="14.898" width="8.387" height="41.364" style="fill:rgb(35,31,32);fill-rule:nonzero;"/>
        <path d="M145.286,14.898L145.286,6.149L136.896,6.149L136.896,14.898L132.34,14.898L132.34,22.853L136.896,22.853L136.896,56.262L145.286,56.262L145.286,22.853L151.07,22.853L151.07,14.898L145.286,14.898ZM126.481,6.149L118.095,6.149L118.095,14.898L113.538,14.898L113.538,22.853L118.092,22.853L118.092,56.262L126.481,56.262L126.481,22.853L132.267,22.853L132.267,14.898L126.481,14.898L126.481,6.149Z" style="fill:rgb(35,31,32);fill-rule:nonzero;"/>
        <rect x="67.086" y="0.347" width="8.388" height="8.055" style="fill:rgb(128,195,65);fill-rule:nonzero;"/>
        <rect x="153.918" y="0.347" width="8.388" height="8.055" style="fill:rgb(128,195,65);fill-rule:nonzero;"/>
        <path d="M3.85,69.444C1.735,69.444 0.993,71.225 0.993,72.915C0.993,74.604 1.735,76.387 3.85,76.387C5.744,76.387 6.516,74.604 6.516,72.915C6.516,71.225 5.744,69.444 3.85,69.444ZM0,65.719L0.993,65.719L0.993,70.389L1.025,70.389C1.452,69.223 2.635,68.607 3.85,68.607C6.327,68.607 7.511,70.611 7.511,72.915C7.511,75.219 6.327,77.222 3.85,77.222C2.54,77.222 1.404,76.543 0.947,75.44L0.915,75.44L0.915,76.985L0,76.985L0,65.719Z" style="fill:rgb(35,31,32);fill-rule:nonzero;"/>
        <path d="M14.784,67.708L13.758,67.708L12.401,66.097L11.013,67.708L10.098,67.708L11.897,65.483L12.985,65.483L14.784,67.708ZM14.499,72.537L14.468,72.537C14.342,72.772 13.9,72.852 13.632,72.899C11.943,73.199 9.845,73.183 9.845,74.778C9.845,75.77 10.728,76.387 11.66,76.387C13.174,76.387 14.516,75.424 14.499,73.83L14.499,72.537ZM9.198,71.337C9.292,69.428 10.633,68.607 12.496,68.607C13.932,68.607 15.495,69.049 15.495,71.225L15.495,75.549C15.495,75.928 15.684,76.149 16.077,76.149C16.188,76.149 16.314,76.118 16.393,76.087L16.393,76.922C16.172,76.971 16.015,76.985 15.747,76.985C14.736,76.985 14.579,76.417 14.579,75.566L14.547,75.566C13.852,76.624 13.143,77.222 11.581,77.222C10.081,77.222 8.85,76.482 8.85,74.84C8.85,72.551 11.076,72.473 13.222,72.221C14.043,72.124 14.499,72.016 14.499,71.116C14.499,69.774 13.538,69.444 12.369,69.444C11.139,69.444 10.223,70.01 10.192,71.337L9.198,71.337Z" style="fill:rgb(35,31,32);fill-rule:nonzero;"/>
        <path d="M19.296,68.844L20.953,68.844L20.953,69.68L19.296,69.68L19.296,75.171C19.296,75.818 19.391,76.196 20.101,76.243C20.384,76.243 20.668,76.229 20.953,76.196L20.953,77.049C20.653,77.049 20.369,77.081 20.069,77.081C18.743,77.081 18.286,76.639 18.302,75.25L18.302,69.68L16.881,69.68L16.881,68.844L18.302,68.844L18.302,66.397L19.296,66.397L19.296,68.844Z" style="fill:rgb(35,31,32);fill-rule:nonzero;"/>
        <path d="M22.641,68.844L23.635,68.844L23.635,76.985L22.641,76.985L22.641,68.844ZM22.641,65.719L23.635,65.719L23.635,67.312L22.641,67.312L22.641,65.719Z" style="fill:rgb(35,31,32);fill-rule:nonzero;"/>
        <path d="M30.657,71.225C30.608,69.996 29.662,69.444 28.526,69.444C27.642,69.444 26.601,69.79 26.601,70.847C26.601,71.731 27.611,72.047 28.289,72.221L29.615,72.521C30.75,72.694 31.935,73.357 31.935,74.778C31.935,76.543 30.182,77.222 28.668,77.222C26.774,77.222 25.481,76.338 25.323,74.35L26.316,74.35C26.396,75.692 27.39,76.387 28.715,76.387C29.647,76.387 30.941,75.977 30.941,74.84C30.941,73.893 30.057,73.577 29.158,73.357L27.879,73.073C26.585,72.725 25.606,72.284 25.606,70.895C25.606,69.237 27.232,68.607 28.668,68.607C30.294,68.607 31.588,69.458 31.651,71.225L30.657,71.225Z" style="fill:rgb(35,31,32);fill-rule:nonzero;"/>
        <path d="M38.482,71.225C38.435,69.996 37.488,69.444 36.352,69.444C35.467,69.444 34.426,69.79 34.426,70.847C34.426,71.731 35.435,72.047 36.115,72.221L37.44,72.521C38.576,72.694 39.76,73.357 39.76,74.778C39.76,76.543 38.008,77.222 36.494,77.222C34.6,77.222 33.306,76.338 33.148,74.35L34.143,74.35C34.221,75.692 35.215,76.387 36.541,76.387C37.472,76.387 38.766,75.977 38.766,74.84C38.766,73.893 37.882,73.577 36.983,73.357L35.706,73.073C34.411,72.725 33.432,72.284 33.432,70.895C33.432,69.237 35.058,68.607 36.494,68.607C38.119,68.607 39.413,69.458 39.475,71.225L38.482,71.225Z" style="fill:rgb(35,31,32);fill-rule:nonzero;"/>
        <path d="M47.286,72.346C47.239,70.847 46.307,69.444 44.699,69.444C43.073,69.444 42.173,70.863 42.015,72.346L47.286,72.346ZM42.015,73.183C42.031,74.634 42.789,76.387 44.699,76.387C46.15,76.387 46.938,75.534 47.255,74.303L48.247,74.303C47.821,76.149 46.749,77.222 44.699,77.222C42.11,77.222 41.021,75.235 41.021,72.915C41.021,70.77 42.11,68.607 44.699,68.607C47.317,68.607 48.358,70.895 48.28,73.183L42.015,73.183Z" style="fill:rgb(35,31,32);fill-rule:nonzero;"/>
        <path d="M56.452,76.985L55.536,76.985L55.536,75.518L55.505,75.518C54.985,76.607 53.913,77.222 52.696,77.222C50.646,77.222 49.839,76.024 49.839,74.13L49.839,68.844L50.835,68.844L50.835,74.145C50.882,75.613 51.435,76.387 53.013,76.387C54.716,76.387 55.458,74.778 55.458,73.12L55.458,68.844L56.452,68.844L56.452,76.985Z" style="fill:rgb(35,31,32);fill-rule:nonzero;"/>
        <path d="M58.565,68.844L59.481,68.844L59.481,70.754L59.513,70.754C60.017,69.444 61.122,68.67 62.591,68.733L62.591,69.727C60.792,69.632 59.56,70.958 59.56,72.646L59.56,76.985L58.565,76.985L58.565,68.844Z" style="fill:rgb(35,31,32);fill-rule:nonzero;"/>
        <path d="M73.515,71.401C73.245,70.184 72.505,69.444 71.212,69.444C69.302,69.444 68.355,71.178 68.355,72.915C68.355,74.65 69.302,76.387 71.212,76.387C72.442,76.387 73.454,75.424 73.577,74.067L74.573,74.067C74.306,76.024 73.024,77.222 71.212,77.222C68.72,77.222 67.36,75.25 67.36,72.915C67.36,70.58 68.72,68.607 71.212,68.607C72.946,68.607 74.288,69.537 74.511,71.401L73.515,71.401Z" style="fill:rgb(35,31,32);fill-rule:nonzero;"/>
        <path d="M76.778,72.915C76.778,74.65 77.728,76.387 79.634,76.387C81.544,76.387 82.491,74.65 82.491,72.915C82.491,71.178 81.544,69.444 79.634,69.444C77.728,69.444 76.778,71.178 76.778,72.915ZM83.483,72.915C83.483,75.25 82.128,77.222 79.634,77.222C77.142,77.222 75.786,75.25 75.786,72.915C75.786,70.58 77.142,68.607 79.634,68.607C82.128,68.607 83.483,70.58 83.483,72.915Z" style="fill:rgb(35,31,32);fill-rule:nonzero;"/>
        <path d="M85.187,68.844L86.183,68.844L86.183,70.249L86.216,70.249C86.577,69.268 87.663,68.607 88.815,68.607C91.106,68.607 91.8,69.805 91.8,71.747L91.8,76.985L90.808,76.985L90.808,71.906C90.808,70.5 90.349,69.444 88.739,69.444C87.161,69.444 86.216,70.641 86.183,72.237L86.183,76.985L85.187,76.985L85.187,68.844Z" style="fill:rgb(35,31,32);fill-rule:nonzero;"/>
        <path d="M95.491,68.844L97.149,68.844L97.149,69.68L95.491,69.68L95.491,75.171C95.491,75.818 95.585,76.196 96.298,76.243C96.581,76.243 96.864,76.229 97.149,76.196L97.149,77.049C96.849,77.049 96.564,77.081 96.265,77.081C94.94,77.081 94.481,76.639 94.497,75.25L94.497,69.68L93.079,69.68L93.079,68.844L94.497,68.844L94.497,66.397L95.491,66.397L95.491,68.844Z" style="fill:rgb(35,31,32);fill-rule:nonzero;"/>
        <path d="M104.677,72.346C104.626,70.847 103.699,69.444 102.087,69.444C100.464,69.444 99.562,70.863 99.403,72.346L104.677,72.346ZM99.403,73.183C99.421,74.634 100.177,76.387 102.087,76.387C103.541,76.387 104.328,75.534 104.642,74.303L105.638,74.303C105.212,76.149 104.138,77.222 102.087,77.222C99.499,77.222 98.411,75.235 98.411,72.915C98.411,70.77 99.499,68.607 102.087,68.607C104.708,68.607 105.748,70.895 105.669,73.183L99.403,73.183Z" style="fill:rgb(35,31,32);fill-rule:nonzero;"/>
        <path d="M107.248,68.844L108.162,68.844L108.162,70.217L108.208,70.217C108.73,69.237 109.583,68.607 110.875,68.607C111.949,68.607 112.912,69.127 113.212,70.202C113.701,69.127 114.726,68.607 115.8,68.607C117.582,68.607 118.498,69.537 118.498,71.463L118.498,76.985L117.505,76.985L117.505,71.51C117.505,70.17 117,69.444 115.578,69.444C113.857,69.444 113.369,70.863 113.369,72.379L113.369,76.985L112.375,76.985L112.375,71.463C112.39,70.358 111.933,69.444 110.669,69.444C108.953,69.444 108.255,70.739 108.24,72.44L108.24,76.985L107.248,76.985L107.248,68.844Z" style="fill:rgb(35,31,32);fill-rule:nonzero;"/>
        <path d="M124.476,69.444C122.281,69.444 121.619,71.069 121.619,72.915C121.619,74.604 122.361,76.387 124.476,76.387C126.371,76.387 127.142,74.604 127.142,72.915C127.142,71.225 126.371,69.444 124.476,69.444ZM120.626,68.844L121.541,68.844L121.541,70.389L121.574,70.389C122.029,69.287 123.166,68.607 124.476,68.607C126.953,68.607 128.136,70.611 128.136,72.915C128.136,75.219 126.953,77.222 124.476,77.222C123.259,77.222 122.076,76.607 121.65,75.44L121.619,75.44L121.619,80L120.626,80L120.626,68.844Z" style="fill:rgb(35,31,32);fill-rule:nonzero;"/>
        <path d="M130.501,72.915C130.501,74.65 131.451,76.387 133.359,76.387C135.269,76.387 136.214,74.65 136.214,72.915C136.214,71.178 135.269,69.444 133.359,69.444C131.451,69.444 130.501,71.178 130.501,72.915ZM137.208,72.915C137.208,75.25 135.853,77.222 133.359,77.222C130.865,77.222 129.509,75.25 129.509,72.915C129.509,70.58 130.865,68.607 133.359,68.607C135.853,68.607 137.208,70.58 137.208,72.915Z" style="fill:rgb(35,31,32);fill-rule:nonzero;"/>
        <path d="M138.929,68.844L139.843,68.844L139.843,70.754L139.875,70.754C140.38,69.444 141.484,68.67 142.953,68.733L142.953,69.727C141.154,69.632 139.921,70.958 139.921,72.646L139.921,76.985L138.929,76.985L138.929,68.844Z" style="fill:rgb(35,31,32);fill-rule:nonzero;"/>
        <path d="M149.343,72.537L149.312,72.537C149.185,72.772 148.744,72.852 148.474,72.899C146.787,73.199 144.687,73.183 144.687,74.778C144.687,75.77 145.572,76.387 146.501,76.387C148.017,76.387 149.357,75.424 149.343,73.83L149.343,72.537ZM144.039,71.337C144.136,69.428 145.476,68.607 147.337,68.607C148.775,68.607 150.337,69.049 150.337,71.225L150.337,75.549C150.337,75.928 150.527,76.149 150.919,76.149C151.031,76.149 151.158,76.118 151.234,76.087L151.234,76.922C151.015,76.971 150.857,76.985 150.587,76.985C149.58,76.985 149.421,76.417 149.421,75.566L149.388,75.566C148.695,76.624 147.986,77.222 146.423,77.222C144.923,77.222 143.693,76.482 143.693,74.84C143.693,72.551 145.916,72.473 148.064,72.221C148.884,72.124 149.343,72.016 149.343,71.116C149.343,69.774 148.38,69.444 147.212,69.444C145.982,69.444 145.064,70.01 145.035,71.337L144.039,71.337Z" style="fill:rgb(35,31,32);fill-rule:nonzero;"/>
        <path d="M152.578,68.844L153.568,68.844L153.568,76.985L152.578,76.985L152.578,68.844ZM152.578,65.719L153.568,65.719L153.568,67.312L152.578,67.312L152.578,65.719Z" style="fill:rgb(35,31,32);fill-rule:nonzero;"/>
        <path d="M155.699,68.844L156.695,68.844L156.695,70.249L156.726,70.249C157.089,69.268 158.177,68.607 159.328,68.607C161.619,68.607 162.312,69.805 162.312,71.747L162.312,76.985L161.32,76.985L161.32,71.906C161.32,70.5 160.859,69.444 159.25,69.444C157.671,69.444 156.726,70.641 156.695,72.237L156.695,76.985L155.699,76.985L155.699,68.844Z" style="fill:rgb(35,31,32);fill-rule:nonzero;"/>
    </g>
</svg>
