<?xml version="1.0" encoding="UTF-8" standalone="no"?>
<!DOCTYPE svg PUBLIC "-//W3C//DTD SVG 1.1//EN" "http://www.w3.org/Graphics/SVG/1.1/DTD/svg11.dtd">
<svg width="100%" height="100%" viewBox="0 0 11812 11812" version="1.1" xmlns="http://www.w3.org/2000/svg" xmlns:xlink="http://www.w3.org/1999/xlink" xml:space="preserve" xmlns:serif="http://www.serif.com/" style="fill-rule:evenodd;clip-rule:evenodd;stroke-linejoin:round;stroke-miterlimit:2;">
    <g id="Page-1" serif:id="Page 1" transform="matrix(4.166667,0,0,4.166667,0,0)">
        <rect x="0" y="0" width="2834.65" height="2834.65" style="fill:none;"/>
        <g transform="matrix(1,0,0,1,0,-473.541)">
            <path d="M488.511,1443.045L681.46,1443.045L681.46,2309.497L488.511,2309.497L488.511,1443.045ZM681.461,1124.29C681.461,1055.123 734.25,998.694 805.237,998.694C876.225,998.694 934.478,1055.123 934.478,1124.29C934.478,1198.922 876.225,1251.712 805.237,1251.712C736.065,1251.712 681.461,1195.283 681.461,1124.29" style="fill-rule:nonzero;"/>
        </g>
        <g transform="matrix(0,1,1,0,2325.5851,1391.5089)">
            <path d="M125.597,-127.421C56.429,-127.421 0,-74.632 0,-3.644C0,67.343 56.429,125.597 125.597,125.597C200.229,125.597 253.018,67.343 253.018,-3.644C253.018,-72.817 196.589,-127.421 125.597,-127.421" style="fill-rule:nonzero;"/>
        </g>
        <g transform="matrix(1,0,0,1,1497.2157,822.2696)">
            <path d="M0,736.796L0,429.169C-74.637,343.613 -154.728,312.672 -240.284,312.672C-396.827,312.672 -491.477,421.885 -491.477,582.073C-491.477,744.075 -395.002,851.474 -243.924,851.474C-149.264,851.474 -63.708,807.783 0,736.796M191.125,-296.913L191.125,1013.687L0,1013.687L0,915.392C-54.614,988.204 -151.089,1033.709 -271.226,1033.709C-511.5,1033.709 -688.066,846.22 -688.066,582.283C-688.066,318.341 -511.5,127.212 -274.865,127.212C-156.543,127.212 -60.069,176.362 0,254.633L0,-296.913L191.125,-296.913Z" style="fill-rule:nonzero;"/>
        </g>
        <g transform="matrix(1,0,0,1,0,-473.339)">
            <rect x="1879.593" y="998.695" width="191.134" height="1310.599"/>
        </g>
        <g transform="matrix(1,0,0,1,613.464,2156.0598)">
            <path d="M0,71.04L0,0.319C-12.92,-16.792 -31,-27.13 -52.316,-27.13C-86.868,-27.13 -112.379,-0.65 -112.379,35.2C-112.379,71.689 -86.543,98.17 -52.636,98.17C-30.356,98.17 -11.627,86.862 0,71.04M0,-41.334L17.436,-41.334L17.436,112.374L0,112.374L0,88.151C-10.658,103.973 -30.356,115.281 -54.574,115.281C-96.877,115.281 -130.464,80.729 -130.464,35.2C-130.464,-10.009 -96.877,-44.241 -54.899,-44.241C-30.681,-44.241 -10.983,-32.614 0,-15.503L0,-41.334Z" style="fill-rule:nonzero;"/>
        </g>
        <g transform="matrix(1,0,0,1,763.2869,2265.2061)">
            <path d="M0,-150.161L-3.876,-132.401C-6.133,-133.04 -13.885,-135.627 -22.929,-135.627C-38.102,-135.627 -50.698,-128.205 -58.125,-113.342L-58.125,3.227L-75.885,3.227L-75.885,-150.481L-58.125,-150.481L-58.125,-131.112C-48.436,-144.667 -35.52,-153.388 -19.698,-153.388C-11.302,-153.388 -3.231,-151.13 0,-150.161" style="fill-rule:nonzero;"/>
        </g>
        <g transform="matrix(1,0,0,1,782.0159,2191.8997)">
            <path d="M0,-0.64C0,-46.818 34.551,-80.081 79.436,-80.081C102.041,-80.081 120.445,-72.33 137.561,-55.868L125.615,-43.592C111.081,-57.157 98.49,-62.97 79.436,-62.97C44.236,-62.97 18.08,-37.459 18.08,-0.64C18.08,35.849 45.205,62.33 79.436,62.33C100.428,62.33 114.312,55.218 127.872,40.364L139.824,52.311C124.965,68.783 107.53,79.441 79.436,79.441C34.551,79.441 0,45.209 0,-0.64" style="fill-rule:nonzero;"/>
        </g>
        <g transform="matrix(1,0,0,1,1093.6229,2125.7039)">
            <path d="M0,52.96L0,142.73L-17.44,142.73L-17.44,54.898C-17.44,22.284 -36.489,2.906 -63.294,2.906C-89.775,2.906 -107.21,21.955 -113.993,39.076L-113.993,142.73L-131.753,142.73L-131.753,-89.77L-113.993,-89.77L-113.993,19.697C-103.659,0.319 -85.574,-13.885 -59.419,-13.885C-23.574,-13.885 0,12.915 0,52.96" style="fill-rule:nonzero;"/>
        </g>
        <g transform="matrix(1,0,0,1,0,1482.632)">
            <path d="M1147.538,632.093L1165.298,632.093L1165.298,785.801L1147.538,785.801L1147.538,632.093ZM1143.018,580.102C1143.018,572.35 1148.831,566.217 1156.578,566.217C1164.329,566.217 1170.467,572.35 1170.467,580.102C1170.467,587.853 1164.329,593.666 1156.578,593.666C1149.151,593.666 1143.018,587.533 1143.018,580.102" style="fill-rule:nonzero;"/>
        </g>
        <g transform="matrix(1,0,0,1,1298.6641,2076.9478)">
            <path d="M0,186.961C-6.138,190.517 -16.472,194.393 -26.805,194.393C-52.961,194.393 -68.458,178.89 -68.458,153.378L-68.458,59.733L-96.877,59.733L-96.877,44.231L-68.458,44.231L-68.458,2.577L-50.698,-7.432L-50.698,44.231L-4.52,44.231L-4.52,59.733L-50.698,59.733L-50.698,151.77C-50.698,169.201 -41.334,178.25 -24.867,178.25C-18.729,178.25 -9.689,175.014 -4.2,171.788L0,186.961Z" style="fill-rule:nonzero;"/>
        </g>
        <g transform="matrix(1,0,0,1,1342.5751,2202.2374)">
            <path d="M0,-21.316L113.348,-21.316C111.41,-53.61 89.455,-74.596 57.481,-74.596C25.511,-74.596 2.262,-53.93 0,-21.316M-0.32,-7.431C-0.32,29.707 24.218,52.961 61.037,52.961C82.672,52.961 102.041,45.21 116.575,30.027L125.615,41.973C107.854,59.733 84.93,69.103 59.738,69.103C13.885,69.103 -19.054,36.16 -19.054,-11.627C-19.054,-57.485 13.24,-90.419 58.13,-90.419C103.339,-90.419 134.984,-56.517 131.428,-7.431L-0.32,-7.431Z" style="fill-rule:nonzero;"/>
        </g>
        <g transform="matrix(1,0,0,1,1504.679,2191.8997)">
            <path d="M0,-0.64C0,-46.818 34.551,-80.081 79.431,-80.081C102.036,-80.081 120.445,-72.33 137.566,-55.868L125.61,-43.592C111.086,-57.157 98.49,-62.97 79.431,-62.97C44.24,-62.97 18.08,-37.459 18.08,-0.64C18.08,35.849 45.209,62.33 79.431,62.33C100.428,62.33 114.312,55.218 127.877,40.364L139.824,52.311C124.97,68.783 107.53,79.441 79.431,79.441C34.551,79.441 0,45.209 0,-0.64" style="fill-rule:nonzero;"/>
        </g>
        <g transform="matrix(1,0,0,1,1760.0939,2076.9478)">
            <path d="M0,186.961C-6.133,190.517 -16.462,194.393 -26.8,194.393C-52.951,194.393 -68.454,178.89 -68.454,153.378L-68.454,59.733L-96.872,59.733L-96.872,44.231L-68.454,44.231L-68.454,2.577L-50.693,-7.432L-50.693,44.231L-4.515,44.231L-4.515,59.733L-50.693,59.733L-50.693,151.77C-50.693,169.201 -41.334,178.25 -24.862,178.25C-18.729,178.25 -9.679,175.014 -4.195,171.788L0,186.961Z" style="fill-rule:nonzero;"/>
        </g>
        <g transform="matrix(1,0,0,1,1804.0049,2202.2374)">
            <path d="M0,-21.316L113.343,-21.316C111.406,-53.61 89.45,-74.596 57.486,-74.596C25.511,-74.596 2.258,-53.93 0,-21.316M-0.32,-7.431C-0.32,29.707 24.223,52.961 61.032,52.961C82.668,52.961 102.046,45.21 116.579,30.027L125.62,41.973C107.859,59.733 84.925,69.103 59.743,69.103C13.885,69.103 -19.049,36.16 -19.049,-11.627C-19.049,-57.485 13.245,-90.419 58.125,-90.419C103.334,-90.419 134.979,-56.517 131.433,-7.431L-0.32,-7.431Z" style="fill-rule:nonzero;"/>
        </g>
        <g transform="matrix(1,0,0,1,1962.548,2138.6182)">
            <path d="M0,105.922L10.329,93.975C26.151,108.829 41.334,117.22 57.476,117.22C76.534,117.22 90.089,104.953 90.089,88.801C90.089,50.055 8.391,62.65 8.391,14.854C8.391,-9.689 29.707,-26.8 58.445,-26.8C80.4,-26.8 95.583,-16.471 108.179,-4.195L97.521,6.463C86.543,-3.226 75.236,-11.946 58.445,-11.946C39.716,-11.946 26.151,-1.618 26.151,13.246C26.151,49.735 107.849,35.85 107.849,87.513C107.849,114.962 85.245,132.722 57.476,132.722C37.458,132.722 18.08,123.682 0,105.922" style="fill-rule:nonzero;"/>
        </g>
    </g>
</svg>
