<?xml version="1.0" encoding="UTF-8" standalone="no"?>
<!DOCTYPE svg PUBLIC "-//W3C//DTD SVG 1.1//EN" "http://www.w3.org/Graphics/SVG/1.1/DTD/svg11.dtd">
<svg width="100%" height="100%" viewBox="0 0 792 233" version="1.1" xmlns="http://www.w3.org/2000/svg" xmlns:xlink="http://www.w3.org/1999/xlink" xml:space="preserve" xmlns:serif="http://www.serif.com/" style="fill-rule:evenodd;clip-rule:evenodd;stroke-linejoin:round;stroke-miterlimit:2;">
    <g transform="matrix(1,0,0,1,0,-0.485001)">
        <g>
            <path d="M638.634,159.975C647.06,168.425 662.702,176.207 678.003,176.487C697.598,176.819 716.421,168.303 728.437,154.543C730.236,152.125 733.311,150.591 736.295,152.329C739.409,154.112 739.56,157.928 738.214,160.755C725.059,182.978 701.581,196.859 674.483,196.859L674.483,196.851C630.927,196.034 595.872,160.471 595.872,116.721C595.872,72.469 631.739,36.594 675.988,36.579C709.387,36.594 746.586,59.176 746.586,91.577C746.586,112.44 728.37,130.067 706.807,130.067L649.999,130.204C632.069,130.204 630.971,139.027 630.971,143.918C630.971,148.498 633.669,155.004 638.634,159.975ZM675.593,0.485C611.386,0.485 559.335,52.535 559.335,116.742C559.335,180.949 611.386,233 675.593,233C739.801,233 791.851,180.949 791.851,116.742C791.851,52.535 739.801,0.485 675.593,0.485ZM650.475,109.966C626.06,109.966 617.577,123.234 617.577,123.234C617.577,58.552 675.505,58.552 675.505,58.552C697.958,58.552 724.599,73.128 724.599,92.322C724.599,101.926 715.531,109.83 705.85,109.83L650.475,109.966ZM339.15,67.055L330.803,135.332C329.692,144.507 325.384,152.183 318.356,158.153C311.194,164.033 302.928,166.977 293.582,166.977L282.656,166.977C273.206,166.977 265.462,164.011 259.656,157.78C253.664,151.527 251.286,143.709 252.396,134.482L260.588,67.055L277.707,67.055C281.33,67.055 283.938,70.177 283.506,73.733L276.023,135.332C275.687,138.096 276.045,140.758 278.154,143.075C279.466,144.529 281.806,145.989 284.065,145.989C288.544,145.989 295.259,146.087 295.259,146.087C298.464,146.087 301.125,144.626 303.227,142.598C305.425,140.519 307.012,137.717 307.393,134.482L314.682,72.89C315.062,69.641 317.857,67.055 321.143,67.055L339.15,67.055ZM410.654,115.946C409.529,125.174 406.421,132.545 401.443,138.045C396.807,143.224 391.813,145.691 386.447,145.691L369.916,145.691L375.491,98.835C375.901,95.406 377.503,92.619 379.687,90.539C382.005,88.289 384.77,86.716 387.587,86.664L394.548,86.664C399.527,86.507 403.708,88.945 406.92,94.028C410.415,99.453 411.817,106.653 410.654,115.946ZM396.136,65.781L389.189,65.781C380.015,65.781 371.742,68.941 364.587,74.799C357.566,80.798 353.221,88.654 352.096,98L338.994,206.471L356.821,206.471C360.085,206.471 362.955,203.877 363.35,200.591L367.397,166.963L384.845,166.963C397.172,166.783 408.105,162.088 417.384,152.549C426.656,143.157 432.305,131.24 434.072,116.788C435.771,102.643 433.036,90.488 425.962,80.478C418.726,70.551 408.635,65.781 396.136,65.781ZM63.439,98L57.514,145.721L40.186,145.691C34.887,145.691 30.818,143.321 27.628,138.455C24.132,133.222 22.791,126.075 23.924,116.788C25.049,107.532 28.179,100.169 33.225,94.46C37.95,89.049 42.989,86.537 47.99,86.664L54.995,86.664C57.686,86.716 59.832,88.177 61.427,90.159C62.933,91.985 63.864,94.556 63.439,98ZM56.836,65.781L49.875,65.781C37.421,65.781 26.525,70.506 17.208,80.053C7.914,89.802 2.235,101.748 0.498,115.946C0.178,118.622 0.014,121.23 0,123.75L0,124.503C0.052,135.213 2.943,144.462 8.667,152.131C15.889,162.036 25.958,166.762 38.249,166.963L54.57,166.963C54.198,169.966 52.357,179.886 50.046,182.07C47.937,184.104 45.299,185.461 42.094,185.461L23.164,185.461C19.854,185.461 17.142,188.151 16.739,191.363L14.719,206.471L40.395,206.471C49.749,206.471 57.999,203.513 65.184,197.646C72.189,191.639 76.542,183.977 77.652,174.796L86.82,98.835C87.982,89.511 85.598,81.417 79.791,75.171C73.829,68.985 66.056,65.781 56.836,65.781ZM157.087,67.055L155.284,82.192C154.896,85.456 152.027,88.043 148.74,88.043L139.863,88.043C136.666,88.043 133.983,89.384 131.873,91.434C129.668,93.528 128.095,96.301 127.686,99.535L120.433,161.127C120.031,164.376 117.147,166.963 113.867,166.963L96.084,166.963L104.297,98.708C105.408,89.511 109.731,81.857 116.767,75.872C123.921,69.991 132.172,67.055 141.503,67.055L157.087,67.055ZM514.534,99.081C513.611,106.727 506.903,111.325 499.987,111.325L480.832,111.34L469.883,111.34C471.471,105.073 474.289,98.708 478.06,94.46C482.807,89.049 489.329,86.44 494.016,86.44L502.983,86.44C509.914,86.44 515.526,90.942 514.534,99.081ZM504.384,65.781L494.754,65.781C482.278,65.781 471.381,70.506 462.073,80.053C452.771,89.802 447.099,101.748 445.385,115.946C443.641,130.361 446.339,142.479 453.546,152.131C460.761,162.036 469.593,166.977 483.098,166.977C495.06,166.977 511.717,164.786 511.717,164.786L513.349,151.304C513.758,147.987 511.36,145.49 508.155,145.49C499.987,145.49 495.604,146.489 484.946,146.489C479.013,146.489 475.675,143.321 472.499,138.455C470.897,136.017 469.735,133.2 469.072,129.93L497.445,129.93C506.829,129.93 515.064,127.007 522.255,121.074C529.291,115.089 533.525,107.45 534.643,98.276C535.761,89.071 533.383,81.208 527.406,74.97C521.591,68.747 513.834,65.781 504.384,65.781ZM217.465,115.946C216.309,125.382 214.982,132.849 209.899,138.492C205.144,143.762 200.092,146.295 194.591,146.295L193.533,146.295C188.137,146.295 183.97,143.858 180.713,138.88C177.158,133.565 177.628,126.262 178.761,116.804C179.916,107.361 181.272,99.811 186.422,94.028C191.245,88.52 196.394,85.933 201.5,86.09L202.872,86.09C207.925,85.911 212.173,88.393 215.482,93.58C219.037,99.133 218.612,106.473 217.465,115.946ZM204.354,65.781L203.304,65.781C190.857,65.781 179.946,70.506 170.644,80.053C161.335,89.802 157.915,101.748 156.178,115.946C154.442,130.361 154.918,142.479 162.118,152.131C169.325,162.036 179.394,166.762 191.685,166.963L193.093,166.963C205.376,166.783 216.309,162.088 225.588,152.549C234.89,143.157 238.303,131.24 240.04,116.788C241.754,102.643 241.262,90.488 234.204,80.478C226.952,70.551 216.868,65.781 204.354,65.781Z" style="fill:rgb(0,74,141);fill-rule:nonzero;"/>
        </g>
    </g>
</svg>
