<?xml version="1.0" encoding="UTF-8" standalone="no"?>
<!DOCTYPE svg PUBLIC "-//W3C//DTD SVG 1.1//EN" "http://www.w3.org/Graphics/SVG/1.1/DTD/svg11.dtd">
<svg width="100%" height="100%" viewBox="0 0 1920 1080" version="1.1" xmlns="http://www.w3.org/2000/svg" xmlns:xlink="http://www.w3.org/1999/xlink" xml:space="preserve" xmlns:serif="http://www.serif.com/" style="fill-rule:evenodd;clip-rule:evenodd;stroke-linejoin:round;stroke-miterlimit:2;">
    <g transform="matrix(0.171304,0.13157,-0.13157,0.171304,473.110324,109.632093)">
        <path d="M31.228,2606.03C54.916,2606.03 78.625,2606.585 102.291,2605.868C124.162,2605.21 140.412,2594.268 149.641,2574.48C158.691,2555.072 156.396,2536.068 143.55,2518.951C132.341,2504.014 116.741,2497.405 98.17,2497.422C54.12,2497.464 10.07,2497.43 -33.975,2497.442C-36.196,2497.442 -38.425,2497.455 -40.634,2497.642C-73.909,2500.447 -96.73,2531.305 -89.554,2563.764C-84.213,2587.943 -63.113,2605.447 -37.617,2605.951C-14.68,2606.405 8.279,2606.047 31.229,2606.031L31.228,2606.03ZM924.26,653.705L924.26,653.78C939.05,653.78 953.847,653.8 968.638,653.776C983.434,653.746 998.247,654.138 1013.018,653.526C1039.276,652.434 1060.613,632.351 1063.955,606.342C1067.263,580.555 1051.375,555.467 1026.255,548.038C1019.292,545.98 1011.685,545.38 1004.372,545.351C950.747,545.134 897.122,545.196 843.501,545.284C837.976,545.292 832.363,545.554 826.946,546.542C804.951,550.572 787.617,568.613 784.146,590.63C778.921,623.792 802.796,652.909 836.605,653.584C865.813,654.167 895.038,653.704 924.259,653.704L924.26,653.705ZM513.263,1309.018L513.263,1309.052C547.709,1309.052 582.155,1309.297 616.593,1308.868C624.58,1308.768 633.043,1307.677 640.417,1304.806C664.105,1295.585 677.613,1269.993 672.859,1245.41C667.821,1219.347 646.913,1201.58 620.455,1201.426C584.9,1201.222 549.342,1201.351 513.788,1201.36C477.492,1201.364 441.192,1201.018 404.905,1201.522C373.025,1201.968 349.046,1230.61 353.225,1262.202C356.775,1289.018 378.275,1308.647 405.492,1308.931C441.412,1309.297 477.342,1309.018 513.262,1309.018L513.263,1309.018ZM516.239,112.826C450.356,112.826 384.473,112.822 318.589,112.83C314.148,112.83 309.698,112.739 305.269,112.972C278.243,114.389 256.114,136.042 254.385,162.66C252.548,190.976 271.518,215.61 298.977,220.201C304.418,221.11 310.027,221.293 315.56,221.293C449.177,221.351 582.794,221.351 716.41,221.306C721.577,221.301 726.827,221.264 731.898,220.406C753.515,216.735 768.368,204.422 775.218,183.664C782.094,162.814 777.094,144.143 761.844,128.48C750.606,116.947 736.51,112.714 720.548,112.755C652.448,112.943 584.344,112.835 516.239,112.826ZM91.048,3271.762C161.378,3271.762 231.703,3271.766 302.032,3271.757C306.844,3271.753 311.665,3271.841 316.465,3271.599C343.974,3270.232 365.903,3248.674 367.907,3221.129C369.853,3194.407 351.237,3169.761 324.674,3164.607C317.844,3163.282 310.699,3163.195 303.694,3163.191C161.561,3163.116 177.779,3164.096 35.645,3164.105C31.575,3164.105 27.491,3164 23.432,3164.246C-6.859,3166.084 -29.018,3189.863 -28.488,3219.867C-27.972,3248.947 -4.834,3271.759 25.095,3272.638C29.903,3272.78 34.72,3272.721 39.528,3272.721C109.487,3272.726 21.09,3271.762 91.048,3271.762ZM1143.729,3.072C1147.342,4.884 1150.863,6.909 1154.575,8.472C1179.105,18.812 1192.3,42.35 1188.134,68.517C1184.292,92.634 1163.888,111.109 1138.342,113.375C1133.192,113.83 1127.979,113.684 1122.796,113.684C1051.316,113.7 994.887,112.796 923.403,112.879C917.133,112.884 910.712,112.863 904.616,114.113C879.462,119.275 861.541,142.296 862.116,168.033C862.691,193.942 881.357,216.009 906.762,220.159C913.649,221.284 920.774,221.296 927.795,221.296C1057.42,221.359 927.905,221.027 1057.535,221.044C1063.46,221.044 1069.405,220.914 1075.301,221.364C1102.91,223.481 1124.051,245.79 1124.885,273.464C1125.743,301.806 1105.83,325.573 1077.914,329.006C1070.597,329.91 1063.126,329.777 1055.726,329.781C769.438,329.815 742.29,330.121 455.995,330.134C449.703,330.134 443.39,330.009 437.111,330.371C407.144,332.088 385.128,355.346 385.332,384.896C385.528,413.755 407.694,436.709 437.065,438.355C442.236,438.646 447.432,438.559 452.62,438.567C478.915,438.605 1344.139,435.962 1370.422,436.558C1404.655,437.333 1428.234,464.028 1424.814,497.188C1422.272,521.845 1402.443,541.958 1377.743,544.645C1372.239,545.245 1366.651,545.195 1361.101,545.204C1309.989,545.241 1258.881,545.212 1207.768,545.254C1202.588,545.258 1197.368,545.22 1192.243,545.841C1163.726,549.308 1143.413,573.191 1144.393,601.858C1145.355,629.983 1168.072,652.496 1196.763,653.65C1202.309,653.875 1207.872,653.825 1213.426,653.77C1283.375,653.816 1290.608,653.647 1306.803,653.515C1314.178,653.519 1321.711,653.535 1328.903,654.927C1356.599,660.29 1374.653,685.04 1372.195,713.473C1369.899,740.073 1347.541,761.627 1320.265,762.019C1280.645,762.594 1241.007,762.139 1201.378,762.332C1194.758,762.361 983.264,762.671 708.451,762.779C702.176,762.783 695.792,762.799 689.642,763.859C662.646,768.499 643.438,793.429 645.446,820.696C647.48,848.316 669.555,869.858 697.03,870.946C702.205,871.15 707.396,871.05 712.584,871.054C888.876,871.129 1065.172,871.184 1241.464,871.321C1248.472,871.329 1255.63,871.304 1262.459,872.633C1289.659,877.937 1308.434,902.954 1306.068,929.996C1303.651,957.596 1281.664,978.754 1254.022,979.979C1248.847,980.209 1243.655,980.109 1238.468,980.112C1208.097,980.133 773.428,980.955 743.061,981.38C711.965,981.81 688.603,1005.484 688.674,1035.676C688.74,1065.893 712.074,1089.076 743.261,1089.859C748.445,1089.989 753.632,1089.918 758.815,1089.918C1026.22,1089.918 677.502,1090.29 944.91,1090.294C950.464,1090.294 956.026,1090.185 961.572,1090.414C990.618,1091.606 1013.256,1114.631 1013.868,1143.498C1014.489,1172.765 992.264,1196.948 962.772,1198.915C957.239,1199.285 951.668,1199.11 946.114,1199.11C695.372,1199.119 1060.757,1198.747 810.02,1198.747C804.836,1198.747 799.649,1198.684 794.465,1198.809C763.94,1199.534 740.461,1222.547 740.074,1252.059C739.682,1281.814 762.124,1305.48 792.57,1307.301C797.736,1307.609 802.936,1307.489 808.12,1307.489C915.899,1307.501 878.478,1307.78 986.254,1307.859C992.886,1307.863 999.707,1307.855 1006.12,1309.28C1032.057,1315.043 1049.811,1339.48 1047.882,1365.955C1045.924,1392.868 1024.845,1413.943 997.299,1416.297C991.779,1416.767 986.195,1416.576 980.641,1416.576C837.682,1416.588 240.084,1415.065 97.122,1415.07C91.939,1415.07 86.739,1414.957 81.572,1415.236C54.468,1416.707 32.538,1438.374 30.93,1465.149C29.238,1493.269 47.53,1517.528 74.63,1522.274C82.222,1523.604 90.114,1523.544 97.868,1523.544C386.385,1523.607 529.53,1524.333 818.042,1524.346C824.709,1524.346 831.396,1524.184 838.034,1524.68C865.567,1526.742 886.984,1549.117 887.971,1576.584C888.963,1604.167 869.438,1628.038 842.142,1632.159C835.959,1633.092 829.596,1633.1 823.317,1633.105C741.834,1633.163 660.355,1633.138 578.875,1633.159C573.321,1633.163 567.746,1633.067 562.221,1633.509C534.08,1635.771 512.809,1658.613 512.542,1686.663C512.262,1715.355 533.3,1738.738 561.917,1741.193C569.275,1741.821 576.717,1741.663 584.121,1741.663C861.896,1741.683 685.17,1742.76 962.946,1742.776C971.092,1742.776 979.263,1742.568 987.379,1743.106C1016.742,1745.043 1038.321,1768.185 1038.271,1797.343C1038.225,1826.376 1016.325,1849.501 987.038,1851.273C981.129,1851.631 975.188,1851.506 969.263,1851.506C770.008,1851.518 1025.251,1850.426 825.992,1850.471C818.972,1850.471 811.859,1850.401 804.942,1851.413C777.251,1855.467 757.863,1879.772 759.276,1908.105C760.638,1935.33 782.817,1958.013 810.388,1958.642C843.705,1959.401 830.918,1959.565 864.247,1959.74C870.513,1959.773 876.901,1959.981 883.017,1961.194C910.076,1966.552 928.447,1991.314 926.209,2018.852C924.026,2045.748 902.118,2066.961 875.005,2068.34C870.572,2068.565 866.118,2068.494 861.676,2068.494C723.526,2068.498 631.513,2067.759 493.367,2067.755C489.292,2067.755 485.217,2067.813 481.147,2067.663C452.929,2066.601 430.442,2044.959 428.6,2017.147C426.754,1989.267 446.067,1964.813 473.921,1960.026C478.634,1959.217 483.496,1959.03 488.292,1958.988C505.325,1958.855 522.367,1959.142 539.4,1958.838C569.955,1958.292 593.246,1935.342 593.746,1905.642C594.242,1876.084 571.534,1852.309 541.096,1850.626C535.926,1850.342 530.73,1850.442 525.546,1850.442C289.25,1850.463 198.33,1849.762 -37.966,1849.787C-122.032,1849.799 -206.099,1849.787 -290.166,1849.795C-295.72,1849.799 -301.286,1849.725 -306.828,1849.995C-335.383,1851.375 -357.358,1874.349 -357.578,1902.941C-357.803,1931.928 -335.62,1955.933 -306.991,1957.571C-302.191,1957.841 -297.366,1957.721 -292.553,1957.721C-208.849,1957.728 -125.145,1957.666 -41.445,1957.741C58.922,1957.833 159.289,1958.011 259.655,1958.266C266.285,1958.283 273.06,1958.546 279.51,1959.92C305.947,1965.553 324.268,1990.708 321.772,2017.266C319.205,2044.608 297.752,2065.458 270.63,2066.853C265.826,2067.099 261.005,2067.012 256.189,2067.012C189.522,2067.024 122.855,2066.97 56.193,2067.103C49.201,2067.116 42.034,2067.441 35.251,2068.97C9.431,2074.795 -8.329,2099.645 -6.049,2125.95C-3.749,2152.52 17.588,2173.716 44.031,2175.466C50.305,2175.883 56.618,2175.724 62.914,2175.724C320.689,2175.737 687.343,2173.085 945.118,2173.093C950.672,2173.093 956.248,2172.923 961.781,2173.276C991.31,2175.168 1013.685,2199.201 1013.256,2228.401C1012.831,2257.564 989.702,2280.818 960.085,2281.793C954.535,2281.973 948.972,2281.893 943.418,2281.893C734.53,2281.897 -125.409,2293.081 -334.293,2293.089C-339.847,2293.089 -345.422,2292.91 -350.955,2293.289C-380.439,2295.319 -402.522,2319.444 -401.926,2348.806C-401.346,2377.423 -378.464,2400.473 -349.351,2401.644C-343.805,2401.869 -338.243,2401.752 -332.689,2401.752C-68.984,2401.756 416.278,2393.809 679.978,2393.818C685.903,2393.818 691.845,2393.634 697.753,2393.993C726.183,2395.718 748.283,2418.93 748.645,2447.276C749.02,2476.306 727.375,2500.226 698.537,2502.414C692.641,2502.864 686.695,2502.655 680.77,2502.655C389.29,2502.664 583.632,2504.361 292.153,2504.365C286.599,2504.365 281.04,2504.285 275.486,2504.435C245.156,2505.256 221.703,2528.535 221.369,2558.085C221.04,2587.523 244.061,2611.411 274.382,2612.927C280.665,2613.24 286.974,2613.09 293.269,2613.09C718.819,2613.098 409.514,2613.975 835.069,2613.979C840.994,2613.979 846.923,2613.899 852.844,2614.046C882.856,2614.783 905.848,2637.421 906.431,2666.75C907.023,2696.387 885.498,2720.163 855.801,2722.508C851.011,2722.883 846.177,2722.758 841.364,2722.763C798.773,2722.796 1046.949,2721.424 768.803,2721.44C643.619,2721.449 -181.603,2722.113 -306.786,2722.234C-313.42,2722.238 -320.258,2722.159 -326.649,2723.629C-352.362,2729.542 -369.391,2754 -367.253,2781.05C-365.22,2806.83 -343.816,2827.942 -317.758,2829.721C-312.591,2830.071 -307.391,2829.975 -302.208,2829.979C-218.137,2829.992 350.43,2830.633 532.276,2830.858C535.609,2830.862 538.946,2830.828 542.276,2830.949C571.572,2832.016 594.301,2854.341 595.48,2883.174C596.63,2911.295 575.98,2935.362 547.276,2939.008C541.43,2939.749 535.456,2939.662 529.539,2939.662C431.022,2939.699 437.468,2941.569 338.951,2941.581C333.397,2941.581 327.826,2941.456 322.293,2941.823C294.88,2943.643 273.097,2966.173 272.163,2993.49C271.213,3021.26 290.634,3045.186 317.859,3049.081C325.876,3050.231 334.105,3050.161 342.239,3050.165C504.459,3050.223 527.801,3051.797 690.022,3051.806C695.576,3051.806 701.147,3051.676 706.684,3052.035C734.576,3053.847 756.334,3076.577 757.159,3104.597C757.976,3132.389 737.242,3156.668 709.522,3159.735C700.726,3160.71 710.198,3164.557 494.644,3164.569C488.718,3164.569 482.777,3164.419 476.873,3164.807C447.868,3166.715 425.748,3190.49 426.052,3219.24C426.356,3248.115 448.827,3271.377 477.848,3272.72C483.764,3272.994 489.699,3273.003 495.623,3272.865C523.617,3272.755 489.919,3272.528 512.04,3272.629C519.572,3274.434 527.69,3272.696 535.248,3274.142C562.39,3279.329 580.315,3303.672 578.335,3331.762C576.448,3358.55 554.519,3379.842 527.244,3381.234C521.702,3381.517 516.139,3381.396 510.581,3381.396C345.769,3381.4 180.956,3381.384 16.143,3381.459C8.764,3381.463 1.252,3381.555 -5.965,3382.879C-32.695,3387.779 -51.453,3412.129 -49.74,3438.971C-47.978,3466.659 -26.307,3488.371 1.23,3489.888C6.768,3490.192 12.335,3490.092 17.89,3490.092C142.706,3490.1 16.577,3490.169 141.39,3490.26C149.886,3490.264 158.448,3490.627 166.865,3491.718C191.34,3494.885 210.269,3514.231 213.369,3538.643C216.394,3562.46 203.219,3586.093 180.769,3595.023C173.782,3597.806 165.673,3598.843 158.073,3598.864C70.298,3599.123 -242.456,3602.533 -330.231,3602.541C-335.043,3602.545 -339.881,3602.387 -344.668,3602.754C-370.723,3604.762 -989.825,3711.254 -989.825,3711.254L-2865.915,1268.591L-1214.214,0L1143.729,3.072Z" style="fill:rgb(107,226,228);fill-rule:nonzero;"/>
        <path d="M1682.213,-1628.425C1662.238,-1628.425 1642.222,-1627.621 1622.297,-1628.605C1587.167,-1630.333 1563.417,-1664.425 1573.643,-1697.983C1580.009,-1718.867 1594.443,-1731.633 1615.947,-1735.871C1620.984,-1736.862 1626.243,-1736.996 1631.401,-1737.012C1665.805,-1737.104 1700.213,-1737.167 1734.618,-1736.971C1741.222,-1736.933 1748.026,-1736.496 1754.393,-1734.883C1780.089,-1728.392 1796.559,-1703.963 1794.055,-1676.904C1791.693,-1651.317 1771.218,-1630.958 1745.463,-1628.592C1743.988,-1628.454 1742.509,-1628.325 1741.034,-1628.325C1721.426,-1628.308 1701.822,-1628.312 1682.214,-1628.312L1682.214,-1628.425L1682.213,-1628.425ZM779.365,2935.882C759.39,2935.882 739.378,2936.632 719.449,2935.715C684.265,2934.049 660.424,2900.132 670.511,2866.507C676.791,2845.611 691.178,2832.832 712.649,2828.436C716.961,2827.556 721.465,2827.306 725.886,2827.298C761.77,2827.207 797.653,2827.115 833.536,2827.361C840.12,2827.407 846.932,2828.144 853.22,2829.994C878.357,2837.394 893.753,2861.59 890.89,2888.257C888.153,2913.757 867.432,2933.715 841.507,2935.757C840.405,2935.889 839.296,2935.958 838.187,2935.965L779.365,2935.965L779.365,2935.882Z" style="fill:rgb(107,226,228);fill-rule:nonzero;"/>
    </g>
    <g transform="matrix(0.171304,0.13157,-0.13157,0.171304,1142.242478,-737.602791)">
        <path d="M71.197,2393.732C94.885,2393.732 118.594,2394.287 142.26,2393.57C164.131,2392.912 180.381,2381.97 189.61,2362.182C198.66,2342.774 196.365,2323.77 183.519,2306.653C172.31,2291.716 156.71,2285.107 138.139,2285.124C94.089,2285.166 50.039,2285.132 5.994,2285.144C3.773,2285.144 1.544,2285.157 -0.665,2285.344C-33.94,2288.149 -56.761,2319.007 -49.585,2351.466C-44.244,2375.645 -23.144,2393.149 2.352,2393.653C25.289,2394.107 48.248,2393.749 71.198,2393.733L71.197,2393.732ZM71.727,4349.792C71.727,4349.792 71.727,4349.834 71.727,4349.834L116.11,4349.834C130.902,4349.792 145.71,4350.167 160.49,4349.626C186.894,4348.667 208.248,4329.042 211.969,4303.001C215.635,4277.334 199.998,4252.084 174.944,4244.292C168.356,4242.251 161.139,4241.459 154.202,4241.417C99.472,4241.209 44.739,4241.292 -9.994,4241.334C-14.419,4241.334 -18.914,4241.501 -23.244,4242.292C-44.336,4246.167 -58.974,4258.292 -65.624,4278.584C-72.402,4299.292 -67.961,4318.126 -52.657,4333.876C-42.086,4344.751 -28.894,4349.834 -13.707,4349.792C14.773,4349.751 43.248,4349.792 71.727,4349.792ZM72.357,654.202L72.357,654.277C87.147,654.277 101.944,654.297 116.735,654.273C131.531,654.243 146.344,654.635 161.115,654.023C187.373,652.931 208.71,632.848 212.052,606.839C215.36,581.052 199.472,555.964 174.352,548.535C167.389,546.477 159.782,545.877 152.469,545.848C98.844,545.631 45.219,545.693 -8.402,545.781C-13.927,545.789 -19.54,546.051 -24.957,547.039C-46.952,551.069 -64.286,569.11 -67.757,591.127C-72.982,624.289 -49.107,653.406 -15.298,654.081C13.91,654.664 43.135,654.201 72.356,654.201L72.357,654.202ZM520.644,1741.165L520.644,1741.199C555.09,1741.199 589.536,1741.444 623.974,1741.015C631.961,1740.915 640.424,1739.824 647.798,1736.953C671.486,1727.732 684.994,1702.14 680.24,1677.557C675.202,1651.494 654.294,1633.727 627.836,1633.573C592.281,1633.369 556.723,1633.498 521.169,1633.507C484.873,1633.511 448.573,1633.165 412.286,1633.669C380.406,1634.115 356.427,1662.757 360.606,1694.349C364.156,1721.165 385.656,1740.794 412.873,1741.078C448.793,1741.444 484.723,1741.165 520.643,1741.165L520.644,1741.165ZM502.897,3915.2C568.777,3915.2 634.66,3915.225 700.539,3915.159C706.819,3915.154 713.201,3915.217 719.351,3914.159C740.489,3910.525 755.097,3898.396 762.026,3878.146C769.135,3857.366 764.406,3838.638 749.326,3822.809C738.231,3811.167 724.268,3806.721 708.222,3806.754C610.881,3806.942 513.539,3806.838 416.197,3806.842C375.484,3806.842 334.767,3806.612 294.059,3806.971C265.897,3807.217 242.943,3829.417 241.38,3856.967C239.747,3885.787 259.326,3910.259 287.539,3914.287C293.368,3915.121 299.343,3915.159 305.251,3915.163C371.131,3915.221 437.014,3915.2 502.897,3915.2ZM503.255,111.122C437.372,111.122 371.489,111.118 305.605,111.126C301.164,111.126 296.714,111.035 292.285,111.268C265.259,112.685 243.13,134.338 241.401,160.956C239.564,189.272 258.534,213.906 285.993,218.497C291.434,219.406 297.043,219.589 302.576,219.589C436.193,219.647 569.81,219.647 703.426,219.602C708.593,219.597 713.843,219.56 718.914,218.702C740.531,215.031 755.384,202.718 762.234,181.96C769.11,161.11 764.11,142.439 748.86,126.776C737.622,115.243 723.526,111.01 707.564,111.051C639.464,111.239 571.36,111.131 503.255,111.122ZM72.464,3589.588C142.794,3589.588 213.119,3589.592 283.448,3589.583C288.26,3589.579 293.081,3589.667 297.881,3589.425C325.39,3588.058 347.319,3566.5 349.323,3538.955C351.269,3512.233 332.653,3487.587 306.09,3482.433C299.26,3481.108 292.115,3481.021 285.11,3481.017C142.977,3480.942 0.84,3480.958 -141.294,3480.967C-145.364,3480.967 -149.448,3480.862 -153.507,3481.108C-183.798,3482.946 -205.957,3506.725 -205.427,3536.729C-204.911,3565.809 -181.773,3588.621 -151.844,3589.5C-147.036,3589.642 -142.219,3589.583 -137.411,3589.583C-67.452,3589.588 2.506,3589.588 72.464,3589.588ZM1145.794,0.497C1149.407,2.309 1152.928,4.334 1156.64,5.897C1181.17,16.237 1194.365,39.775 1190.199,65.942C1186.357,90.059 1165.953,108.534 1140.407,110.8C1135.257,111.255 1130.044,111.109 1124.861,111.109C1053.381,111.125 981.903,111.092 910.419,111.175C904.149,111.18 897.728,111.159 891.632,112.409C866.478,117.571 848.557,140.592 849.132,166.329C849.707,192.238 868.373,214.305 893.778,218.455C900.665,219.58 907.79,219.592 914.811,219.592C1044.436,219.655 1174.065,219.638 1303.695,219.655C1309.62,219.655 1315.565,219.525 1321.461,219.975C1349.07,222.092 1370.211,244.401 1371.045,272.075C1371.903,300.417 1351.99,324.184 1324.074,327.617C1316.757,328.521 1309.286,328.388 1301.886,328.392C1015.598,328.426 729.306,328.417 443.011,328.43C436.719,328.43 430.406,328.305 424.127,328.667C394.16,330.384 372.144,353.642 372.348,383.192C372.544,412.051 394.71,435.005 424.081,436.651C429.252,436.942 434.448,436.855 439.636,436.863C465.931,436.901 492.236,436.459 518.519,437.055C552.752,437.83 576.331,464.525 572.911,497.685C570.369,522.342 550.54,542.455 525.84,545.142C520.336,545.742 514.748,545.692 509.198,545.701C458.086,545.738 406.978,545.709 355.865,545.751C350.685,545.755 345.465,545.717 340.34,546.338C311.823,549.805 291.51,573.688 292.49,602.355C293.452,630.48 316.169,652.993 344.86,654.147C350.406,654.372 355.969,654.267 361.523,654.267C613.003,654.272 864.482,654.259 1115.961,654.326C1123.336,654.33 1130.869,654.346 1138.061,655.738C1165.757,661.101 1183.811,685.851 1181.353,714.284C1179.057,740.884 1156.699,762.438 1129.423,762.83C1089.803,763.405 1050.165,762.95 1010.536,763.143C1003.916,763.172 997.128,763.505 990.716,764.984C964.236,771.093 947.236,795.488 949.698,823.084C952.04,849.351 973.861,870.214 1000.598,871.589C1006.511,871.889 1012.448,871.759 1018.373,871.759C1229.111,871.768 1439.853,871.755 1650.591,871.826C1657.961,871.826 1665.507,871.822 1672.674,873.284C1699.97,878.851 1717.787,903.372 1715.378,931.164C1713.032,958.214 1691.312,979.114 1664.028,980.455C1658.853,980.709 1653.658,980.605 1648.474,980.605C1322.182,980.614 995.886,980.614 669.594,980.609C664.782,980.609 659.961,980.689 655.152,980.484C625.969,979.239 603.519,956.309 603.044,927.351C602.561,897.759 624.436,873.709 654.024,872.031C667.319,871.276 680.698,872.097 694.011,871.547C717.836,870.555 737.927,853.859 743.744,830.834C752.094,797.793 728.902,766.047 694.311,763.288C689.89,762.938 685.427,763.063 680.981,763.068C406.169,763.118 131.361,763.168 -143.452,763.276C-149.727,763.28 -156.111,763.296 -162.261,764.356C-189.257,768.996 -208.465,793.926 -206.457,821.193C-204.423,848.813 -182.348,870.355 -154.873,871.443C-149.698,871.647 -144.507,871.547 -139.319,871.551C36.973,871.626 213.269,871.681 389.561,871.818C396.569,871.826 403.727,871.801 410.556,873.13C437.756,878.434 456.531,903.451 454.165,930.493C451.748,958.093 429.761,979.251 402.119,980.476C396.944,980.706 391.752,980.606 386.565,980.609C356.194,980.63 325.823,980.322 295.456,980.747C264.36,981.177 240.998,1004.851 241.069,1035.043C241.135,1065.26 264.469,1088.443 295.656,1089.226C300.84,1089.356 306.027,1089.285 311.21,1089.285C578.615,1089.285 846.02,1089.285 1113.428,1089.289C1118.982,1089.289 1124.544,1089.18 1130.09,1089.409C1159.136,1090.601 1181.774,1113.626 1182.386,1142.493C1183.007,1171.76 1160.782,1195.943 1131.29,1197.91C1125.757,1198.28 1120.186,1198.105 1114.632,1198.105C863.89,1198.114 613.152,1198.114 362.415,1198.114C357.231,1198.114 352.044,1198.051 346.86,1198.176C316.335,1198.901 292.856,1221.914 292.469,1251.426C292.077,1281.181 314.519,1304.847 344.965,1306.668C350.131,1306.976 355.331,1306.856 360.515,1306.856C468.294,1306.868 576.069,1306.843 683.845,1306.922C690.477,1306.926 697.298,1306.918 703.711,1308.343C729.648,1314.106 747.402,1338.543 745.473,1365.018C743.515,1391.931 722.436,1413.006 694.89,1415.36C689.37,1415.83 683.786,1415.639 678.232,1415.639C535.273,1415.651 392.31,1415.651 249.348,1415.656C244.165,1415.656 238.965,1415.543 233.798,1415.822C206.694,1417.293 184.764,1438.96 183.156,1465.735C181.464,1493.855 199.756,1518.114 226.856,1522.86C234.448,1524.19 242.34,1524.13 250.094,1524.13C538.611,1524.193 827.128,1524.18 1115.64,1524.193C1122.307,1524.193 1128.994,1524.031 1135.632,1524.527C1163.165,1526.589 1184.582,1548.964 1185.569,1576.431C1186.561,1604.014 1167.036,1627.885 1139.74,1632.006C1133.557,1632.939 1127.194,1632.947 1120.915,1632.952C1039.432,1633.01 957.953,1632.985 876.473,1633.006C870.919,1633.01 865.344,1632.914 859.819,1633.356C831.678,1635.618 810.407,1658.46 810.14,1686.51C809.86,1715.202 830.898,1738.585 859.515,1741.04C866.873,1741.668 874.315,1741.51 881.719,1741.51C1159.494,1741.53 1437.269,1741.527 1715.045,1741.543C1723.191,1741.543 1731.362,1741.335 1739.478,1741.873C1768.841,1743.81 1790.42,1766.952 1790.37,1796.11C1790.324,1825.143 1768.424,1848.268 1739.137,1850.04C1733.228,1850.398 1727.287,1850.273 1721.362,1850.273C1522.107,1850.285 1322.849,1850.273 1123.59,1850.318C1116.57,1850.318 1109.457,1850.248 1102.54,1851.26C1074.849,1855.314 1055.461,1879.619 1056.874,1907.952C1058.236,1935.177 1080.415,1957.86 1107.986,1958.489C1141.303,1959.248 1174.649,1958.673 1207.978,1958.848C1214.244,1958.881 1220.632,1959.089 1226.748,1960.302C1253.807,1965.66 1272.178,1990.422 1269.94,2017.96C1267.757,2044.856 1245.849,2066.069 1218.736,2067.448C1214.303,2067.673 1209.849,2067.602 1205.407,2067.602C1067.257,2067.606 929.111,2067.606 790.965,2067.602C786.89,2067.602 782.815,2067.66 778.745,2067.51C750.527,2066.448 728.04,2044.806 726.198,2016.994C724.352,1989.114 743.665,1964.66 771.519,1959.873C776.232,1959.064 781.094,1958.877 785.89,1958.835C802.923,1958.702 819.965,1958.989 836.998,1958.685C867.553,1958.139 890.844,1935.189 891.344,1905.489C891.84,1875.931 869.132,1852.156 838.694,1850.473C833.524,1850.189 828.328,1850.289 823.144,1850.289C586.848,1850.31 350.556,1850.348 114.26,1850.373C30.194,1850.385 -53.873,1850.373 -137.94,1850.381C-143.494,1850.385 -149.06,1850.311 -154.602,1850.581C-183.157,1851.961 -205.132,1874.935 -205.352,1903.527C-205.577,1932.514 -183.394,1956.519 -154.765,1958.157C-149.965,1958.427 -145.14,1958.307 -140.327,1958.307C-56.623,1958.314 27.081,1958.252 110.781,1958.327C211.148,1958.419 311.515,1958.597 411.881,1958.852C418.511,1958.869 425.286,1959.132 431.736,1960.506C458.173,1966.139 476.494,1991.294 473.998,2017.852C471.431,2045.194 449.978,2066.044 422.856,2067.439C418.052,2067.685 413.231,2067.598 408.415,2067.598C341.748,2067.61 275.081,2067.556 208.419,2067.689C201.427,2067.702 194.26,2068.027 187.477,2069.556C161.657,2075.381 143.897,2100.231 146.177,2126.536C148.477,2153.106 169.814,2174.302 196.257,2176.052C202.531,2176.469 208.844,2176.31 215.14,2176.31C472.915,2176.323 730.69,2176.319 988.465,2176.327C994.019,2176.327 999.595,2176.157 1005.128,2176.51C1034.657,2178.402 1057.032,2202.435 1056.603,2231.635C1056.178,2260.798 1033.049,2284.052 1003.432,2285.027C997.882,2285.207 992.319,2285.127 986.765,2285.127C777.877,2285.131 568.99,2285.127 360.106,2285.135C354.552,2285.135 348.977,2284.956 343.444,2285.335C313.96,2287.365 291.877,2311.49 292.473,2340.852C293.053,2369.469 315.935,2392.519 345.048,2393.69C350.594,2393.915 356.156,2393.798 361.71,2393.798C625.415,2393.802 889.115,2393.802 1152.815,2393.811C1158.74,2393.811 1164.682,2393.627 1170.59,2393.986C1199.02,2395.711 1221.12,2418.923 1221.482,2447.269C1221.857,2476.299 1200.212,2500.219 1171.374,2502.407C1165.478,2502.857 1159.532,2502.648 1153.607,2502.648C862.127,2502.657 570.648,2502.657 279.169,2502.661C273.615,2502.661 268.056,2502.581 262.502,2502.731C232.172,2503.552 208.719,2526.831 208.385,2556.381C208.056,2585.819 231.077,2609.707 261.398,2611.223C267.681,2611.536 273.99,2611.386 280.285,2611.386C705.835,2611.394 1131.386,2611.39 1556.941,2611.394C1562.866,2611.394 1568.795,2611.314 1574.716,2611.461C1604.728,2612.198 1627.72,2634.836 1628.303,2664.165C1628.895,2693.802 1607.37,2717.578 1577.673,2719.923C1572.883,2720.298 1568.049,2720.173 1563.236,2720.178C1520.645,2720.211 1478.049,2720.015 1435.461,2720.307C1410.261,2720.482 1390.199,2735.857 1383.315,2759.307C1374.499,2789.327 1393.249,2820.99 1423.945,2827.173C1431.128,2828.623 1438.665,2828.732 1446.036,2828.736C1607.145,2828.816 1476.393,2828.812 1637.502,2828.824C1643.427,2828.824 1649.369,2828.687 1655.272,2829.074C1681.452,2830.8 1703.048,2851.829 1705.119,2877.412C1707.414,2905.75 1690.031,2930.296 1663.189,2935.942C1656.735,2937.3 1649.956,2937.583 1643.327,2937.583C1325.181,2937.658 1298.903,2937.632 980.757,2937.624C977.053,2937.624 973.34,2937.674 969.653,2937.407C957.09,2936.494 945.828,2932.265 936.323,2923.824C919.711,2909.069 913.703,2885.874 921.057,2865.028C928.486,2843.973 947.261,2829.457 969.777,2829.057C1002.732,2828.469 1035.699,2828.886 1068.661,2828.748C1074.569,2828.723 1080.561,2828.632 1086.361,2827.665C1113.681,2823.111 1133.211,2798.657 1131.536,2771.535C1129.79,2743.353 1107.732,2721.528 1079.669,2720.307C1074.861,2720.098 1070.04,2720.194 1065.228,2720.194C787.082,2720.19 508.936,2720.178 230.79,2720.194C105.606,2720.203 -19.577,2720.257 -144.76,2720.378C-151.394,2720.382 -158.232,2720.303 -164.623,2721.773C-190.336,2727.686 -207.365,2752.144 -205.227,2779.194C-203.194,2804.974 -181.79,2826.086 -155.732,2827.865C-150.565,2828.215 -145.365,2828.119 -140.182,2828.123C-56.111,2828.136 27.964,2828.065 112.035,2828.144C293.881,2828.324 475.723,2828.578 657.569,2828.803C660.902,2828.807 664.239,2828.773 667.569,2828.894C696.865,2829.961 719.594,2852.286 720.773,2881.119C721.923,2909.24 701.273,2933.307 672.569,2936.953C666.723,2937.694 660.749,2937.607 654.832,2937.607C556.315,2937.644 457.794,2937.632 359.277,2937.644C353.723,2937.644 348.152,2937.519 342.619,2937.886C315.206,2939.706 293.423,2962.236 292.489,2989.553C291.539,3017.323 310.96,3041.249 338.185,3045.144C346.202,3046.294 354.431,3046.224 362.565,3046.228C524.785,3046.286 687.007,3046.269 849.228,3046.278C854.782,3046.278 860.353,3046.148 865.89,3046.507C893.782,3048.319 915.54,3071.049 916.365,3099.069C917.182,3126.861 896.448,3151.14 868.728,3154.207C859.932,3155.182 850.982,3154.99 842.098,3154.99C626.544,3155.032 410.994,3155.02 195.44,3155.032C189.514,3155.032 183.573,3154.882 177.669,3155.27C148.664,3157.178 126.544,3180.953 126.848,3209.703C127.152,3238.578 149.623,3261.84 178.644,3263.183C184.56,3263.457 190.494,3263.328 196.419,3263.328C462.711,3263.332 729.007,3263.32 995.299,3263.39C1003.044,3263.395 1010.949,3263.457 1018.507,3264.903C1045.649,3270.09 1063.574,3294.433 1061.594,3322.523C1059.707,3349.311 1037.778,3370.603 1010.503,3371.995C1004.961,3372.278 999.398,3372.157 993.84,3372.157C829.028,3372.161 664.215,3372.145 499.402,3372.22C492.023,3372.224 484.511,3372.316 477.294,3373.64C450.564,3378.54 431.806,3402.89 433.519,3429.732C435.281,3457.42 456.952,3479.132 484.489,3480.649C490.027,3480.953 495.594,3480.853 501.149,3480.853C625.965,3480.861 750.777,3480.833 875.59,3480.924C884.086,3480.928 892.648,3481.291 901.065,3482.382C925.54,3485.549 944.469,3504.895 947.569,3529.307C950.594,3553.124 937.419,3576.757 914.969,3585.687C907.982,3588.47 899.873,3589.507 892.273,3589.528C804.498,3589.787 716.719,3589.695 628.944,3589.703C624.132,3589.707 619.294,3589.549 614.507,3589.916C588.452,3591.924 567.919,3611.216 564.269,3636.932C560.819,3661.278 575.052,3685.949 598.531,3694.337C605.986,3696.999 614.457,3697.778 622.465,3697.791C750.611,3697.999 878.757,3697.891 1006.903,3697.953C1095.049,3697.999 1345.775,3697.031 1433.921,3697.239C1439.813,3697.252 1445.842,3697.422 1451.571,3698.627C1478.721,3704.352 1497.096,3729.347 1494.526,3756.502C1491.876,3784.522 1469.226,3805.535 1440.813,3805.572C1320.813,3805.722 1038.232,3806.812 918.236,3806.841C912.678,3806.845 907.119,3806.766 901.569,3806.916C874.203,3807.653 852.394,3827.903 849.465,3855.212C846.582,3882.082 864.165,3907.437 890.498,3913.324C897.986,3914.999 905.936,3915.116 913.673,3915.124C1043.303,3915.224 1047.208,3915.714 1176.837,3915.727C1182.762,3915.727 1188.704,3915.593 1194.607,3915.964C1222.883,3917.739 1244.467,3940.01 1245.325,3968.127C1246.208,3996.893 1225.82,4020.731 1197.279,4023.839C1189.945,4024.639 1182.487,4024.473 1175.087,4024.473C889.533,4024.502 729.702,4023.979 444.148,4023.983C438.223,4023.983 432.29,4023.891 426.373,4024.112C394.956,4025.287 372.148,4048.387 372.348,4078.724C372.54,4108.399 395.435,4131.566 426.278,4132.212C454.415,4132.799 1027.528,4133.802 1055.673,4133.918C1061.216,4133.943 1066.82,4134.022 1072.283,4134.831C1097.674,4138.585 1116.586,4159.314 1118.086,4184.698C1119.641,4210.989 1103.57,4234.114 1078.407,4240.573C1071.353,4242.406 1063.753,4242.614 1056.399,4242.656C1004.178,4242.823 407.002,4241.25 354.777,4241.333C349.24,4241.333 343.627,4241.416 338.173,4242.25C310.469,4246.458 291.027,4270.791 292.519,4299C293.952,4326.166 316.177,4348.208 343.723,4349.666C349.635,4349.958 355.573,4349.833 361.498,4349.833L866.281,4349.792C871.835,4349.792 877.402,4349.667 882.948,4349.917C913.935,4351.209 936.728,4374.959 936.306,4405.334C935.894,4435.042 912.636,4458.167 882.019,4458.459C843.131,4458.792 524.424,4458.999 485.532,4459.166C478.912,4459.208 472.124,4459.499 465.712,4460.999C439.224,4467.083 422.215,4491.458 424.665,4519.083C426.999,4545.333 448.807,4566.208 475.545,4567.583C481.457,4567.916 487.395,4567.791 493.319,4567.791C704.428,4567.791 593.853,4566.945 804.961,4567.029C812.328,4567.07 819.881,4567.154 827.019,4568.737C853.69,4574.612 871.028,4598.987 868.665,4626.362C866.332,4653.404 844.619,4674.321 817.34,4675.654C812.165,4675.904 806.974,4675.821 801.786,4675.821L296.453,4676.738C291.641,4676.738 286.82,4676.821 282.011,4676.613C252.824,4675.363 230.365,4652.446 229.878,4623.488C229.382,4593.904 251.253,4569.862 280.832,4568.154C294.128,4567.404 307.507,4568.237 320.82,4567.696C344.649,4566.696 364.745,4550.029 370.574,4526.987C378.936,4493.946 355.761,4462.196 321.17,4459.446C316.378,4459.029 311.545,4459.196 306.732,4459.196C32.662,4459.237 131.756,4458.75 -142.315,4458.791C-146.757,4458.791 -151.223,4458.708 -155.64,4459.083C-185.057,4461.583 -206.398,4485.916 -205.323,4515.625C-204.311,4543.708 -181.34,4566.75 -152.677,4566.916C-86.386,4567.333 -93.626,4567.779 23.036,4567.946C51.707,4567.987 73.011,4583.737 79.349,4608.988C87.782,4642.613 63.657,4675.029 28.978,4676.613C23.803,4676.821 18.607,4676.738 13.424,4676.738C-16.947,4676.779 -29.015,4677.412 -59.382,4677.829C-90.478,4678.287 -113.852,4701.954 -113.798,4732.12C-113.74,4762.329 -90.415,4785.537 -59.232,4786.329C-53.678,4786.454 -48.119,4786.37 -42.565,4786.37L557.564,4783.115C563.118,4783.115 568.68,4783.032 574.226,4783.24C603.28,4784.449 625.922,4807.449 626.547,4836.324C627.172,4865.115 605.535,4889.199 576.585,4891.657C571.064,4892.157 565.48,4891.949 559.926,4891.949L378.523,4894.633C372.964,4894.633 367.398,4894.508 361.86,4894.799C336.494,4896.216 315.627,4915.049 311.369,4940.174C307.164,4965.008 321.177,4989.549 344.935,4999.049C346.889,4999.841 348.823,5000.674 350.765,5001.466L-1151.957,4997.455L0,0L1145.794,0.497Z" style="fill:rgb(107,226,228);fill-rule:nonzero;"/>
        <path d="M1063.744,3587.507C977.474,3587.507 891.206,3587.511 804.94,3587.503C799.756,3587.503 794.565,3587.578 789.39,3587.386C759.486,3586.282 736.756,3563.286 736.49,3533.953C736.219,3504.361 758.073,3480.84 787.81,3478.836C792.236,3478.54 796.69,3478.674 801.136,3478.669C886.661,3478.661 972.19,3478.665 1057.715,3478.657C1062.898,3478.657 1068.095,3478.744 1073.265,3478.477C1100.877,3477.049 1122.523,3455.632 1124.532,3427.877C1126.498,3400.715 1107.286,3376.09 1080.052,3371.253C1074.623,3370.286 1069.011,3370.078 1063.482,3370.032C1042.007,3369.857 1020.511,3370.519 999.065,3369.702C962.594,3368.311 938.235,3331.794 950.711,3297.586C957.873,3277.936 972.152,3266.032 992.827,3262.273C997.527,3261.419 1002.398,3261.194 1007.194,3261.194C1124.561,3261.136 1241.932,3261.128 1359.303,3261.203C1364.823,3261.207 1370.449,3261.561 1375.849,3262.632C1402.961,3267.994 1420.819,3292.036 1418.978,3320.257C1417.236,3346.869 1395.174,3368.961 1367.974,3369.669C1338.007,3370.453 1307.998,3369.869 1278.011,3370.032C1272.111,3370.061 1266.119,3370.252 1260.331,3371.286C1232.598,3376.228 1214.236,3400.503 1216.236,3429.132C1218.098,3455.807 1240.144,3477.502 1267.419,3478.39C1288.873,3479.09 1310.369,3478.378 1331.836,3478.811C1339.148,3478.957 1346.756,3479.665 1353.666,3481.882C1378.682,3489.902 1393.474,3514.586 1389.966,3541.119C1386.636,3566.299 1365.111,3585.945 1339.206,3587.315C1334.036,3587.586 1328.84,3587.503 1323.656,3587.503C1237.019,3587.511 1150.382,3587.507 1063.744,3587.507ZM2038.302,1570.563C2097.519,1570.563 2156.739,1570.483 2215.956,1570.667C2223.286,1570.687 2230.915,1571.046 2237.89,1573.046C2263.16,1580.288 2278.631,1604.442 2275.919,1631.121C2273.389,1655.984 2253.085,1676.129 2227.689,1678.667C2221.448,1679.292 2215.123,1679.275 2208.839,1679.279C2094.469,1679.313 1980.11,1679.313 1865.748,1679.275C1859.46,1679.275 1853.135,1679.284 1846.898,1678.617C1819.135,1675.646 1798.268,1651.875 1798.685,1624.008C1799.054,1595.824 1821.414,1572.42 1849.552,1570.767C1854.348,1570.475 1859.172,1570.567 1863.981,1570.567C1922.089,1570.554 1980.198,1570.558 2038.301,1570.563L2038.302,1570.563ZM1935.477,1306.397C1979.497,1306.397 2023.514,1306.222 2067.535,1306.464C2092.685,1306.605 2113.005,1322.014 2119.785,1345.218C2129.585,1378.764 2106.331,1412.03 2070.989,1414.914C2066.939,1415.247 2062.856,1415.147 2058.789,1415.147C1975.931,1415.16 1893.072,1415.185 1810.214,1415.101C1803.956,1415.097 1797.572,1414.951 1791.456,1413.789C1764.226,1408.601 1745.372,1383.905 1747.518,1356.78C1749.748,1328.572 1771.851,1306.847 1800.098,1306.555C1845.218,1306.085 1890.352,1306.43 1935.477,1306.43L1935.477,1306.397ZM1588.58,545.013C1568.605,545.013 1548.589,545.817 1528.664,544.833C1493.534,543.105 1469.784,509.013 1480.01,475.455C1486.376,454.571 1500.81,441.805 1522.314,437.567C1527.351,436.576 1532.61,436.442 1537.768,436.426C1572.172,436.334 1606.58,436.271 1640.985,436.467C1647.589,436.505 1654.393,436.942 1660.76,438.555C1686.456,445.046 1702.926,469.475 1700.422,496.534C1698.06,522.121 1677.585,542.48 1651.83,544.846C1650.355,544.984 1648.876,545.113 1647.401,545.113C1627.793,545.13 1608.189,545.126 1588.581,545.126L1588.581,545.013L1588.58,545.013ZM1151.532,6847.511C1131.557,6847.511 1111.545,6848.261 1091.616,6847.344C1056.432,6845.678 1032.591,6811.761 1042.678,6778.136C1048.958,6757.24 1063.345,6744.461 1084.816,6740.065C1089.128,6739.185 1093.632,6738.935 1098.053,6738.927C1133.937,6738.836 1169.82,6738.744 1205.703,6738.99C1212.287,6739.036 1219.099,6739.773 1225.387,6741.623C1250.524,6749.023 1265.92,6773.219 1263.057,6799.886C1260.32,6825.386 1239.599,6845.344 1213.674,6847.386C1212.572,6847.518 1211.464,6847.587 1210.354,6847.594L1151.532,6847.594L1151.532,6847.511ZM1963.123,1824.581C1982.364,1824.581 2233.928,1815.054 2253.157,1815.525C2284.345,1816.283 2307.215,1840.867 2306.278,1871.963C2305.398,1901.129 2282.37,1923.679 2252.148,1924.109C2222.186,1924.538 1959.897,1933.377 1929.927,1933.385C1921.418,1933.385 1912.902,1933.564 1904.401,1933.281C1874.147,1932.268 1851.168,1908.756 1851.156,1878.989C1851.139,1849.159 1874.076,1825.419 1904.297,1824.672C1923.897,1824.189 1943.514,1824.581 1963.122,1824.581L1963.123,1824.581Z" style="fill:rgb(107,226,228);fill-rule:nonzero;"/>
    </g>
</svg>
