<?xml version="1.0" encoding="UTF-8" standalone="no"?>
<!DOCTYPE svg PUBLIC "-//W3C//DTD SVG 1.1//EN" "http://www.w3.org/Graphics/SVG/1.1/DTD/svg11.dtd">
<svg width="100%" height="100%" viewBox="0 0 1920 1080" version="1.1" xmlns="http://www.w3.org/2000/svg" xmlns:xlink="http://www.w3.org/1999/xlink" xml:space="preserve" xmlns:serif="http://www.serif.com/" style="fill-rule:evenodd;clip-rule:evenodd;stroke-linejoin:round;stroke-miterlimit:2;">
    <g transform="matrix(0.171304,0.13157,-0.13157,0.171304,473.110324,109.632093)">
        <path d="M31.228,2606.03C54.916,2606.03 78.625,2606.585 102.291,2605.868C124.162,2605.21 140.412,2594.268 149.641,2574.48C158.691,2555.072 156.396,2536.068 143.55,2518.951C132.341,2504.014 116.741,2497.405 98.17,2497.422C54.12,2497.464 10.07,2497.43 -33.975,2497.442C-36.196,2497.442 -38.425,2497.455 -40.634,2497.642C-73.909,2500.447 -96.73,2531.305 -89.554,2563.764C-84.213,2587.943 -63.113,2605.447 -37.617,2605.951C-14.68,2606.405 8.279,2606.047 31.229,2606.031L31.228,2606.03ZM924.26,653.705L924.26,653.78C939.05,653.78 953.847,653.8 968.638,653.776C983.434,653.746 998.247,654.138 1013.018,653.526C1039.276,652.434 1060.613,632.351 1063.955,606.342C1067.263,580.555 1051.375,555.467 1026.255,548.038C1019.292,545.98 1011.685,545.38 1004.372,545.351C950.747,545.134 897.122,545.196 843.501,545.284C837.976,545.292 832.363,545.554 826.946,546.542C804.951,550.572 787.617,568.613 784.146,590.63C778.921,623.792 802.796,652.909 836.605,653.584C865.813,654.167 895.038,653.704 924.259,653.704L924.26,653.705ZM513.263,1309.018L513.263,1309.052C547.709,1309.052 582.155,1309.297 616.593,1308.868C624.58,1308.768 633.043,1307.677 640.417,1304.806C664.105,1295.585 677.613,1269.993 672.859,1245.41C667.821,1219.347 646.913,1201.58 620.455,1201.426C584.9,1201.222 549.342,1201.351 513.788,1201.36C477.492,1201.364 441.192,1201.018 404.905,1201.522C373.025,1201.968 349.046,1230.61 353.225,1262.202C356.775,1289.018 378.275,1308.647 405.492,1308.931C441.412,1309.297 477.342,1309.018 513.262,1309.018L513.263,1309.018ZM1355.158,110.625C1289.275,110.625 1223.392,110.621 1157.508,110.629C1153.067,110.629 1148.617,110.538 1144.188,110.771C1117.162,112.188 1095.033,133.841 1093.304,160.459C1091.467,188.775 1110.437,213.409 1137.896,218C1143.337,218.909 1148.946,219.092 1154.479,219.092C1288.096,219.15 1421.713,219.15 1555.329,219.105C1560.496,219.1 1565.746,219.063 1570.817,218.205C1592.434,214.534 1607.287,202.221 1614.137,181.463C1621.013,160.613 1616.013,141.942 1600.763,126.279C1589.525,114.746 1575.429,110.513 1559.467,110.554C1491.367,110.742 1423.263,110.634 1355.158,110.625ZM91.048,3271.762C161.378,3271.762 231.703,3271.766 302.032,3271.757C306.844,3271.753 311.665,3271.841 316.465,3271.599C343.974,3270.232 365.903,3248.674 367.907,3221.129C369.853,3194.407 351.237,3169.761 324.674,3164.607C317.844,3163.282 310.699,3163.195 303.694,3163.191C161.561,3163.116 177.779,3164.096 35.645,3164.105C31.575,3164.105 27.491,3164 23.432,3164.246C-6.859,3166.084 -29.018,3189.863 -28.488,3219.867C-27.972,3248.947 -4.834,3271.759 25.095,3272.638C29.903,3272.78 34.72,3272.721 39.528,3272.721C109.487,3272.726 21.09,3271.762 91.048,3271.762ZM1997.697,0C2001.31,1.812 2004.831,3.837 2008.543,5.4C2033.073,15.74 2046.268,39.278 2042.102,65.445C2038.26,89.562 2017.856,108.037 1992.31,110.303C1987.16,110.758 1981.947,110.612 1976.764,110.612C1905.284,110.628 1833.806,110.595 1762.322,110.678C1756.052,110.683 1749.631,110.662 1743.535,111.912C1718.381,117.074 1700.46,140.095 1701.035,165.832C1701.61,191.741 1720.276,213.808 1745.681,217.958C1752.568,219.083 1759.693,219.095 1766.714,219.095C1896.339,219.158 2025.968,219.141 2155.598,219.158C2161.523,219.158 2167.468,219.028 2173.364,219.478C2200.973,221.595 2222.114,243.904 2222.948,271.578C2223.806,299.92 2203.893,323.687 2175.977,327.12C2168.66,328.024 2161.189,327.891 2153.789,327.895C1867.501,327.929 1581.209,327.92 1294.914,327.933C1288.622,327.933 1282.309,327.808 1276.03,328.17C1246.063,329.887 1224.047,353.145 1224.251,382.695C1224.447,411.554 1246.613,434.508 1275.984,436.154C1281.155,436.445 1286.351,436.358 1291.539,436.366C1317.834,436.404 1344.139,435.962 1370.422,436.558C1404.655,437.333 1428.234,464.028 1424.814,497.188C1422.272,521.845 1402.443,541.958 1377.743,544.645C1372.239,545.245 1366.651,545.195 1361.101,545.204C1309.989,545.241 1258.881,545.212 1207.768,545.254C1202.588,545.258 1197.368,545.22 1192.243,545.841C1163.726,549.308 1143.413,573.191 1144.393,601.858C1145.355,629.983 1168.072,652.496 1196.763,653.65C1202.309,653.875 1207.872,653.825 1213.426,653.77C1283.375,653.816 1290.608,653.647 1306.803,653.515C1314.178,653.519 1321.711,653.535 1328.903,654.927C1356.599,660.29 1374.653,685.04 1372.195,713.473C1369.899,740.073 1347.541,761.627 1320.265,762.019C1280.645,762.594 1241.007,762.139 1201.378,762.332C1194.758,762.361 983.264,762.671 708.451,762.779C702.176,762.783 695.792,762.799 689.642,763.859C662.646,768.499 643.438,793.429 645.446,820.696C647.48,848.316 669.555,869.858 697.03,870.946C702.205,871.15 707.396,871.05 712.584,871.054C888.876,871.129 1065.172,871.184 1241.464,871.321C1248.472,871.329 1255.63,871.304 1262.459,872.633C1289.659,877.937 1308.434,902.954 1306.068,929.996C1303.651,957.596 1281.664,978.754 1254.022,979.979C1248.847,980.209 1243.655,980.109 1238.468,980.112C1208.097,980.133 773.428,980.955 743.061,981.38C711.965,981.81 688.603,1005.484 688.674,1035.676C688.74,1065.893 712.074,1089.076 743.261,1089.859C748.445,1089.989 753.632,1089.918 758.815,1089.918C1026.22,1089.918 677.502,1090.29 944.91,1090.294C950.464,1090.294 956.026,1090.185 961.572,1090.414C990.618,1091.606 1013.256,1114.631 1013.868,1143.498C1014.489,1172.765 992.264,1196.948 962.772,1198.915C957.239,1199.285 951.668,1199.11 946.114,1199.11C695.372,1199.119 1060.757,1198.747 810.02,1198.747C804.836,1198.747 799.649,1198.684 794.465,1198.809C763.94,1199.534 740.461,1222.547 740.074,1252.059C739.682,1281.814 762.124,1305.48 792.57,1307.301C797.736,1307.609 802.936,1307.489 808.12,1307.489C915.899,1307.501 878.478,1307.78 986.254,1307.859C992.886,1307.863 999.707,1307.855 1006.12,1309.28C1032.057,1315.043 1049.811,1339.48 1047.882,1365.955C1045.924,1392.868 1024.845,1413.943 997.299,1416.297C991.779,1416.767 986.195,1416.576 980.641,1416.576C837.682,1416.588 240.084,1415.065 97.122,1415.07C91.939,1415.07 86.739,1414.957 81.572,1415.236C54.468,1416.707 32.538,1438.374 30.93,1465.149C29.238,1493.269 47.53,1517.528 74.63,1522.274C82.222,1523.604 90.114,1523.544 97.868,1523.544C386.385,1523.607 529.53,1524.333 818.042,1524.346C824.709,1524.346 831.396,1524.184 838.034,1524.68C865.567,1526.742 886.984,1549.117 887.971,1576.584C888.963,1604.167 869.438,1628.038 842.142,1632.159C835.959,1633.092 829.596,1633.1 823.317,1633.105C741.834,1633.163 660.355,1633.138 578.875,1633.159C573.321,1633.163 567.746,1633.067 562.221,1633.509C534.08,1635.771 512.809,1658.613 512.542,1686.663C512.262,1715.355 533.3,1738.738 561.917,1741.193C569.275,1741.821 576.717,1741.663 584.121,1741.663C861.896,1741.683 685.17,1742.76 962.946,1742.776C971.092,1742.776 979.263,1742.568 987.379,1743.106C1016.742,1745.043 1038.321,1768.185 1038.271,1797.343C1038.225,1826.376 1016.325,1849.501 987.038,1851.273C981.129,1851.631 975.188,1851.506 969.263,1851.506C770.008,1851.518 1025.251,1850.426 825.992,1850.471C818.972,1850.471 811.859,1850.401 804.942,1851.413C777.251,1855.467 757.863,1879.772 759.276,1908.105C760.638,1935.33 782.817,1958.013 810.388,1958.642C843.705,1959.401 830.918,1959.565 864.247,1959.74C870.513,1959.773 876.901,1959.981 883.017,1961.194C910.076,1966.552 928.447,1991.314 926.209,2018.852C924.026,2045.748 902.118,2066.961 875.005,2068.34C870.572,2068.565 866.118,2068.494 861.676,2068.494C723.526,2068.498 631.513,2067.759 493.367,2067.755C489.292,2067.755 485.217,2067.813 481.147,2067.663C452.929,2066.601 430.442,2044.959 428.6,2017.147C426.754,1989.267 446.067,1964.813 473.921,1960.026C478.634,1959.217 483.496,1959.03 488.292,1958.988C505.325,1958.855 522.367,1959.142 539.4,1958.838C569.955,1958.292 593.246,1935.342 593.746,1905.642C594.242,1876.084 571.534,1852.309 541.096,1850.626C535.926,1850.342 530.73,1850.442 525.546,1850.442C289.25,1850.463 198.33,1849.762 -37.966,1849.787C-122.032,1849.799 -206.099,1849.787 -290.166,1849.795C-295.72,1849.799 -301.286,1849.725 -306.828,1849.995C-335.383,1851.375 -357.358,1874.349 -357.578,1902.941C-357.803,1931.928 -335.62,1955.933 -306.991,1957.571C-302.191,1957.841 -297.366,1957.721 -292.553,1957.721C-208.849,1957.728 -125.145,1957.666 -41.445,1957.741C58.922,1957.833 159.289,1958.011 259.655,1958.266C266.285,1958.283 273.06,1958.546 279.51,1959.92C305.947,1965.553 324.268,1990.708 321.772,2017.266C319.205,2044.608 297.752,2065.458 270.63,2066.853C265.826,2067.099 261.005,2067.012 256.189,2067.012C189.522,2067.024 122.855,2066.97 56.193,2067.103C49.201,2067.116 42.034,2067.441 35.251,2068.97C9.431,2074.795 -8.329,2099.645 -6.049,2125.95C-3.749,2152.52 17.588,2173.716 44.031,2175.466C50.305,2175.883 56.618,2175.724 62.914,2175.724C320.689,2175.737 687.343,2173.085 945.118,2173.093C950.672,2173.093 956.248,2172.923 961.781,2173.276C991.31,2175.168 1013.685,2199.201 1013.256,2228.401C1012.831,2257.564 989.702,2280.818 960.085,2281.793C954.535,2281.973 948.972,2281.893 943.418,2281.893C734.53,2281.897 -125.409,2293.081 -334.293,2293.089C-339.847,2293.089 -345.422,2292.91 -350.955,2293.289C-380.439,2295.319 -402.522,2319.444 -401.926,2348.806C-401.346,2377.423 -378.464,2400.473 -349.351,2401.644C-343.805,2401.869 -338.243,2401.752 -332.689,2401.752C-68.984,2401.756 416.278,2393.809 679.978,2393.818C685.903,2393.818 691.845,2393.634 697.753,2393.993C726.183,2395.718 748.283,2418.93 748.645,2447.276C749.02,2476.306 727.375,2500.226 698.537,2502.414C692.641,2502.864 686.695,2502.655 680.77,2502.655C389.29,2502.664 583.632,2504.361 292.153,2504.365C286.599,2504.365 281.04,2504.285 275.486,2504.435C245.156,2505.256 221.703,2528.535 221.369,2558.085C221.04,2587.523 244.061,2611.411 274.382,2612.927C280.665,2613.24 286.974,2613.09 293.269,2613.09C718.819,2613.098 409.514,2613.975 835.069,2613.979C840.994,2613.979 846.923,2613.899 852.844,2614.046C882.856,2614.783 905.848,2637.421 906.431,2666.75C907.023,2696.387 885.498,2720.163 855.801,2722.508C851.011,2722.883 846.177,2722.758 841.364,2722.763C798.773,2722.796 1046.949,2721.424 768.803,2721.44C643.619,2721.449 -181.603,2722.113 -306.786,2722.234C-313.42,2722.238 -320.258,2722.159 -326.649,2723.629C-352.362,2729.542 -369.391,2754 -367.253,2781.05C-365.22,2806.83 -343.816,2827.942 -317.758,2829.721C-312.591,2830.071 -307.391,2829.975 -302.208,2829.979C-218.137,2829.992 350.43,2830.633 532.276,2830.858C535.609,2830.862 538.946,2830.828 542.276,2830.949C571.572,2832.016 594.301,2854.341 595.48,2883.174C596.63,2911.295 575.98,2935.362 547.276,2939.008C541.43,2939.749 535.456,2939.662 529.539,2939.662C431.022,2939.699 437.468,2941.569 338.951,2941.581C333.397,2941.581 327.826,2941.456 322.293,2941.823C294.88,2943.643 273.097,2966.173 272.163,2993.49C271.213,3021.26 290.634,3045.186 317.859,3049.081C325.876,3050.231 334.105,3050.161 342.239,3050.165C504.459,3050.223 527.801,3051.797 690.022,3051.806C695.576,3051.806 701.147,3051.676 706.684,3052.035C734.576,3053.847 756.334,3076.577 757.159,3104.597C757.976,3132.389 737.242,3156.668 709.522,3159.735C700.726,3160.71 710.198,3164.557 494.644,3164.569C488.718,3164.569 482.777,3164.419 476.873,3164.807C447.868,3166.715 425.748,3190.49 426.052,3219.24C426.356,3248.115 448.827,3271.377 477.848,3272.72C483.764,3272.994 489.699,3273.003 495.623,3272.865C523.617,3272.755 489.919,3272.528 512.04,3272.629C519.572,3274.434 527.69,3272.696 535.248,3274.142C562.39,3279.329 580.315,3303.672 578.335,3331.762C576.448,3358.55 554.519,3379.842 527.244,3381.234C521.702,3381.517 516.139,3381.396 510.581,3381.396C345.769,3381.4 180.956,3381.384 16.143,3381.459C8.764,3381.463 1.252,3381.555 -5.965,3382.879C-32.695,3387.779 -51.453,3412.129 -49.74,3438.971C-47.978,3466.659 -26.307,3488.371 1.23,3489.888C6.768,3490.192 12.335,3490.092 17.89,3490.092C142.706,3490.1 16.577,3490.169 141.39,3490.26C149.886,3490.264 158.448,3490.627 166.865,3491.718C191.34,3494.885 210.269,3514.231 213.369,3538.643C216.394,3562.46 203.219,3586.093 180.769,3595.023C173.782,3597.806 165.673,3598.843 158.073,3598.864C70.298,3599.123 -242.456,3602.533 -330.231,3602.541C-335.043,3602.545 -339.881,3602.387 -344.668,3602.754C-370.723,3604.762 -989.825,3711.254 -989.825,3711.254L-2865.915,1268.591L-1214.214,0L1997.697,0Z" style="fill:rgb(107,226,228);fill-rule:nonzero;"/>
        <path d="M1588.58,545.013C1568.605,545.013 1548.589,545.817 1528.664,544.833C1493.534,543.105 1469.784,509.013 1480.01,475.455C1486.376,454.571 1500.81,441.805 1522.314,437.567C1527.351,436.576 1532.61,436.442 1537.768,436.426C1572.172,436.334 1606.58,436.271 1640.985,436.467C1647.589,436.505 1654.393,436.942 1660.76,438.555C1686.456,445.046 1702.926,469.475 1700.422,496.534C1698.06,522.121 1677.585,542.48 1651.83,544.846C1650.355,544.984 1648.876,545.113 1647.401,545.113C1627.793,545.13 1608.189,545.126 1588.581,545.126L1588.581,545.013L1588.58,545.013ZM779.365,2935.882C759.39,2935.882 739.378,2936.632 719.449,2935.715C684.265,2934.049 660.424,2900.132 670.511,2866.507C676.791,2845.611 691.178,2832.832 712.649,2828.436C716.961,2827.556 721.465,2827.306 725.886,2827.298C761.77,2827.207 797.653,2827.115 833.536,2827.361C840.12,2827.407 846.932,2828.144 853.22,2829.994C878.357,2837.394 893.753,2861.59 890.89,2888.257C888.153,2913.757 867.432,2933.715 841.507,2935.757C840.405,2935.889 839.296,2935.958 838.187,2935.965L779.365,2935.965L779.365,2935.882Z" style="fill:rgb(107,226,228);fill-rule:nonzero;"/>
    </g>
    <g transform="matrix(0.171304,0.13157,-0.13157,0.171304,1142.242478,-737.602791)">
        <path d="M923.1,2393.235C946.788,2393.235 970.497,2393.79 994.163,2393.073C1016.034,2392.415 1032.284,2381.473 1041.513,2361.685C1050.563,2342.277 1048.268,2323.273 1035.422,2306.156C1024.213,2291.219 1008.613,2284.61 990.042,2284.627C945.992,2284.669 901.942,2284.635 857.897,2284.647C855.676,2284.647 853.447,2284.66 851.238,2284.847C817.963,2287.652 795.142,2318.51 802.318,2350.969C807.659,2375.148 828.759,2392.652 854.255,2393.156C877.192,2393.61 900.151,2393.252 923.101,2393.236L923.1,2393.235ZM923.63,4349.295C923.63,4349.295 923.63,4349.337 923.63,4349.337L968.013,4349.337C982.805,4349.295 997.613,4349.67 1012.393,4349.129C1038.797,4348.17 1060.151,4328.545 1063.872,4302.504C1067.538,4276.837 1051.901,4251.587 1026.847,4243.795C1020.259,4241.754 1013.042,4240.962 1006.105,4240.92C951.375,4240.712 896.642,4240.795 841.909,4240.837C837.484,4240.837 832.989,4241.004 828.659,4241.795C807.567,4245.67 792.929,4257.795 786.279,4278.087C779.501,4298.795 783.942,4317.629 799.246,4333.379C809.817,4344.254 823.009,4349.337 838.196,4349.295C866.676,4349.254 895.151,4349.295 923.63,4349.295ZM924.26,653.705L924.26,653.78C939.05,653.78 953.847,653.8 968.638,653.776C983.434,653.746 998.247,654.138 1013.018,653.526C1039.276,652.434 1060.613,632.351 1063.955,606.342C1067.263,580.555 1051.375,555.467 1026.255,548.038C1019.292,545.98 1011.685,545.38 1004.372,545.351C950.747,545.134 897.122,545.196 843.501,545.284C837.976,545.292 832.363,545.554 826.946,546.542C804.951,550.572 787.617,568.613 784.146,590.63C778.921,623.792 802.796,652.909 836.605,653.584C865.813,654.167 895.038,653.704 924.259,653.704L924.26,653.705ZM1372.547,1740.668L1372.547,1740.702C1406.993,1740.702 1441.439,1740.947 1475.877,1740.518C1483.864,1740.418 1492.327,1739.327 1499.701,1736.456C1523.389,1727.235 1536.897,1701.643 1532.143,1677.06C1527.105,1650.997 1506.197,1633.23 1479.739,1633.076C1444.184,1632.872 1408.626,1633.001 1373.072,1633.01C1336.776,1633.014 1300.476,1632.668 1264.189,1633.172C1232.309,1633.618 1208.33,1662.26 1212.509,1693.852C1216.059,1720.668 1237.559,1740.297 1264.776,1740.581C1300.696,1740.947 1336.626,1740.668 1372.546,1740.668L1372.547,1740.668ZM1354.8,3914.703C1420.68,3914.703 1486.563,3914.728 1552.442,3914.662C1558.722,3914.657 1565.104,3914.72 1571.254,3913.662C1592.392,3910.028 1607,3897.899 1613.929,3877.649C1621.038,3856.869 1616.309,3838.141 1601.229,3822.312C1590.134,3810.67 1576.171,3806.224 1560.125,3806.257C1462.784,3806.445 1365.442,3806.341 1268.1,3806.345C1227.387,3806.345 1186.67,3806.115 1145.962,3806.474C1117.8,3806.72 1094.846,3828.92 1093.283,3856.47C1091.65,3885.29 1111.229,3909.762 1139.442,3913.79C1145.271,3914.624 1151.246,3914.662 1157.154,3914.666C1223.034,3914.724 1288.917,3914.703 1354.8,3914.703ZM1355.158,110.625C1289.275,110.625 1223.392,110.621 1157.508,110.629C1153.067,110.629 1148.617,110.538 1144.188,110.771C1117.162,112.188 1095.033,133.841 1093.304,160.459C1091.467,188.775 1110.437,213.409 1137.896,218C1143.337,218.909 1148.946,219.092 1154.479,219.092C1288.096,219.15 1421.713,219.15 1555.329,219.105C1560.496,219.1 1565.746,219.063 1570.817,218.205C1592.434,214.534 1607.287,202.221 1614.137,181.463C1621.013,160.613 1616.013,141.942 1600.763,126.279C1589.525,114.746 1575.429,110.513 1559.467,110.554C1491.367,110.742 1423.263,110.634 1355.158,110.625ZM924.367,3589.091C994.697,3589.091 1065.022,3589.095 1135.351,3589.086C1140.163,3589.082 1144.984,3589.17 1149.784,3588.928C1177.293,3587.561 1199.222,3566.003 1201.226,3538.458C1203.172,3511.736 1184.556,3487.09 1157.993,3481.936C1151.163,3480.611 1144.018,3480.524 1137.013,3480.52C994.88,3480.445 852.743,3480.461 710.609,3480.47C706.539,3480.47 702.455,3480.365 698.396,3480.611C668.105,3482.449 645.946,3506.228 646.476,3536.232C646.992,3565.312 670.13,3588.124 700.059,3589.003C704.867,3589.145 709.684,3589.086 714.492,3589.086C784.451,3589.091 854.409,3589.091 924.367,3589.091ZM1997.697,0C2001.31,1.812 2004.831,3.837 2008.543,5.4C2033.073,15.74 2046.268,39.278 2042.102,65.445C2038.26,89.562 2017.856,108.037 1992.31,110.303C1987.16,110.758 1981.947,110.612 1976.764,110.612C1905.284,110.628 1833.806,110.595 1762.322,110.678C1756.052,110.683 1749.631,110.662 1743.535,111.912C1718.381,117.074 1700.46,140.095 1701.035,165.832C1701.61,191.741 1720.276,213.808 1745.681,217.958C1752.568,219.083 1759.693,219.095 1766.714,219.095C1896.339,219.158 2025.968,219.141 2155.598,219.158C2161.523,219.158 2167.468,219.028 2173.364,219.478C2200.973,221.595 2222.114,243.904 2222.948,271.578C2223.806,299.92 2203.893,323.687 2175.977,327.12C2168.66,328.024 2161.189,327.891 2153.789,327.895C1867.501,327.929 1581.209,327.92 1294.914,327.933C1288.622,327.933 1282.309,327.808 1276.03,328.17C1246.063,329.887 1224.047,353.145 1224.251,382.695C1224.447,411.554 1246.613,434.508 1275.984,436.154C1281.155,436.445 1286.351,436.358 1291.539,436.366C1317.834,436.404 1344.139,435.962 1370.422,436.558C1404.655,437.333 1428.234,464.028 1424.814,497.188C1422.272,521.845 1402.443,541.958 1377.743,544.645C1372.239,545.245 1366.651,545.195 1361.101,545.204C1309.989,545.241 1258.881,545.212 1207.768,545.254C1202.588,545.258 1197.368,545.22 1192.243,545.841C1163.726,549.308 1143.413,573.191 1144.393,601.858C1145.355,629.983 1168.072,652.496 1196.763,653.65C1202.309,653.875 1207.872,653.77 1213.426,653.77C1464.906,653.775 1716.385,653.762 1967.864,653.829C1975.239,653.833 1982.772,653.849 1989.964,655.241C2017.66,660.604 2035.714,685.354 2033.256,713.787C2030.96,740.387 2008.602,761.941 1981.326,762.333C1941.706,762.908 1902.068,762.453 1862.439,762.646C1855.819,762.675 1849.031,763.008 1842.619,764.487C1816.139,770.596 1799.139,794.991 1801.601,822.587C1803.943,848.854 1825.764,869.717 1852.501,871.092C1858.414,871.392 1864.351,871.262 1870.276,871.262C2081.014,871.271 2291.756,871.258 2502.494,871.329C2509.864,871.329 2517.41,871.325 2524.577,872.787C2551.873,878.354 2569.69,902.875 2567.281,930.667C2564.935,957.717 2543.215,978.617 2515.931,979.958C2510.756,980.212 2505.561,980.108 2500.377,980.108C2174.085,980.117 1847.789,980.117 1521.497,980.112C1516.685,980.112 1511.864,980.192 1507.055,979.987C1477.872,978.742 1455.422,955.812 1454.947,926.854C1454.464,897.262 1476.339,873.212 1505.927,871.534C1519.222,870.779 1532.601,871.6 1545.914,871.05C1569.739,870.058 1589.83,853.362 1595.647,830.337C1603.997,797.296 1580.805,765.55 1546.214,762.791C1541.793,762.441 1537.33,762.566 1532.884,762.571C1258.072,762.621 983.264,762.671 708.451,762.779C702.176,762.783 695.792,762.799 689.642,763.859C662.646,768.499 643.438,793.429 645.446,820.696C647.48,848.316 669.555,869.858 697.03,870.946C702.205,871.15 707.396,871.05 712.584,871.054C888.876,871.129 1065.172,871.184 1241.464,871.321C1248.472,871.329 1255.63,871.304 1262.459,872.633C1289.659,877.937 1308.434,902.954 1306.068,929.996C1303.651,957.596 1281.664,978.754 1254.022,979.979C1248.847,980.209 1243.655,980.109 1238.468,980.112C1208.097,980.133 1177.726,979.825 1147.359,980.25C1116.263,980.68 1092.901,1004.354 1092.972,1034.546C1093.038,1064.763 1116.372,1087.946 1147.559,1088.729C1152.743,1088.859 1157.93,1088.788 1163.113,1088.788C1430.518,1088.788 1697.923,1088.788 1965.331,1088.792C1970.885,1088.792 1976.447,1088.683 1981.993,1088.912C2011.039,1090.104 2033.677,1113.129 2034.289,1141.996C2034.91,1171.263 2012.685,1195.446 1983.193,1197.413C1977.66,1197.783 1972.089,1197.608 1966.535,1197.608C1715.793,1197.617 1465.055,1197.617 1214.318,1197.617C1209.134,1197.617 1203.947,1197.554 1198.763,1197.679C1168.238,1198.404 1144.759,1221.417 1144.372,1250.929C1143.98,1280.684 1166.422,1304.35 1196.868,1306.171C1202.034,1306.479 1207.234,1306.359 1212.418,1306.359C1320.197,1306.371 1427.972,1306.346 1535.748,1306.425C1542.38,1306.429 1549.201,1306.421 1555.614,1307.846C1581.551,1313.609 1599.305,1338.046 1597.376,1364.521C1595.418,1391.434 1574.339,1412.509 1546.793,1414.863C1541.273,1415.333 1535.689,1415.142 1530.135,1415.142C1387.176,1415.154 1244.213,1415.154 1101.251,1415.159C1096.068,1415.159 1090.868,1415.046 1085.701,1415.325C1058.597,1416.796 1036.667,1438.463 1035.059,1465.238C1033.367,1493.358 1051.659,1517.617 1078.759,1522.363C1086.351,1523.693 1094.243,1523.633 1101.997,1523.633C1390.514,1523.696 1679.031,1523.683 1967.543,1523.696C1974.21,1523.696 1980.897,1523.534 1987.535,1524.03C2015.068,1526.092 2036.485,1548.467 2037.472,1575.934C2038.464,1603.517 2018.939,1627.388 1991.643,1631.509C1985.46,1632.442 1979.097,1632.45 1972.818,1632.455C1891.335,1632.513 1809.856,1632.488 1728.376,1632.509C1722.822,1632.513 1717.247,1632.417 1711.722,1632.859C1683.581,1635.121 1662.31,1657.963 1662.043,1686.013C1661.763,1714.705 1682.801,1738.088 1711.418,1740.543C1718.776,1741.171 1726.218,1741.013 1733.622,1741.013C2011.397,1741.033 2289.172,1741.03 2566.948,1741.046C2575.094,1741.046 2583.265,1740.838 2591.381,1741.376C2620.744,1743.313 2642.323,1766.455 2642.273,1795.613C2642.227,1824.646 2620.327,1847.771 2591.04,1849.543C2585.131,1849.901 2579.19,1849.776 2573.265,1849.776C2374.01,1849.788 2174.752,1849.776 1975.493,1849.821C1968.473,1849.821 1961.36,1849.751 1954.443,1850.763C1926.752,1854.817 1907.364,1879.122 1908.777,1907.455C1910.139,1934.68 1932.318,1957.363 1959.889,1957.992C1993.206,1958.751 2026.552,1958.176 2059.881,1958.351C2066.147,1958.384 2072.535,1958.592 2078.651,1959.805C2105.71,1965.163 2124.081,1989.925 2121.843,2017.463C2119.66,2044.359 2097.752,2065.572 2070.639,2066.951C2066.206,2067.176 2061.752,2067.105 2057.31,2067.105C1919.16,2067.109 1781.014,2067.109 1642.868,2067.105C1638.793,2067.105 1634.718,2067.163 1630.648,2067.013C1602.43,2065.951 1579.943,2044.309 1578.101,2016.497C1576.255,1988.617 1595.568,1964.163 1623.422,1959.376C1628.135,1958.567 1632.997,1958.38 1637.793,1958.338C1654.826,1958.205 1671.868,1958.492 1688.901,1958.188C1719.456,1957.642 1742.747,1934.692 1743.247,1904.992C1743.743,1875.434 1721.035,1851.659 1690.597,1849.976C1685.427,1849.692 1680.231,1849.792 1675.047,1849.792C1438.751,1849.813 1202.459,1849.851 966.163,1849.876C882.097,1849.888 798.03,1849.876 713.963,1849.884C708.409,1849.888 702.843,1849.814 697.301,1850.084C668.746,1851.464 646.771,1874.438 646.551,1903.03C646.326,1932.017 668.509,1956.022 697.138,1957.66C701.938,1957.93 706.763,1957.81 711.576,1957.81C795.28,1957.817 878.984,1957.755 962.684,1957.83C1063.051,1957.922 1163.418,1958.1 1263.784,1958.355C1270.414,1958.372 1277.189,1958.635 1283.639,1960.009C1310.076,1965.642 1328.397,1990.797 1325.901,2017.355C1323.334,2044.697 1301.881,2065.547 1274.759,2066.942C1269.955,2067.188 1265.134,2067.101 1260.318,2067.101C1193.651,2067.113 1126.984,2067.059 1060.322,2067.192C1053.33,2067.205 1046.163,2067.53 1039.38,2069.059C1013.56,2074.884 995.8,2099.734 998.08,2126.039C1000.38,2152.609 1021.717,2173.805 1048.16,2175.555C1054.434,2175.972 1060.747,2175.813 1067.043,2175.813C1324.818,2175.826 1582.593,2175.822 1840.368,2175.83C1845.922,2175.83 1851.498,2175.66 1857.031,2176.013C1886.56,2177.905 1908.935,2201.938 1908.506,2231.138C1908.081,2260.301 1884.952,2283.555 1855.335,2284.53C1849.785,2284.71 1844.222,2284.63 1838.668,2284.63C1629.78,2284.634 1420.893,2284.63 1212.009,2284.638C1206.455,2284.638 1200.88,2284.459 1195.347,2284.838C1165.863,2286.868 1143.78,2310.993 1144.376,2340.355C1144.956,2368.972 1167.838,2392.022 1196.951,2393.193C1202.497,2393.418 1208.059,2393.301 1213.613,2393.301C1477.318,2393.305 1741.018,2393.305 2004.718,2393.314C2010.643,2393.314 2016.585,2393.13 2022.493,2393.489C2050.923,2395.214 2073.023,2418.426 2073.385,2446.772C2073.76,2475.802 2052.115,2499.722 2023.277,2501.91C2017.381,2502.36 2011.435,2502.151 2005.51,2502.151C1714.03,2502.16 1422.551,2502.16 1131.072,2502.164C1125.518,2502.164 1119.959,2502.084 1114.405,2502.234C1084.075,2503.055 1060.622,2526.334 1060.288,2555.884C1059.959,2585.322 1082.98,2609.21 1113.301,2610.726C1119.584,2611.039 1125.893,2610.889 1132.188,2610.889C1557.738,2610.897 1983.289,2610.893 2408.844,2610.897C2414.769,2610.897 2420.698,2610.817 2426.619,2610.964C2456.631,2611.701 2479.623,2634.339 2480.206,2663.668C2480.798,2693.305 2459.273,2717.081 2429.576,2719.426C2424.786,2719.801 2419.952,2719.676 2415.139,2719.681C2372.548,2719.714 2329.952,2719.518 2287.364,2719.81C2262.164,2719.985 2242.102,2735.36 2235.218,2758.81C2226.402,2788.83 2245.152,2820.493 2275.848,2826.676C2283.031,2828.126 2290.568,2828.235 2297.939,2828.239C2459.048,2828.319 2620.16,2828.297 2781.269,2828.309C2787.194,2828.309 2793.136,2828.172 2799.039,2828.559C2825.219,2830.285 2846.815,2851.314 2848.886,2876.897C2851.181,2905.235 2833.798,2929.781 2806.956,2935.427C2800.502,2936.785 2793.723,2937.068 2787.094,2937.068C2468.948,2937.143 2150.806,2937.135 1832.66,2937.127C1828.956,2937.127 1825.243,2937.177 1821.556,2936.91C1808.993,2935.997 1797.731,2931.768 1788.226,2923.327C1771.614,2908.572 1765.606,2885.377 1772.96,2864.531C1780.389,2843.476 1799.164,2828.96 1821.68,2828.56C1854.635,2827.972 1887.602,2828.389 1920.564,2828.251C1926.472,2828.226 1932.464,2828.135 1938.264,2827.168C1965.584,2822.614 1985.114,2798.16 1983.439,2771.038C1981.693,2742.856 1959.635,2721.031 1931.572,2719.81C1926.764,2719.601 1921.943,2719.697 1917.131,2719.697C1638.985,2719.693 1360.839,2719.681 1082.693,2719.697C957.509,2719.706 832.326,2719.76 707.143,2719.881C700.509,2719.885 693.671,2719.806 687.28,2721.276C661.567,2727.189 644.538,2751.647 646.676,2778.697C648.709,2804.477 670.113,2825.589 696.171,2827.368C701.338,2827.718 706.538,2827.622 711.721,2827.626C795.792,2827.639 879.867,2827.568 963.938,2827.647C1145.784,2827.827 1327.626,2828.081 1509.472,2828.306C1512.805,2828.31 1516.142,2828.276 1519.472,2828.397C1548.768,2829.464 1571.497,2851.789 1572.676,2880.622C1573.826,2908.743 1553.176,2932.81 1524.472,2936.456C1518.626,2937.197 1512.652,2937.11 1506.735,2937.11C1408.218,2937.147 1309.697,2937.135 1211.18,2937.147C1205.626,2937.147 1200.055,2937.022 1194.522,2937.389C1167.109,2939.209 1145.326,2961.739 1144.392,2989.056C1143.442,3016.826 1162.863,3040.752 1190.088,3044.647C1198.105,3045.797 1206.334,3045.727 1214.468,3045.731C1376.688,3045.789 1538.91,3045.772 1701.131,3045.781C1706.685,3045.781 1712.256,3045.651 1717.793,3046.01C1745.685,3047.822 1767.443,3070.552 1768.268,3098.572C1769.085,3126.364 1748.351,3150.643 1720.631,3153.71C1711.835,3154.685 1702.885,3154.493 1694.001,3154.493C1478.447,3154.535 1262.897,3154.523 1047.343,3154.535C1041.417,3154.535 1035.476,3154.385 1029.572,3154.773C1000.567,3156.681 978.447,3180.456 978.751,3209.206C979.055,3238.081 1001.526,3261.343 1030.547,3262.686C1036.463,3262.96 1042.397,3262.831 1048.322,3262.831C1314.614,3262.835 1580.91,3262.823 1847.202,3262.893C1854.947,3262.898 1862.852,3262.96 1870.41,3264.406C1897.552,3269.593 1915.477,3293.936 1913.497,3322.026C1911.61,3348.814 1889.681,3370.106 1862.406,3371.498C1856.864,3371.781 1851.301,3371.66 1845.743,3371.66C1680.931,3371.664 1516.118,3371.648 1351.305,3371.723C1343.926,3371.727 1336.414,3371.819 1329.197,3373.143C1302.467,3378.043 1283.709,3402.393 1285.422,3429.235C1287.184,3456.923 1308.855,3478.635 1336.392,3480.152C1341.93,3480.456 1347.497,3480.356 1353.052,3480.356C1477.868,3480.364 1602.68,3480.336 1727.493,3480.427C1735.989,3480.431 1744.551,3480.794 1752.968,3481.885C1777.443,3485.052 1796.372,3504.398 1799.472,3528.81C1802.497,3552.627 1789.322,3576.26 1766.872,3585.19C1759.885,3587.973 1751.776,3589.01 1744.176,3589.031C1656.401,3589.29 1568.622,3589.198 1480.847,3589.206C1476.035,3589.21 1471.197,3589.052 1466.41,3589.419C1440.355,3591.427 1419.822,3610.719 1416.172,3636.435C1412.722,3660.781 1426.955,3685.452 1450.434,3693.84C1457.889,3696.502 1466.36,3697.281 1474.368,3697.294C1602.514,3697.502 1730.66,3697.394 1858.806,3697.456C1946.952,3697.502 2424.918,3695.982 2513.064,3696.19C2518.956,3696.203 2524.985,3696.373 2530.714,3697.578C2557.864,3703.303 2576.239,3728.298 2573.669,3755.453C2571.019,3783.473 2548.369,3804.486 2519.956,3804.523C2399.956,3804.673 1890.135,3806.315 1770.139,3806.344C1764.581,3806.348 1759.022,3806.269 1753.472,3806.419C1726.106,3807.156 1704.297,3827.406 1701.368,3854.715C1698.485,3881.585 1716.068,3906.94 1742.401,3912.827C1749.889,3914.502 1757.839,3914.619 1765.576,3914.627C1895.206,3914.727 1899.111,3915.217 2028.74,3915.23C2034.665,3915.23 2040.607,3915.096 2046.51,3915.467C2074.786,3917.242 2096.37,3939.513 2097.228,3967.63C2098.111,3996.396 2077.723,4020.234 2049.182,4023.342C2041.848,4024.142 2034.39,4023.976 2026.99,4023.976C1741.436,4024.005 1581.605,4023.482 1296.051,4023.486C1290.126,4023.486 1284.193,4023.394 1278.276,4023.615C1246.859,4024.79 1224.051,4047.89 1224.251,4078.227C1224.443,4107.902 1247.338,4131.069 1278.181,4131.715C1306.318,4132.302 1879.431,4133.304 1907.576,4133.42C1913.119,4133.445 1918.723,4133.524 1924.186,4134.333C1949.577,4138.087 1968.489,4158.816 1969.989,4184.2C1971.544,4210.491 1955.473,4233.616 1930.31,4240.075C1923.256,4241.908 1915.656,4242.116 1908.302,4242.158C1856.081,4242.325 1258.905,4240.753 1206.68,4240.836C1201.143,4240.836 1195.53,4240.919 1190.076,4241.753C1162.372,4245.961 1142.93,4270.294 1144.422,4298.503C1145.855,4325.669 1168.08,4347.711 1195.626,4349.169C1201.538,4349.461 1207.476,4349.336 1213.401,4349.336L1963.393,4349.336C1968.947,4349.336 1974.514,4349.211 1980.06,4349.461C2011.047,4350.753 2033.84,4374.503 2033.418,4404.878C2033.006,4434.586 2009.748,4457.711 1979.131,4458.003C1940.243,4458.336 1901.356,4458.044 1862.464,4458.211C1855.844,4458.253 1849.056,4458.544 1842.644,4460.044C1816.156,4466.128 1799.147,4490.503 1801.597,4518.128C1803.931,4544.378 1825.739,4565.253 1852.477,4566.628C1858.389,4566.961 1864.327,4566.836 1870.251,4566.836C2081.36,4566.836 2292.469,4566.794 2503.577,4566.878C2510.944,4566.919 2518.497,4567.003 2525.635,4568.586C2552.306,4574.461 2569.644,4598.836 2567.281,4626.211C2564.948,4653.253 2543.235,4674.17 2515.956,4675.503C2510.781,4675.753 2505.59,4675.67 2500.402,4675.67L1521.522,4675.67C1516.71,4675.67 1511.889,4675.753 1507.08,4675.545C1477.893,4674.295 1455.434,4651.378 1454.947,4622.42C1454.451,4592.836 1476.322,4568.794 1505.901,4567.086C1519.197,4566.336 1532.576,4567.169 1545.889,4566.628C1569.718,4565.628 1589.814,4548.961 1595.643,4525.919C1604.005,4492.878 1580.83,4461.128 1546.239,4458.378C1541.447,4457.961 1536.614,4458.128 1531.801,4458.128C1257.731,4458.169 983.659,4458.253 709.588,4458.294C705.146,4458.294 700.68,4458.211 696.263,4458.586C666.846,4461.086 645.505,4485.419 646.58,4515.128C647.592,4543.211 670.563,4566.253 699.226,4566.419C765.517,4566.836 831.817,4566.544 898.113,4566.586C1014.776,4566.628 1131.443,4566.711 1248.105,4566.878C1276.776,4566.919 1298.08,4582.669 1304.418,4607.92C1312.851,4641.545 1288.726,4673.961 1254.047,4675.545C1248.872,4675.753 1243.676,4675.67 1238.493,4675.67C1208.122,4675.711 1177.751,4675.378 1147.384,4675.795C1116.288,4676.253 1092.914,4699.92 1092.968,4730.086C1093.026,4760.295 1116.351,4783.503 1147.534,4784.295C1153.088,4784.42 1158.647,4784.336 1164.201,4784.336L1965.306,4784.336C1970.86,4784.336 1976.422,4784.253 1981.968,4784.461C2011.022,4785.67 2033.664,4808.67 2034.289,4837.545C2034.914,4866.336 2013.277,4890.42 1984.327,4892.878C1978.806,4893.378 1973.222,4893.17 1967.668,4893.17L1212.122,4893.17C1206.563,4893.17 1200.997,4893.045 1195.459,4893.336C1170.093,4894.753 1149.226,4913.586 1144.968,4938.711C1140.763,4963.545 1154.776,4988.086 1178.534,4997.586C1180.488,4998.378 1182.422,4999.211 1184.364,5000.003L0,5000.003L0,0L1997.697,0Z" style="fill:rgb(107,226,228);fill-rule:nonzero;"/>
        <path d="M2209.21,3589.203C2122.94,3589.203 2036.672,3589.207 1950.406,3589.199C1945.222,3589.199 1940.031,3589.274 1934.856,3589.082C1904.952,3587.978 1882.222,3564.982 1881.956,3535.649C1881.685,3506.057 1903.539,3482.536 1933.276,3480.532C1937.702,3480.236 1942.156,3480.37 1946.602,3480.365C2032.127,3480.357 2117.656,3480.361 2203.181,3480.353C2208.364,3480.353 2213.561,3480.44 2218.731,3480.173C2246.343,3478.745 2267.989,3457.328 2269.998,3429.573C2271.964,3402.411 2252.752,3377.786 2225.518,3372.949C2220.089,3371.982 2214.477,3371.774 2208.948,3371.728C2187.473,3371.553 2165.977,3372.215 2144.531,3371.398C2108.06,3370.007 2083.701,3333.49 2096.177,3299.282C2103.339,3279.632 2117.618,3267.728 2138.293,3263.969C2142.993,3263.115 2147.864,3262.89 2152.66,3262.89C2270.027,3262.832 2387.398,3262.824 2504.769,3262.899C2510.289,3262.903 2515.915,3263.257 2521.315,3264.328C2548.427,3269.69 2566.285,3293.732 2564.444,3321.953C2562.702,3348.565 2540.64,3370.657 2513.44,3371.365C2483.473,3372.149 2453.464,3371.565 2423.477,3371.728C2417.577,3371.757 2411.585,3371.948 2405.797,3372.982C2378.064,3377.924 2359.702,3402.199 2361.702,3430.828C2363.564,3457.503 2385.61,3479.198 2412.885,3480.086C2434.339,3480.786 2455.835,3480.074 2477.302,3480.507C2484.614,3480.653 2492.222,3481.361 2499.132,3483.578C2524.148,3491.598 2538.94,3516.282 2535.432,3542.815C2532.102,3567.995 2510.577,3587.641 2484.672,3589.011C2479.502,3589.282 2474.306,3589.199 2469.122,3589.199C2382.485,3589.207 2295.848,3589.203 2209.21,3589.203ZM2108.906,3045.778C2168.123,3045.778 2227.343,3045.698 2286.56,3045.882C2293.89,3045.902 2301.519,3046.261 2308.494,3048.261C2333.764,3055.503 2349.235,3079.657 2346.523,3106.336C2343.993,3131.199 2323.689,3151.344 2298.293,3153.882C2292.052,3154.507 2285.727,3154.49 2279.443,3154.494C2165.073,3154.528 2050.714,3154.528 1936.352,3154.49C1930.064,3154.49 1923.739,3154.499 1917.502,3153.832C1889.739,3150.861 1868.872,3127.09 1869.289,3099.223C1869.657,3071.039 1892.018,3047.635 1920.156,3045.982C1924.952,3045.69 1929.776,3045.782 1934.585,3045.782C1992.693,3045.769 2050.802,3045.773 2108.905,3045.778L2108.906,3045.778ZM1935.477,1306.397C1979.497,1306.397 2023.514,1306.222 2067.535,1306.464C2092.685,1306.605 2113.005,1322.014 2119.785,1345.218C2129.585,1378.764 2106.331,1412.03 2070.989,1414.914C2066.939,1415.247 2062.856,1415.147 2058.789,1415.147C1975.931,1415.16 1893.072,1415.185 1810.214,1415.101C1803.956,1415.097 1797.572,1414.951 1791.456,1413.789C1764.226,1408.601 1745.372,1383.905 1747.518,1356.78C1749.748,1328.572 1771.851,1306.847 1800.098,1306.555C1845.218,1306.085 1890.352,1306.43 1935.477,1306.43L1935.477,1306.397ZM1588.58,545.013C1568.605,545.013 1548.589,545.817 1528.664,544.833C1493.534,543.105 1469.784,509.013 1480.01,475.455C1486.376,454.571 1500.81,441.805 1522.314,437.567C1527.351,436.576 1532.61,436.442 1537.768,436.426C1572.172,436.334 1606.58,436.271 1640.985,436.467C1647.589,436.505 1654.393,436.942 1660.76,438.555C1686.456,445.046 1702.926,469.475 1700.422,496.534C1698.06,522.121 1677.585,542.48 1651.83,544.846C1650.355,544.984 1648.876,545.113 1647.401,545.113C1627.793,545.13 1608.189,545.126 1588.581,545.126L1588.581,545.013L1588.58,545.013ZM2229.507,4887.084C2209.532,4887.084 2189.52,4887.834 2169.591,4886.917C2134.407,4885.251 2110.566,4851.334 2120.653,4817.709C2126.933,4796.813 2141.32,4784.034 2162.791,4779.638C2167.103,4778.758 2171.607,4778.508 2176.028,4778.5C2211.912,4778.409 2247.795,4778.317 2283.678,4778.563C2290.262,4778.609 2297.074,4779.346 2303.362,4781.196C2328.499,4788.596 2343.895,4812.792 2341.032,4839.459C2338.295,4864.959 2317.574,4884.917 2291.649,4886.959C2290.547,4887.09 2289.439,4887.16 2288.329,4887.167L2229.507,4887.167L2229.507,4887.084ZM2347.44,2393.365C2366.681,2393.365 2618.245,2383.838 2637.474,2384.309C2668.662,2385.067 2691.532,2409.651 2690.595,2440.747C2689.715,2469.913 2666.687,2492.463 2636.465,2492.893C2606.503,2493.322 2344.214,2502.161 2314.244,2502.169C2305.735,2502.169 2297.219,2502.348 2288.718,2502.065C2258.464,2501.052 2235.485,2477.54 2235.473,2447.773C2235.456,2417.943 2258.393,2394.203 2288.614,2393.456C2308.214,2392.973 2327.831,2393.365 2347.439,2393.365L2347.44,2393.365Z" style="fill:rgb(107,226,228);fill-rule:nonzero;"/>
    </g>
    <g transform="matrix(0.327976,0.251902,-0.628562,0.818385,473.570077,-1028.828626)">
        <rect x="1091" y="540" width="700" height="351" style="fill:rgb(107,226,228);"/>
    </g>
</svg>
