<?xml version="1.0" encoding="UTF-8" standalone="no"?>
<!DOCTYPE svg PUBLIC "-//W3C//DTD SVG 1.1//EN" "http://www.w3.org/Graphics/SVG/1.1/DTD/svg11.dtd">
<svg width="100%" height="100%" viewBox="0 0 1617 1255" version="1.1" xmlns="http://www.w3.org/2000/svg" xmlns:xlink="http://www.w3.org/1999/xlink" xml:space="preserve" xmlns:serif="http://www.serif.com/" style="fill-rule:evenodd;clip-rule:evenodd;stroke-linejoin:round;stroke-miterlimit:2;">
    <g transform="matrix(4.16667,0,0,4.16667,0,0)">
        <path d="M18.84,151.48L18.84,156.25L11.81,156.25L11.81,194.11L7.04,194.11L7.04,156.25L0,156.25L0,151.48L18.84,151.48Z" style="fill:black;fill-rule:nonzero;"/>
        <path d="M34.12,164.75L34.12,160.59C34.12,158.02 32.04,155.94 29.47,155.94C26.9,155.94 24.76,158.02 24.76,160.59L24.76,184.93C24.76,187.5 26.9,189.58 29.47,189.58C32.04,189.58 34.12,187.5 34.12,184.93L34.12,180.77L38.95,180.77L38.95,184.93C38.95,190.13 34.67,194.41 29.47,194.41C24.27,194.41 19.99,190.13 19.99,184.93L19.99,160.59C19.99,155.39 24.21,151.11 29.47,151.11C34.73,151.11 38.95,155.39 38.95,160.59L38.95,164.75L34.12,164.75Z" style="fill:black;fill-rule:nonzero;"/>
        <path d="M61.21,151.41L61.21,194.1L56.38,194.1L56.38,176.06L47.02,181.26L47.02,194.1L42.25,194.1L42.25,151.41L47.02,151.41L47.02,176.12L56.38,170.98L56.38,151.41L61.21,151.41Z" style="fill:black;fill-rule:nonzero;"/>
        <path d="M79.48,160.59C79.48,158.02 77.4,155.94 74.83,155.94C72.26,155.94 70.12,158.02 70.12,160.59L70.12,184.93C70.12,187.5 72.26,189.58 74.83,189.58C77.4,189.58 79.48,187.5 79.48,184.93L79.48,160.59ZM84.31,160.59L84.31,184.93C84.31,190.13 80.03,194.41 74.83,194.41C69.63,194.41 65.35,190.13 65.35,184.93L65.35,160.59C65.35,155.39 69.57,151.11 74.83,151.11C80.09,151.11 84.31,155.39 84.31,160.59Z" style="fill:black;fill-rule:nonzero;"/>
        <path d="M107.18,151.41L107.18,184.93C107.18,190.13 102.9,194.35 97.7,194.35C92.5,194.35 88.22,190.13 88.22,184.93L88.22,151.41L92.99,151.41L92.99,184.93C92.99,187.5 95.13,189.58 97.7,189.58C100.27,189.58 102.35,187.5 102.35,184.93L102.35,151.41L107.18,151.41Z" style="fill:black;fill-rule:nonzero;"/>
        <path d="M131.75,185.79L131.75,194.11L126.98,194.11L126.98,185.79C126.98,181.02 124.47,176.8 119.45,176.49C117.62,177.89 116.27,179.36 116.27,181.32L116.27,194.1L111.5,194.1L111.5,151.41L116.27,151.41L116.27,172.76C120.43,169.58 125.63,167.5 125.63,162.12L125.63,151.42L130.46,151.42L130.46,162.12C130.46,167.93 127.03,171.11 123.55,173.62C129.67,174.97 131.74,179.98 131.74,185.79L131.75,185.79Z" style="fill:black;fill-rule:nonzero;"/>
        <path d="M150.34,178.14C150.34,177.35 149.91,176.67 149.3,176.37L148.01,175.7C146.3,174.78 145.2,173.01 145.2,171.05C145.14,169.09 146.24,167.32 147.71,166.52C148.69,165.97 149.12,165.17 149.12,164.38L149.12,160.28C149.12,157.95 147.22,156.18 144.78,156.18L140.07,156.18L140.07,189.33L145.21,189.33C147.72,189.33 150.35,187.56 150.35,184.93L150.35,178.14L150.34,178.14ZM155.17,178.13L155.17,184.93C155.17,190 150.7,194.1 145.2,194.1L135.29,194.1L135.29,151.41L144.77,151.41C149.91,151.41 153.89,155.32 153.89,160.28L153.89,164.38C153.89,166.95 152.48,169.34 150.53,170.43C150.04,170.68 149.98,170.8 149.98,170.98C149.98,171.22 150.1,171.35 150.22,171.41L151.5,172.08C153.77,173.24 155.17,175.57 155.17,178.13Z" style="fill:black;fill-rule:nonzero;"/>
        <path d="M172.65,160.59C172.65,158.02 170.57,155.94 168,155.94C165.43,155.94 163.29,158.02 163.29,160.59L163.29,178.57L172.65,174.53L172.65,160.58L172.65,160.59ZM177.48,160.59L177.48,194.11L172.65,194.11L172.65,179.37L163.29,183.47L163.29,194.11L158.52,194.11L158.52,160.59C158.52,155.39 162.74,151.17 168,151.17C173.26,151.17 177.48,155.39 177.48,160.59Z" style="fill:black;fill-rule:nonzero;"/>
        <path d="M198.32,189.33L198.32,194.1L181.81,194.1L181.81,151.53L186.58,151.53L186.58,189.33L198.32,189.33Z" style="fill:black;fill-rule:nonzero;"/>
        <path d="M216.18,189.33L216.18,194.1L199.67,194.1L199.67,151.53L204.44,151.53L204.44,189.33L216.18,189.33Z" style="fill:black;fill-rule:nonzero;"/>
        <path d="M33.64,73.45L33.64,63.55C33.64,57.43 28.69,52.48 22.57,52.48C16.45,52.48 11.36,57.43 11.36,63.55L11.36,93.69L32.04,85.54L35.97,95.44L11.36,105.05L11.36,121.5C11.36,127.62 16.46,132.57 22.57,132.57C28.68,132.57 33.64,127.62 33.64,121.5L33.64,111.6L45.14,111.6L45.14,121.5C45.14,133.88 34.95,144.07 22.57,144.07C10.19,144.07 0,133.88 0,121.5L0,63.54C0,51.16 10.05,40.97 22.57,40.97C35.09,40.97 45.14,51.16 45.14,63.54L45.14,73.44L33.64,73.44L33.64,73.45Z" style="fill:black;fill-rule:nonzero;"/>
        <path d="M97.71,41.99L97.71,121.79C97.71,134.17 87.52,144.22 75.14,144.22C62.76,144.22 52.57,134.17 52.57,121.79L52.57,41.99L63.93,41.99L63.93,121.79C63.93,127.91 69.03,132.86 75.14,132.86C81.25,132.86 86.21,127.91 86.21,121.79L86.21,41.99L97.71,41.99Z" style="fill:black;fill-rule:nonzero;"/>
        <path d="M152.9,140L142.56,144.66L123.05,101.27C122.61,100.25 122.32,99.23 122.32,98.07C122.32,96.47 122.76,94.87 123.63,93.41C125.23,91.08 127.71,89.62 130.619,89.62C135.86,89.62 140.23,85.4 140.23,80.01L140.23,64.72C140.23,58.46 135.13,53.51 129.02,53.51L119.41,53.51L119.41,143.65L108.05,143.65L108.05,42.14L129.02,42.14C141.54,42.14 151.59,52.19 151.59,64.71L151.59,80C151.59,90.05 144.6,98.49 135.28,100.53L152.9,139.99L152.9,140Z" style="fill:black;fill-rule:nonzero;"/>
        <path d="M193.1,63.84C193.1,57.72 188.15,52.77 182.03,52.77C175.91,52.77 170.82,57.72 170.82,63.84L170.82,121.8C170.82,127.92 175.92,132.87 182.03,132.87C188.14,132.87 193.1,127.92 193.1,121.8L193.1,63.84ZM204.6,63.84L204.6,121.8C204.6,134.18 194.41,144.37 182.03,144.37C169.65,144.37 159.46,134.18 159.46,121.8L159.46,63.84C159.46,51.46 169.51,41.27 182.03,41.27C194.55,41.27 204.6,51.46 204.6,63.84Z" style="fill:black;fill-rule:nonzero;"/>
        <path d="M219.46,109.23C217.34,106.53 217.82,102.59 220.52,100.47L245.38,80.98C248.08,78.86 252.02,79.34 254.14,82.04C256.26,84.74 255.78,88.68 253.08,90.8L228.21,110.29C225.51,112.41 221.57,111.93 219.45,109.23L219.46,109.23Z" style="fill:black;fill-rule:nonzero;"/>
        <path d="M219.46,141.23C217.34,138.53 217.82,134.59 220.52,132.47L245.38,112.98C248.08,110.86 252.02,111.34 254.14,114.04C256.26,116.74 255.78,120.68 253.08,122.8L228.21,142.29C225.51,144.41 221.57,143.93 219.45,141.23L219.46,141.23Z" style="fill:black;fill-rule:nonzero;"/>
        <path d="M260.959,141.23C258.84,138.53 259.32,134.59 262.019,132.47L278.45,119.59C281.15,117.47 285.09,117.95 287.21,120.65C289.33,123.35 288.85,127.29 286.15,129.41L269.72,142.29C267.02,144.41 263.08,143.93 260.959,141.23Z" style="fill:black;fill-rule:nonzero;"/>
        <path d="M315.51,88.16L314.81,87.7C311.32,85.39 308.04,82.59 305.16,79.45L304.68,78.92C296.37,69.67 291.74,57.9 291.41,45.5C281.44,53.29 269.32,62.76 262.7,67.95C260,70.07 259.519,74.01 261.64,76.71C263.5,79.09 266.78,79.74 269.38,78.42C274.65,73.98 276.66,74.48 279.72,78.39C281.84,81.09 281.36,85.03 278.66,87.15C273.72,91.02 268.86,94.89 263.9,98.77C261.2,100.89 260.72,104.83 262.84,107.53C264.96,110.23 268.9,110.71 271.6,108.59L287.22,96.35L292.88,91.91L296.18,89.32C298.88,87.2 302.82,87.68 304.94,90.38C307.06,93.08 306.58,97.02 303.88,99.14L303.63,99.34L300.58,101.73C296.71,104.76 288.89,109.12 293.6,115.13C295.72,117.83 299.66,118.31 302.36,116.19L308.27,111.55L311.32,109.16L330.02,94.59C324.91,93.19 320,91.04 315.51,88.16Z" style="fill:black;fill-rule:nonzero;"/>
        <path d="M343.74,75.92L356.92,77.89L366.67,67.74L358.96,58.02L344.39,63.89L343.74,75.92Z" style="fill:black;fill-rule:nonzero;"/>
        <path d="M327.37,33.37L325.21,48.9C327.64,50.89 335.99,57.55 342.84,60.89L358.15,54.73C360.39,47.93 360.93,37.5 361.04,34.53L347.85,24.16L327.38,33.37L327.37,33.37Z" style="fill:black;fill-rule:nonzero;"/>
        <path d="M364.4,34.67C364.29,37.83 363.75,48.38 361.38,55.65L369.33,65.67C372.75,63.72 382.45,57.95 386.55,53.19C387.02,50.99 387.33,48.72 387.46,46.4C387.5,45.68 387.52,44.97 387.52,44.25C384.27,38.9 376.74,31.2 374.11,28.58L364.39,34.66L364.4,34.67Z" style="fill:black;fill-rule:nonzero;"/>
        <path d="M326.03,30.28L346.65,21L349.52,9.9C348.31,8.41 343.79,3.89 332.17,1.87C328.31,2.94 324.65,4.51 321.29,6.53L316.4,23.28L326.04,30.27L326.03,30.28Z" style="fill:black;fill-rule:nonzero;"/>
        <path d="M312.92,23.19L316.9,9.57C308.95,15.78 303.16,24.67 300.98,34.98L303.82,35.13L312.92,23.18L312.92,23.19Z" style="fill:black;fill-rule:nonzero;"/>
        <path d="M372.25,25.8L366.85,12.9L352.62,11.39L349.98,21.56L362.85,31.67L372.25,25.8Z" style="fill:black;fill-rule:nonzero;"/>
        <path d="M352.29,7.97L367.3,9.56L368.57,8.01C362.16,3.58 354.49,0.81 346.16,0.36C344.18,0.25 342.24,0.29 340.31,0.44C347.76,2.97 351.11,6.44 352.29,7.96L352.29,7.97Z" style="fill:black;fill-rule:nonzero;"/>
        <path d="M303.36,38.48L300.42,38.32C300.28,39.43 300.16,40.54 300.1,41.67C299.54,52.01 302.64,61.71 308.26,69.53L307.97,53.55L303.36,38.48Z" style="fill:black;fill-rule:nonzero;"/>
        <path d="M371.25,10.03L369.96,11.61L375.77,25.5C377.04,26.74 382.75,32.4 387.08,37.86C385.5,26.73 379.68,16.86 371.25,10.03Z" style="fill:black;fill-rule:nonzero;"/>
        <path d="M324.03,32.99L314.79,26.28L306.48,37.2L310.78,51.24L321.9,48.26L324.03,32.99Z" style="fill:black;fill-rule:nonzero;"/>
        <path d="M359.44,80.13L360.76,84.35C371.69,79.72 380.43,70.76 384.69,59.52C378.94,64.14 371.36,68.41 369.94,69.2L359.44,80.13Z" style="fill:black;fill-rule:nonzero;"/>
        <path d="M342.13,79.08C340.35,79.68 332.79,82.13 324.27,83.18C329.46,85.78 335.26,87.38 341.41,87.72C347.07,88.03 352.53,87.23 357.61,85.53L356.25,81.19L342.13,79.08Z" style="fill:black;fill-rule:nonzero;"/>
        <path d="M341.03,63.74C333.8,60.14 325.43,53.43 323.01,51.44L311.36,54.57L311.71,73.74C313.97,76.18 316.49,78.36 319.25,80.24C328.18,79.81 337.33,77.09 340.36,76.11L341.03,63.74Z" style="fill:black;fill-rule:nonzero;"/>
        <path d="M18.82,230.23L18.82,236.18C18.82,241.34 14.57,245.59 9.41,245.59C4.25,245.59 0,241.34 0,236.18L0,232.05L4.74,232.05L4.74,236.18C4.74,238.73 6.86,240.79 9.41,240.79C11.96,240.79 14.02,238.72 14.02,236.18L14.02,230.23C14.02,227.62 12.2,226.41 8.25,224.46C4.85,222.82 0.6,220.7 0.6,215.72L0.6,212.02C0.6,206.68 4.42,202.62 9.4,202.62C14.38,202.62 18.14,206.68 18.14,212.02L18.14,216.15L13.4,216.15L13.4,212.02C13.4,208.87 11.34,207.41 9.39,207.41C7.44,207.41 5.38,208.87 5.38,212.02L5.38,215.72C5.38,217.54 6.9,218.51 10.36,220.21C13.94,221.97 18.8,224.34 18.8,230.22L18.82,230.23Z" style="fill:black;fill-rule:nonzero;"/>
        <path d="M49.46,202.92L49.46,234.42C49.46,237.76 45.82,245.53 41.51,245.53C40.24,245.53 38.96,244.86 37.81,243.35C37.38,242.8 36.78,241.89 36.23,241.04C35.68,241.89 35.07,242.8 34.65,243.35C33.49,244.86 32.22,245.53 30.95,245.53C26.64,245.53 23,237.82 23,234.42L23,202.92L27.73,202.92L27.73,234.42C27.73,235.7 28.89,237.94 30.83,240.55C32.71,237.94 33.86,235.7 33.86,234.42L33.86,208.2L38.6,208.2L38.6,234.42C38.6,235.7 39.76,237.94 41.7,240.55C43.58,237.94 44.73,235.7 44.73,234.42L44.73,202.92L49.47,202.92L49.46,202.92Z" style="fill:black;fill-rule:nonzero;"/>
        <rect x="54.66" y="202.92" width="4.74" height="42.36" style="fill:black;fill-rule:nonzero;"/>
        <path d="M80.57,202.98L80.57,207.71L73.59,207.71L73.59,245.28L68.85,245.28L68.85,207.71L61.87,207.71L61.87,202.98L80.57,202.98Z" style="fill:black;fill-rule:nonzero;"/>
        <path d="M100.53,209.54L86.63,239.64L86.63,240.55L95.85,240.55L95.85,231.93L100.64,231.93L100.64,235.99C100.64,237.08 100.58,239.27 100.58,240.91C100.58,243.34 98.58,245.28 96.15,245.28L86.5,245.28C83.95,245.28 81.82,243.21 81.82,240.73L81.82,238.61L95.84,208.57L95.84,207.6L86.62,207.6C86.62,209.24 86.56,211.18 86.56,212.21L86.56,216.28L81.82,216.28L81.82,207.3C81.88,204.87 83.89,202.93 86.31,202.93L95.96,202.93C98.51,202.93 100.63,204.93 100.57,207.48L100.51,209.55L100.53,209.54Z" style="fill:black;fill-rule:nonzero;"/>
        <path d="M118.48,216.03L118.48,211.9C118.48,209.35 116.41,207.29 113.87,207.29C111.33,207.29 109.2,209.35 109.2,211.9L109.2,224.46L117.82,221.06L119.46,225.19L109.2,229.2L109.2,236.06C109.2,238.61 111.32,240.67 113.87,240.67C116.42,240.67 118.48,238.61 118.48,236.06L118.48,231.93L123.27,231.93L123.27,236.06C123.27,241.22 119.02,245.47 113.86,245.47C108.7,245.47 104.46,241.22 104.46,236.06L104.46,211.9C104.46,206.74 108.64,202.49 113.86,202.49C119.08,202.49 123.27,206.74 123.27,211.9L123.27,216.03L118.48,216.03Z" style="fill:black;fill-rule:nonzero;"/>
        <path d="M146.21,243.77L141.9,245.71L133.77,227.62C133.59,227.19 133.47,226.77 133.47,226.28C133.47,225.61 133.65,224.94 134.02,224.34C134.69,223.37 135.72,222.76 136.93,222.76C139.12,222.76 140.94,221 140.94,218.75L140.94,212.38C140.94,209.77 138.82,207.7 136.27,207.7L132.26,207.7L132.26,245.27L127.52,245.27L127.52,202.97L136.26,202.97C141.48,202.97 145.67,207.16 145.67,212.38L145.67,218.75C145.67,222.94 142.76,226.46 138.87,227.31L146.21,243.76L146.21,243.77Z" style="fill:black;fill-rule:nonzero;"/>
        <path d="M166.59,240.55L166.59,245.29L150.21,245.29L150.21,203.05L154.94,203.05L154.94,240.56L166.59,240.56L166.59,240.55Z" style="fill:black;fill-rule:nonzero;"/>
        <path d="M182.72,212.03C182.72,209.48 180.65,207.42 178.11,207.42C175.57,207.42 173.44,209.48 173.44,212.03L173.44,229.87L182.73,225.86L182.73,212.02L182.72,212.03ZM187.52,212.03L187.52,245.29L182.73,245.29L182.73,230.66L173.44,234.73L173.44,245.29L168.71,245.29L168.71,212.03C168.71,206.87 172.89,202.68 178.11,202.68C183.33,202.68 187.52,206.87 187.52,212.03Z" style="fill:black;fill-rule:nonzero;"/>
        <path d="M211.36,212.09L211.36,245.29L206.56,245.29L206.56,212.09C206.56,209.48 204.5,207.42 201.95,207.42C199.4,207.42 197.28,209.48 197.28,212.09L197.28,245.29L192.54,245.29L192.54,212.09C192.54,206.87 196.73,202.68 201.95,202.68C207.17,202.68 211.36,206.87 211.36,212.09Z" style="fill:black;fill-rule:nonzero;"/>
        <path d="M230.59,212.33C230.59,209.78 228.52,207.72 225.98,207.72L221.31,207.72L221.31,240.55L225.98,240.55C228.53,240.55 230.59,238.43 230.59,235.88L230.59,212.33ZM235.38,212.33L235.38,235.88C235.38,241.1 231.13,245.29 225.97,245.29L216.56,245.29L216.56,202.93L225.97,202.93C231.13,202.93 235.38,207.18 235.38,212.34L235.38,212.33Z" style="fill:black;fill-rule:nonzero;"/>
        <path d="M314.15,283.08L314.15,299.53L245.2,299.53L245.2,286.88L247.1,284.56C247.52,284.14 293.91,225.73 293.91,183.77C293.91,174.91 286.74,167.75 277.89,167.75C269.04,167.75 261.65,174.92 261.65,183.77L261.65,198.11L245.21,198.11L245.21,183.77C245.21,165.85 259.76,151.3 277.89,151.3C296.02,151.3 310.57,165.85 310.57,183.77C310.57,219.62 283.16,262.63 268.61,283.08L314.15,283.08Z" style="fill:black;fill-rule:nonzero;"/>
        <path d="M338.61,237.33L338.61,267.69C338.61,276.55 345.99,283.93 354.84,283.93C363.69,283.93 370.87,276.55 370.87,267.69L370.87,237.33C370.87,228.26 364.54,221.09 355.69,221.09C346.84,221.09 338.61,228.26 338.61,237.33ZM370.87,187.35L370.87,183.56C370.87,173.65 364.33,167.96 354.64,167.96C342.83,167.96 338.61,175.97 338.61,182.72L338.61,212.24C343.88,207.39 350.63,204.44 358.64,204.44C376.77,204.44 387.52,219.2 387.52,237.33L387.52,267.69C387.52,285.82 372.76,300.37 354.84,300.37C336.92,300.37 322.16,286.03 322.16,268.32L322.16,182.72C322.16,163.95 336.29,151.3 354.63,151.3C372.97,151.3 387.52,164.79 387.52,183.56L387.52,187.35L370.86,187.35L370.87,187.35Z" style="fill:black;fill-rule:nonzero;"/>
        <path d="M133.97,256.12L114.81,256.12C104.56,272.7 95.28,284.37 95.09,284.55L93.19,286.87L93.19,299.52L162.14,299.52L162.14,283.07L116.6,283.07C121.46,276.24 127.75,266.86 133.97,256.11L133.97,256.12Z" style="fill:black;fill-rule:nonzero;"/>
        <path d="M218.86,256.12L218.86,268.32C218.86,277.18 211.69,284.56 202.83,284.56C193.97,284.56 186.6,277.18 186.6,268.32L186.6,256.12L170.16,256.12L170.16,268.32C170.16,286.45 184.71,301 202.84,301C220.97,301 235.52,286.45 235.52,268.32L235.52,256.12L218.86,256.12Z" style="fill:black;fill-rule:nonzero;"/>
    </g>
</svg>
