<?xml version="1.0" encoding="UTF-8" standalone="no"?>
<!DOCTYPE svg PUBLIC "-//W3C//DTD SVG 1.1//EN" "http://www.w3.org/Graphics/SVG/1.1/DTD/svg11.dtd">
<svg width="100%" height="100%" viewBox="0 0 1063 1238" version="1.1" xmlns="http://www.w3.org/2000/svg" xmlns:xlink="http://www.w3.org/1999/xlink" xml:space="preserve" xmlns:serif="http://www.serif.com/" style="fill-rule:evenodd;clip-rule:evenodd;stroke-linejoin:round;stroke-miterlimit:2;">
    <g transform="matrix(4.16667,0,0,4.16667,0,0)">
        <path d="M196.714,283.328L196.714,296.333L142.194,296.333L142.194,286.33L143.696,284.496C144.03,284.162 180.707,237.98 180.707,204.801C180.707,197.798 175.039,192.131 168.037,192.131C161.035,192.131 155.197,197.798 155.197,204.801L155.197,216.138L142.194,216.138L142.194,204.801C142.194,190.629 153.699,179.126 168.037,179.126C182.209,179.126 193.88,190.629 193.88,204.801C193.88,233.145 172.206,267.155 160.701,283.328L196.714,283.328Z" style="fill:black;fill-rule:nonzero;"/>
        <path d="M216.049,247.15L216.049,271.157C216.049,278.159 221.883,283.995 228.885,283.995C235.891,283.995 241.558,278.159 241.558,271.157L241.558,247.15C241.558,239.981 236.555,234.312 229.553,234.312C222.55,234.312 216.049,239.981 216.049,247.15ZM241.558,207.636L241.558,204.635C241.558,196.799 236.388,192.298 228.721,192.298C219.383,192.298 216.049,198.633 216.049,203.968L216.049,227.309C220.217,223.474 225.551,221.14 231.889,221.14C246.227,221.14 254.728,232.811 254.728,247.15L254.728,271.157C254.728,285.495 243.06,297 228.885,297C214.714,297 203.045,285.662 203.045,271.658L203.045,203.968C203.045,189.129 214.216,179.126 228.721,179.126C243.39,179.126 254.728,189.796 254.728,204.635L254.728,207.636L241.558,207.636Z" style="fill:black;fill-rule:nonzero;"/>
        <path d="M22.333,249.724L22.333,243.15C22.333,239.09 19.045,235.802 14.985,235.802C10.925,235.802 7.541,239.09 7.541,243.15L7.541,263.162L21.269,257.749L23.88,264.323L7.541,270.704L7.541,281.628C7.541,285.689 10.925,288.976 14.985,288.976C19.045,288.976 22.333,285.689 22.333,281.628L22.333,275.054L29.97,275.054L29.97,281.628C29.97,289.846 23.203,296.613 14.985,296.613C6.67,296.613 0,289.846 0,281.628L0,243.15C0,234.932 6.67,228.165 14.985,228.165C23.203,228.165 29.97,234.932 29.97,243.15L29.97,249.724L22.333,249.724Z" style="fill:black;fill-rule:nonzero;"/>
        <path d="M64.872,228.841L64.872,281.821C64.872,290.039 58.105,296.71 49.887,296.71C41.574,296.71 34.902,290.039 34.902,281.821L34.902,228.841L42.443,228.841L42.443,281.821C42.443,285.883 45.827,289.17 49.887,289.17C53.948,289.17 57.235,285.883 57.235,281.821L57.235,228.841L64.872,228.841Z" style="fill:black;fill-rule:nonzero;"/>
        <path d="M101.514,293.906L94.65,297L81.695,268.19C81.405,267.514 81.212,266.836 81.212,266.063C81.212,265 81.502,263.937 82.082,262.969C83.145,261.423 84.789,260.455 86.722,260.455C90.203,260.455 93.103,257.653 93.103,254.074L93.103,243.923C93.103,239.767 89.719,236.48 85.659,236.48L79.278,236.48L79.278,296.324L71.738,296.324L71.738,228.938L85.659,228.938C93.974,228.938 100.645,235.609 100.645,243.923L100.645,254.074C100.645,260.745 96.003,266.353 89.816,267.707L101.514,293.906Z" style="fill:black;fill-rule:nonzero;"/>
        <path d="M128.2,243.344C128.2,239.284 124.911,235.995 120.851,235.995C116.791,235.995 113.407,239.284 113.407,243.344L113.407,281.821C113.407,285.883 116.791,289.17 120.851,289.17C124.911,289.17 128.2,285.883 128.2,281.821L128.2,243.344ZM135.837,243.344L135.837,281.821C135.837,290.039 129.069,296.807 120.851,296.807C112.536,296.807 105.866,290.039 105.866,281.821L105.866,243.344C105.866,235.125 112.536,228.358 120.851,228.358C129.069,228.358 135.837,235.125 135.837,243.344Z" style="fill:black;fill-rule:nonzero;"/>
        <path d="M1.989,164.084C-1.196,160.022 -0.478,154.097 3.585,150.914L40.969,121.609C45.028,118.425 50.954,119.143 54.135,123.202L54.14,123.204C57.321,127.263 56.603,133.188 52.545,136.372L15.155,165.678C11.097,168.862 5.173,168.144 1.989,164.084Z" style="fill:black;fill-rule:nonzero;"/>
        <path d="M1.989,212.202C-1.196,208.141 -0.478,202.215 3.585,199.032L40.969,169.727C45.028,166.543 50.954,167.261 54.135,171.321L54.14,171.323C57.321,175.382 56.603,181.307 52.545,184.491L15.155,213.797C11.097,216.98 5.173,216.263 1.989,212.202Z" style="fill:black;fill-rule:nonzero;"/>
        <path d="M64.397,212.198C61.217,208.137 61.934,202.212 65.992,199.028L90.698,179.665C94.758,176.482 100.68,177.199 103.864,181.26L103.866,181.26C107.047,185.319 106.33,191.243 102.272,194.427L77.563,213.793C73.505,216.975 67.584,216.258 64.397,212.198Z" style="fill:black;fill-rule:nonzero;"/>
        <path d="M146.421,132.407L145.37,131.717C140.118,128.238 135.195,124.039 130.862,119.312L130.141,118.52C117.651,104.618 110.68,86.922 110.185,68.266C95.189,79.983 76.977,94.22 67.022,102.023C62.96,105.205 62.242,111.13 65.427,115.191C68.224,118.763 73.151,119.748 77.059,117.765C84.982,111.093 87.998,111.846 92.604,117.722C95.786,121.781 95.071,127.707 91.007,130.89C83.582,136.714 76.273,142.522 68.818,148.367C64.759,151.55 64.041,157.475 67.223,161.535C70.404,165.595 76.33,166.313 80.386,163.131L103.866,144.731L112.379,138.053L117.348,134.158C121.407,130.975 127.333,131.692 130.518,135.753C133.702,139.811 132.984,145.737 128.923,148.92L128.546,149.219L123.954,152.816C118.135,157.377 106.382,163.924 113.46,172.958C116.644,177.018 122.568,177.736 126.632,174.553L135.525,167.579L140.118,163.98L168.233,142.077C160.544,139.977 153.172,136.744 146.421,132.407Z" style="fill:black;fill-rule:nonzero;"/>
        <path d="M188.855,113.994L208.684,116.955L223.341,101.695L211.748,87.085L189.836,95.907L188.855,113.994Z" style="fill:black;fill-rule:nonzero;"/>
        <path d="M164.251,50.025L160.998,73.368C164.647,76.359 177.209,86.377 187.499,91.394L210.518,82.125C213.892,71.902 214.698,56.217 214.86,51.758L195.023,36.172L164.251,50.025Z" style="fill:black;fill-rule:nonzero;"/>
        <path d="M219.918,51.985C219.753,56.73 218.941,72.598 215.383,83.528L227.337,98.59C232.482,95.652 247.07,86.978 253.235,79.832C253.942,76.52 254.407,73.114 254.597,69.629C254.654,68.548 254.682,67.472 254.69,66.402C249.801,58.362 238.482,46.783 234.533,42.847L219.918,51.985Z" style="fill:black;fill-rule:nonzero;"/>
        <path d="M162.238,45.384L193.238,31.427L197.558,14.741C195.746,12.501 188.94,5.712 171.464,2.669C165.664,4.27 160.165,6.635 155.102,9.681L147.746,34.87L162.238,45.384Z" style="fill:black;fill-rule:nonzero;"/>
        <path d="M142.521,34.713L148.5,14.241C136.551,23.574 127.842,36.951 124.57,52.445L128.845,52.677L142.521,34.713Z" style="fill:black;fill-rule:nonzero;"/>
        <path d="M231.726,38.636L223.616,19.238L202.208,16.969L198.245,32.269L217.594,47.471L231.726,38.636Z" style="fill:black;fill-rule:nonzero;"/>
        <path d="M201.71,11.829L224.279,14.221L226.182,11.893C216.541,5.238 205.013,1.071 192.482,0.392C189.512,0.23 186.58,0.29 183.693,0.518C194.902,4.321 199.937,9.535 201.71,11.829Z" style="fill:black;fill-rule:nonzero;"/>
        <path d="M128.145,57.706L123.731,57.466C123.514,59.129 123.335,60.805 123.244,62.507C122.4,78.054 127.067,92.643 135.52,104.395L135.083,80.369L128.145,57.706Z" style="fill:black;fill-rule:nonzero;"/>
        <path d="M230.23,14.937L228.291,17.306L237.025,38.191C238.928,40.053 247.516,48.571 254.03,56.78C251.649,40.049 242.907,25.208 230.23,14.937Z" style="fill:black;fill-rule:nonzero;"/>
        <path d="M159.224,49.448L145.332,39.37L132.844,55.776L139.309,76.892L156.023,72.409L159.224,49.448Z" style="fill:black;fill-rule:nonzero;"/>
        <path d="M212.465,120.323L214.453,126.668C230.89,119.712 244.032,106.237 250.436,89.336C241.796,96.286 230.397,102.698 228.255,103.883L212.465,120.323Z" style="fill:black;fill-rule:nonzero;"/>
        <path d="M186.44,118.749C183.767,119.658 172.402,123.333 159.582,124.921C167.391,128.827 176.1,131.241 185.359,131.743C193.868,132.204 202.082,131.001 209.713,128.448L207.664,121.918L186.44,118.749Z" style="fill:black;fill-rule:nonzero;"/>
        <path d="M184.779,95.694C173.911,90.277 161.328,80.2 157.687,77.2L140.17,81.899L140.698,110.726C144.089,114.39 147.889,117.68 152.039,120.503C165.461,119.861 179.219,115.768 183.773,114.299L184.779,95.694Z" style="fill:black;fill-rule:nonzero;"/>
    </g>
</svg>
