<?xml version="1.0" encoding="UTF-8"?>
<svg id="Calque_2" xmlns="http://www.w3.org/2000/svg" viewBox="0 0 387.52 300.7">
  <g id="Calque_1-2" data-name="Calque_1">
    <g>
      <g>
        <path d="M18.84,151.18v4.77h-7.03v37.86h-4.77v-37.86H0v-4.77h18.84Z" fill="#00567c"/>
        <path d="M34.12,164.45v-4.16c0-2.57-2.08-4.65-4.65-4.65s-4.71,2.08-4.71,4.65v24.34c0,2.57,2.14,4.65,4.71,4.65s4.65-2.08,4.65-4.65v-4.16h4.83v4.16c0,5.2-4.28,9.48-9.48,9.48s-9.48-4.28-9.48-9.48v-24.34c0-5.2,4.22-9.48,9.48-9.48s9.48,4.28,9.48,9.48v4.16h-4.83Z" fill="#00567c"/>
        <path d="M61.21,151.11v42.69h-4.83v-18.04l-9.36,5.2v12.84h-4.77v-42.69h4.77v24.71l9.36-5.14v-19.57h4.83Z" fill="#00567c"/>
        <path d="M84.31,160.29v24.34c0,5.2-4.28,9.48-9.48,9.48s-9.48-4.28-9.48-9.48v-24.34c0-5.2,4.22-9.48,9.48-9.48s9.48,4.28,9.48,9.48ZM79.48,160.29c0-2.57-2.08-4.65-4.65-4.65s-4.71,2.08-4.71,4.65v24.34c0,2.57,2.14,4.65,4.71,4.65s4.65-2.08,4.65-4.65v-24.34Z" fill="#00567c"/>
        <path d="M107.18,151.11v33.52c0,5.2-4.28,9.42-9.48,9.42s-9.48-4.22-9.48-9.42v-33.52h4.77v33.52c0,2.57,2.14,4.65,4.71,4.65s4.65-2.08,4.65-4.65v-33.52h4.83Z" fill="#00567c"/>
        <path d="M131.75,185.49v8.32h-4.77v-8.32c0-4.77-2.51-8.99-7.53-9.3-1.83,1.4-3.18,2.87-3.18,4.83v12.78h-4.77v-42.69h4.77v21.35c4.16-3.18,9.36-5.26,9.36-10.64v-10.7h4.83v10.7c0,5.81-3.43,8.99-6.91,11.5,6.12,1.35,8.19,6.36,8.19,12.17Z" fill="#00567c"/>
        <path d="M155.17,177.84v6.79c0,5.07-4.47,9.17-9.97,9.17h-9.91v-42.69h9.48c5.14,0,9.12,3.91,9.12,8.87v4.1c0,2.57-1.41,4.96-3.36,6.05-.49.25-.55.37-.55.55,0,.24.12.37.24.43l1.28.67c2.27,1.16,3.67,3.49,3.67,6.05ZM150.34,177.84c0-.79-.43-1.47-1.04-1.77l-1.29-.67c-1.71-.92-2.81-2.69-2.81-4.65-.06-1.96,1.04-3.73,2.51-4.53.98-.55,1.41-1.35,1.41-2.14v-4.1c0-2.33-1.9-4.1-4.34-4.1h-4.71v33.15h5.14c2.51,0,5.14-1.77,5.14-4.4v-6.79Z" fill="#00567c"/>
        <path d="M177.48,160.29v33.52h-4.83v-14.74l-9.36,4.1v10.64h-4.77v-33.52c0-5.2,4.22-9.42,9.48-9.42s9.48,4.22,9.48,9.42ZM172.65,160.29c0-2.57-2.08-4.65-4.65-4.65s-4.71,2.08-4.71,4.65v17.98l9.36-4.04v-13.95Z" fill="#00567c"/>
        <path d="M198.32,189.03v4.77h-16.51v-42.57h4.77v37.8h11.74Z" fill="#00567c"/>
        <path d="M216.18,189.03v4.77h-16.51v-42.57h4.77v37.8h11.74Z" fill="#00567c"/>
      </g>
      <g>
        <path d="M33.64,73.15v-9.9c0-6.12-4.95-11.07-11.07-11.07s-11.21,4.95-11.21,11.07v30.14l20.68-8.15,3.93,9.9-24.61,9.61v16.45c0,6.12,5.1,11.07,11.21,11.07s11.07-4.95,11.07-11.07v-9.9h11.5v9.9c0,12.38-10.19,22.57-22.57,22.57S0,133.58,0,121.2v-57.96c0-12.38,10.05-22.57,22.57-22.57s22.57,10.19,22.57,22.57v9.9h-11.5Z" fill="#00567c"/>
        <path d="M97.71,41.69v79.8c0,12.38-10.19,22.43-22.57,22.43s-22.57-10.05-22.57-22.43V41.69h11.36v79.8c0,6.12,5.1,11.07,11.21,11.07s11.07-4.95,11.07-11.07V41.69h11.5Z" fill="#00567c"/>
        <path d="M152.9,139.7l-10.34,4.66-19.51-43.39c-.44-1.02-.73-2.04-.73-3.2,0-1.6.44-3.2,1.31-4.66,1.6-2.33,4.08-3.79,6.99-3.79,5.24,0,9.61-4.22,9.61-9.61v-15.29c0-6.26-5.1-11.21-11.21-11.21h-9.61v90.14h-11.36V41.84h20.97c12.52,0,22.57,10.05,22.57,22.57v15.29c0,10.05-6.99,18.49-16.31,20.53l17.62,39.46Z" fill="#00567c"/>
        <path d="M204.6,63.54v57.96c0,12.38-10.19,22.57-22.57,22.57s-22.57-10.19-22.57-22.57v-57.96c0-12.38,10.05-22.57,22.57-22.57s22.57,10.19,22.57,22.57ZM193.1,63.54c0-6.12-4.95-11.07-11.07-11.07s-11.21,4.95-11.21,11.07v57.96c0,6.12,5.1,11.07,11.21,11.07s11.07-4.95,11.07-11.07v-57.96Z" fill="#00567c"/>
      </g>
      <g>
        <path d="M219.46,108.93h0c-2.12-2.7-1.64-6.64,1.06-8.76l24.86-19.49c2.7-2.12,6.64-1.64,8.76,1.06h0c2.12,2.7,1.64,6.64-1.06,8.76l-24.87,19.49c-2.7,2.12-6.64,1.64-8.76-1.06h0Z" fill="#f00"/>
        <path d="M219.46,140.93h0c-2.12-2.7-1.64-6.64,1.06-8.76l24.86-19.49c2.7-2.12,6.64-1.64,8.76,1.06h0c2.12,2.7,1.64,6.64-1.06,8.76l-24.87,19.49c-2.7,2.12-6.64,1.64-8.76-1.06h0Z" fill="#00567c"/>
        <path d="M260.96,140.93h0c-2.12-2.7-1.64-6.64,1.06-8.76l16.43-12.88c2.7-2.12,6.64-1.64,8.76,1.06h0c2.12,2.7,1.64,6.64-1.06,8.76l-16.43,12.88c-2.7,2.12-6.64,1.64-8.76-1.06h0Z" fill="#f00"/>
        <path d="M315.51,87.86l-.7-.46c-3.49-2.31-6.77-5.11-9.65-8.25l-.48-.53c-8.31-9.25-12.94-21.02-13.27-33.42-9.97,7.79-22.09,17.26-28.71,22.45-2.7,2.12-3.18,6.06-1.06,8.76,1.86,2.38,5.14,3.03,7.74,1.71,5.27-4.44,7.28-3.94,10.34-.03,2.12,2.7,1.64,6.64-1.06,8.76-4.94,3.87-9.8,7.74-14.76,11.62-2.7,2.12-3.18,6.06-1.06,8.76,2.12,2.7,6.06,3.18,8.76,1.06l15.62-12.24,5.66-4.44,3.3-2.59c2.7-2.12,6.64-1.64,8.76,1.06,2.12,2.7,1.64,6.64-1.06,8.76l-.25.2-3.05,2.39c-3.87,3.03-11.69,7.39-6.98,13.4,2.12,2.7,6.06,3.18,8.76,1.06l5.91-4.64,3.05-2.39,18.7-14.57c-5.11-1.4-10.02-3.55-14.51-6.43Z" fill="#00567c"/>
        <polygon points="343.74 75.62 356.92 77.59 366.67 67.44 358.96 57.72 344.39 63.59 343.74 75.62" fill="#00567c"/>
        <path d="M327.37,33.07l-2.16,15.53c2.43,1.99,10.78,8.65,17.63,11.99l15.31-6.16c2.24-6.8,2.78-17.23,2.89-20.2l-13.19-10.37-20.47,9.21Z" fill="#00567c"/>
        <path d="M364.4,34.37c-.11,3.16-.65,13.71-3.02,20.98l7.95,10.02c3.42-1.95,13.12-7.72,17.22-12.48.47-2.2.78-4.47.91-6.79.04-.72.06-1.43.06-2.15-3.25-5.35-10.78-13.05-13.41-15.67l-9.72,6.08Z" fill="#00567c"/>
        <g>
          <path d="M326.03,29.98l20.62-9.28,2.87-11.1c-1.21-1.49-5.73-6.01-17.35-8.03-3.86,1.07-7.52,2.64-10.88,4.66l-4.89,16.75,9.64,6.99Z" fill="#f00"/>
          <path d="M312.92,22.89l3.98-13.62c-7.95,6.21-13.74,15.1-15.92,25.41l2.84.15,9.1-11.95Z" fill="#f00"/>
          <polygon points="372.25 25.5 366.85 12.6 352.62 11.09 349.98 21.26 362.85 31.37 372.25 25.5" fill="#f00"/>
          <path d="M352.29,7.67l15.01,1.59,1.27-1.55c-6.41-4.43-14.08-7.2-22.41-7.65-1.98-.11-3.92-.07-5.85.08,7.45,2.53,10.8,6,11.98,7.52Z" fill="#f00"/>
          <path d="M303.36,38.18l-2.94-.16c-.14,1.11-.26,2.22-.32,3.35-.56,10.34,2.54,20.04,8.16,27.86l-.29-15.98-4.61-15.07Z" fill="#f00"/>
          <path d="M371.25,9.73l-1.29,1.58,5.81,13.89c1.27,1.24,6.98,6.9,11.31,12.36-1.58-11.13-7.4-21-15.83-27.83Z" fill="#f00"/>
          <polygon points="324.03 32.69 314.79 25.98 306.48 36.9 310.78 50.94 321.9 47.96 324.03 32.69" fill="#f00"/>
        </g>
        <path d="M359.44,79.83l1.32,4.22c10.93-4.63,19.67-13.59,23.93-24.83-5.75,4.62-13.33,8.89-14.75,9.68l-10.5,10.93Z" fill="#00567c"/>
        <path d="M342.13,78.78c-1.78.6-9.34,3.05-17.86,4.1,5.19,2.6,10.99,4.2,17.14,4.54,5.66.31,11.12-.49,16.2-2.19l-1.36-4.34-14.12-2.11Z" fill="#00567c"/>
        <path d="M341.03,63.44c-7.23-3.6-15.6-10.31-18.02-12.3l-11.65,3.13.35,19.17c2.26,2.44,4.78,4.62,7.54,6.5,8.93-.43,18.08-3.15,21.11-4.13l.67-12.37Z" fill="#00567c"/>
      </g>
      <g>
        <path d="M18.82,229.93v5.95c0,5.16-4.25,9.41-9.41,9.41s-9.41-4.25-9.41-9.41v-4.13h4.74v4.13c0,2.55,2.12,4.61,4.67,4.61s4.61-2.07,4.61-4.61v-5.95c0-2.61-1.82-3.82-5.77-5.77-3.4-1.64-7.65-3.76-7.65-8.74v-3.7c0-5.34,3.82-9.4,8.8-9.4s8.74,4.06,8.74,9.4v4.13h-4.74v-4.13c0-3.15-2.06-4.61-4.01-4.61s-4.01,1.46-4.01,4.61v3.7c0,1.82,1.52,2.79,4.98,4.49,3.58,1.76,8.44,4.13,8.44,10.01Z" fill="#f00"/>
        <path d="M49.46,202.62v31.5c0,3.34-3.64,11.11-7.95,11.11-1.27,0-2.55-.67-3.7-2.18-.43-.55-1.03-1.46-1.58-2.31-.55.85-1.16,1.76-1.58,2.31-1.16,1.51-2.43,2.18-3.7,2.18-4.31,0-7.95-7.71-7.95-11.11v-31.5h4.73v31.5c0,1.28,1.16,3.52,3.1,6.13,1.88-2.61,3.03-4.85,3.03-6.13v-26.22h4.74v26.22c0,1.28,1.16,3.52,3.1,6.13,1.88-2.61,3.03-4.85,3.03-6.13v-31.5h4.74Z" fill="#f00"/>
        <path d="M54.66,244.98v-42.36h4.74v42.36h-4.74Z" fill="#f00"/>
        <path d="M80.57,202.68v4.73h-6.98v37.57h-4.74v-37.57h-6.98v-4.73h18.69Z" fill="#f00"/>
        <path d="M100.53,209.24l-13.9,30.1v.91h9.22v-8.62h4.79v4.06c0,1.09-.06,3.28-.06,4.92,0,2.43-2,4.37-4.43,4.37h-9.65c-2.55,0-4.68-2.07-4.68-4.55v-2.12l14.02-30.04v-.97h-9.22c0,1.64-.06,3.58-.06,4.61v4.07h-4.74v-8.98c.06-2.43,2.07-4.37,4.49-4.37h9.65c2.55,0,4.67,2,4.61,4.55l-.06,2.07Z" fill="#f00"/>
        <path d="M118.48,215.73v-4.13c0-2.55-2.07-4.61-4.61-4.61s-4.67,2.06-4.67,4.61v12.56l8.62-3.4,1.64,4.13-10.26,4.01v6.86c0,2.55,2.12,4.61,4.67,4.61s4.61-2.06,4.61-4.61v-4.13h4.79v4.13c0,5.16-4.25,9.41-9.41,9.41s-9.4-4.25-9.4-9.41v-24.16c0-5.16,4.18-9.41,9.4-9.41s9.41,4.25,9.41,9.41v4.13h-4.79Z" fill="#f00"/>
        <path d="M146.21,243.47l-4.31,1.94-8.13-18.09c-.18-.43-.3-.85-.3-1.34,0-.67.18-1.34.55-1.94.67-.97,1.7-1.58,2.91-1.58,2.19,0,4.01-1.76,4.01-4.01v-6.37c0-2.61-2.12-4.68-4.67-4.68h-4.01v37.57h-4.74v-42.3h8.74c5.22,0,9.41,4.19,9.41,9.41v6.37c0,4.19-2.91,7.71-6.8,8.56l7.34,16.45Z" fill="#f00"/>
        <path d="M166.59,240.25v4.74h-16.38v-42.24h4.73v37.51h11.65Z" fill="#f00"/>
        <path d="M187.52,211.73v33.26h-4.79v-14.63l-9.29,4.07v10.56h-4.73v-33.26c0-5.16,4.18-9.35,9.4-9.35s9.41,4.19,9.41,9.35ZM182.72,211.73c0-2.55-2.07-4.61-4.61-4.61s-4.67,2.06-4.67,4.61v17.84l9.29-4.01v-13.84Z" fill="#f00"/>
        <path d="M211.36,211.79v33.2h-4.8v-33.2c0-2.61-2.06-4.67-4.61-4.67s-4.67,2.06-4.67,4.67v33.2h-4.74v-33.2c0-5.22,4.19-9.41,9.41-9.41s9.41,4.19,9.41,9.41Z" fill="#f00"/>
        <path d="M235.38,212.03v23.55c0,5.22-4.25,9.41-9.41,9.41h-9.41v-42.36h9.41c5.16,0,9.41,4.25,9.41,9.41ZM230.59,212.03c0-2.55-2.07-4.61-4.61-4.61h-4.67v32.83h4.67c2.55,0,4.61-2.12,4.61-4.67v-23.55Z" fill="#f00"/>
      </g>
      <g>
        <path d="M314.15,282.78v16.45h-68.95v-12.65l1.9-2.32c.42-.42,46.81-58.83,46.81-100.79,0-8.86-7.17-16.02-16.02-16.02s-16.24,7.17-16.24,16.02v14.34h-16.44v-14.34c0-17.92,14.55-32.47,32.68-32.47s32.68,14.55,32.68,32.47c0,35.85-27.41,78.86-41.96,99.31h45.54Z" fill="#f00"/>
        <path d="M370.87,187.05v-3.79c0-9.91-6.54-15.6-16.23-15.6-11.81,0-16.03,8.01-16.03,14.76v29.52c5.27-4.85,12.02-7.8,20.03-7.8,18.13,0,28.88,14.76,28.88,32.89v30.36c0,18.13-14.76,32.68-32.68,32.68s-32.68-14.34-32.68-32.05v-85.6c0-18.77,14.13-31.42,32.47-31.42s32.89,13.49,32.89,32.26v3.79h-16.66ZM338.61,237.03v30.36c0,8.86,7.38,16.24,16.23,16.24s16.03-7.38,16.03-16.24v-30.36c0-9.07-6.33-16.24-15.18-16.24s-17.08,7.17-17.08,16.24Z" fill="#f00"/>
      </g>
      <g>
        <path d="M133.97,255.82h-19.16c-10.25,16.58-19.53,28.25-19.72,28.43l-1.9,2.32v12.65h68.95v-16.45h-45.54c4.86-6.83,11.15-16.21,17.37-26.96Z" fill="#00567c"/>
        <path d="M218.86,255.82v12.2c0,8.86-7.17,16.24-16.03,16.24s-16.23-7.38-16.23-16.24v-12.2h-16.44v12.2c0,18.13,14.55,32.68,32.68,32.68s32.68-14.55,32.68-32.68v-12.2h-16.66Z" fill="#00567c"/>
      </g>
    </g>
  </g>
</svg>